<svg viewBox="0 0 509.87 504.51" xmlns="http://www.w3.org/2000/svg" xmlns:xlink="http://www.w3.org/1999/xlink" id="_レイヤー_1" overflow="hidden"><defs></defs><g id="_生成オブジェクト"><path d="M468.21 16.96C468.26 17.99 469.7 19.16 468.85 20.76 467.22 20.43 465.39 20.76 464.05 22.05L456.51 29.31 462.85 35.65C464.55 37.35 466.72 38.59 468.84 37.78 470.06 37.31 471.41 36.38 472.17 35.6 472.5 35.27 473.73 34.49 473.26 33.97L468.95 29.31 473.47 24.89 476.03 22.23 480.72 17.55 484.96 22.04C485.97 23.11 487.14 23.81 488.09 24.77L492.61 29.37 488.09 33.95 484.98 37.03 480.57 41.37 475.94 36.98 474.82 38.2C473.84 39.27 472.55 40.32 472.21 41.78 471.81 43.53 472.33 45.31 473.8 46.75L480.67 53.54 487.06 47.16C488.72 45.5 489.57 43.56 489.18 41.22 489.45 40.95 489.7 40.7 490.08 40.94 491.22 41.66 492.4 41 492.9 42.19L492.16 46.6C494.69 52.51 495.94 58.53 496.28 65.03L496.28 90.81C496.28 100.41 492.74 109.07 486.29 115.96 492.38 122.71 496.25 130.75 496.26 139.85L496.36 436.83C496.36 446.19 494.82 454.76 490.81 462.79 488.17 463.31 487.34 467.63 484.97 469.67L483.38 471.03 487.28 475.15C486.26 477.09 484.67 478.37 483.26 479.78L480.6 482.43 475.92 486.65 471.78 482.56 470.42 484.12C469.6 485.06 468.54 485.85 467.86 486.92 467.41 486.75 467.25 487.28 467.52 487.48L464.37 488.28C464.32 489.23 463.85 489.64 463.6 490.13 455.91 493.95 447.7 495.55 438.69 495.55L72.38 495.55C63.28 495.56 53.93 494.17 46.47 489.94 45.63 489.25 44.81 487.35 43.23 487.65L42.21 486.93C41.87 485.84 40.76 484.5 39.44 484.26 39.29 483.67 38.82 483.32 38.11 482.64L34.12 486.6 29.35 482.5 26.65 479.36C25.67 478.22 23.12 477 23.16 475.35 23.22 473.12 28.24 471.35 25.45 470.16 24.78 469.17 23.5 467.65 22.34 467.05 22.34 466.74 22.09 466.46 21.73 466.53 21.75 465.15 21.12 463.45 20.89 463.34 20.55 463.18 19.9 463.16 19.44 463.18 16.6 456.92 13.74 449.88 13.74 442.21L13.7 140.94C13.7 131.29 17.39 122.74 23.83 115.98 17.55 109.49 13.88 101.07 13.83 91.9L13.69 67.19C13.96 60.03 14.91 53.24 17.98 46.67 17.5 45.17 17.22 43.76 17.1 42.22 18.02 41.47 20.54 40.86 20.37 40.87 20.71 40.86 21.01 41.56 21.3 41.84 20.41 42.85 20.73 44.62 21.76 45.71L29.45 53.82 36.7 46.24C38.04 44.84 38.21 42.94 37.8 41.42 37.47 40.16 36.16 38.85 35.31 38.23 35 38 34.78 36.83 34.01 37.04L29.36 41.37C27.54 40.12 26.37 38.38 25.03 37.05L21.91 33.94 17.57 29.12 21.87 24.89C22.86 23.92 24.1 23.27 25.1 22.11 26.36 20.64 27.52 19.01 29.27 17.7L34.01 22.2 36.54 24.75 41.04 29.35 36.68 34.2C37.35 34.6 37.55 35.2 37.76 35.42 38.9 36.32 40 37.86 41.72 37.9 42.56 37.92 43.76 38.26 44.84 37.52 48.1 35.28 50.5 32.36 53.47 29.3 49.36 25.66 45.94 20.19 41.54 20.59 41.3 20.59 41 20.55 40.83 20.39 40.75 20.31 41.08 18.4 41.99 17.09 43.31 16.81 45.09 17.55 46.36 17.74 52.73 14.83 58.8 13.47 65.89 12.93L176.43 13.04C185.49 13.04 193.52 16.86 200.33 22.75 211.47 16.41 223.66 13.23 236.7 13.05L272.72 13.03C285.95 13.21 298.25 16.39 309.54 22.75 317.01 16.41 325.5 12.97 335.14 12.96L443.54 12.93C450.95 13.46 457.48 14.81 463.99 17.95 465.41 17.14 466.69 16.92 468.2 16.95ZM56.62 27.11C57.43 27.91 58.17 29.06 58.41 30.25 52.5 34.05 49.6 41.7 41.77 41.85 41.79 49.53 34.12 52.47 31.14 57.8 29.72 58.61 28.62 58.37 27.67 57.41L20.63 50.24C18.22 56.6 17.55 62.77 17.59 69.34L17.74 92.77C17.79 100.45 21.16 107.55 26.49 113.15L30.94 108.98C32.08 109.89 33.32 110.85 33.6 112.26L29.25 115.79C30.7 117.55 31.72 118.92 33.45 120.1 32.89 120.99 32.04 122.32 30.99 123.09L26.4 119.02C21.41 124.27 17.78 131.16 17.77 138.82L17.62 234.4C19.95 228.32 22.83 223.34 26.64 218.82L30.6 214.12C34.56 209.42 38 203.48 37.99 196.67L37.96 139.81C37.96 134.85 35.89 130.46 33.3 126.66 34.09 125.37 35.12 124.27 36.03 123.32 40.12 129.05 41.95 135.36 41.93 142.47L41.75 197.22C41.72 205.19 37.54 211.8 32.56 217.67 27.58 223.54 23.38 229.66 20.77 237.05 15.74 251.32 17 266.37 24.45 279.5 31.9 292.63 41.83 296.54 41.89 314.5L42.17 400.17C43.41 439.06 76.97 468.7 115.32 468.01L186.74 467.87C197.78 467.85 206.8 472.97 215.57 479.12 238.07 494.89 267.48 495.82 291.06 481.47L300.78 475.12C306.66 471.28 313.31 468.1 320.66 468.07L399.23 467.72C435.85 466.78 466.68 437.18 467.9 400.37L468.2 314.48C468.23 307.18 469.78 300.74 474.31 294.99L481.87 285.4C497.73 265.26 495.21 236.94 477.56 217.7 471.21 210.78 468.08 202.58 468.09 193.26L468.14 142.64C468.14 135.64 469.95 129.12 474.07 123.51L476.82 126.64C473.66 131.28 471.93 136.56 471.94 142.26L472.04 196.33C472.05 203.19 475.47 209.2 479.49 214.08L483.44 218.86C487.26 223.49 490.16 228.76 492.49 234.39L492.43 140.36C492.43 132.1 489.37 124.62 483.63 119.06 481.83 120.36 480.71 121.66 479.48 123.19 478.29 122.75 477.28 121.37 476.88 120.03L480.96 115.97 476.25 111.74 479.02 108.94 483.65 113.12C488.62 107.73 492.28 100.9 492.29 93.43L492.33 63.65C492.33 59.06 491.24 54.71 489.38 50.33L482.51 57.33C481.54 58.19 480.78 58.42 479.57 57.79L470.8 48.76C469.07 46.98 468.72 44.24 468.18 42.06 466.21 41.4 463.22 41.08 461.39 39.28L452.03 30.11C451.73 28.77 453 27.93 453.93 26.99L460.3 20.52C455.57 18.65 450.75 16.96 445.42 16.96L335.22 16.85C326.81 16.85 319.3 19.39 313.51 24.71L310.42 27.57C310.28 27.55 310.02 27.53 309.88 27.55 308.85 26.39 307.42 26.01 306.19 25.33 296.71 20.13 286.08 16.98 274.87 16.97L235.71 16.92C224.32 16.91 213.55 20.07 203.93 25.2 202.64 25.89 201.46 26.59 200.26 27.42L194.75 31.35C193.45 31.3 192.3 30.29 191.65 29.29 193.12 27.6 194.95 26.45 197.17 25.14 190.63 19.26 182.7 16.81 173.82 16.81L68.1 16.85C61.67 16.85 56 17.86 49.93 20.42L56.68 27.12ZM35.92 29.39 29.33 22.91 22.7 29.52 29.26 36.21C31.64 33.91 33.71 32.01 35.92 29.38ZM480.62 36.14 487.33 29.48 480.68 22.91 474.17 29.53 480.62 36.14ZM28.72 451.02 31.45 448.31C32.07 447.7 33.76 445.71 34.58 446.55L42.84 455.05C44.97 457.24 46.19 459.89 46.75 462.63 48.98 463.28 51.8 464.31 53.81 466.19L62.1 473.97C63.17 474.97 62.43 476.43 61.61 477.33L60.32 478.74 57.57 481.4 51.88 486.54C51.62 486.77 51.14 486.87 50.99 486.93 48.82 487.74 59.2 491.7 71.3 491.7L231.9 491.7C226.93 489.86 222.05 487.77 217.37 484.79 216.22 484.06 215.3 483.27 214.14 483.27 214.07 482.36 213.08 482.1 212.49 481.71L208.27 478.95C202.4 475.11 195.89 471.76 188.3 471.75L113.68 471.67C99.65 471.65 86.86 468.33 74.86 461.15 53.35 448.27 38.29 425.23 38.24 399.82L38.08 315.02C38.06 306.94 35.43 300.3 30.49 294.3L26.64 289.63C22.95 285.15 20.2 280.51 17.59 274.22L17.68 443.09C17.68 449.03 19.93 454.18 21.89 459.07L23.3 456.8 28.73 451.02ZM483.36 289.59 479.56 294.33C474.54 300.58 471.9 307.24 471.87 315.35L471.55 401.44C470.5 432.8 448.29 459.09 419.13 468.36 411.52 470.78 404.47 471.62 396.27 471.63L321.68 471.77C314.07 471.78 307.69 475.32 301.71 478.99L296.86 483.24C296.75 482.37 295.4 483.24 294.74 483.64 289.37 487.11 283.88 489.64 278.08 491.72L442.45 491.65C448.63 491.65 453.92 490.07 459.49 487.44L452.81 481.46 449.56 478.32C448.76 477.54 447.93 476.96 447.58 476.19 447.01 474.93 447.95 473.72 448.91 472.85L457.29 465.18C458.97 463.64 460.88 462.86 463.49 463.13 463.36 458.94 465.79 456.46 468.48 453.71L475.88 446.15C477.22 446.96 478.23 448.04 479.05 448.85L481.3 451.06 485.17 455.09C486.42 456.4 487.25 457.59 488.21 459.18 490.6 453.41 492.38 448.01 492.38 441.67L492.42 274.53C489.82 279.83 487.05 284.99 483.37 289.58ZM25.32 463.73C25.74 464.83 27.04 466.36 28.04 467.13 28.41 467.42 28.83 468.67 29.65 467.94L33.67 464.35C37.76 465.34 37.11 469.38 39.65 466.66 40.4 465.86 41.57 465.1 42.19 463.98 43.24 462.09 42.41 460.13 40.96 458.58L34 451.11 26.01 459.47C24.7 460.83 24.75 462.25 25.32 463.73ZM467.68 463.74C468.36 464.92 469.39 465.75 470.33 466.65L471.7 467.98C473.07 466.48 474.14 465.13 475.91 463.94L480.4 468.14 481.72 467.08C482.93 466.11 483.94 465.08 484.57 463.8 485.24 462.56 485.18 460.75 483.97 459.48L475.98 451.14 468.78 458.86C467.54 460.2 466.84 462.28 467.68 463.73ZM45.24 467.3C44.53 467.81 43.2 468.75 42.69 469.53 42.49 469.84 41.31 470.22 41.55 470.89L45.26 475.5 41.33 479.43 42.16 481.06C42.62 481.96 43.43 482.56 44.16 483.26 45.46 484.5 48 484.94 49.46 483.55L53 480.19 56.21 476.95C56.56 476.6 57.44 476.34 57.65 475.88 58.02 475.07 57.41 474.56 56.74 473.96L49.7 467.68C48.26 466.39 46.58 466.33 45.22 467.31ZM453.66 476.97C454.49 478.02 455.51 478.96 456.55 479.91L460.81 483.75C462.16 484.97 464.17 484.44 465.37 483.42 466.1 482.8 467.11 482.23 467.48 481.2L468.44 480.16C469.17 479.37 466.16 477.78 464.8 475.12 466.1 473.64 467.64 472.49 468.38 470.85 468.68 470.19 467.61 469.81 467.35 469.7 466.73 468.97 465.83 467.73 464.79 467.13 463.02 466.12 461.25 466.78 459.74 468.14L452.14 474.98C452.33 476.16 453.24 476.42 453.67 476.97ZM34.32 481.38 40.22 475.22 33.83 469.19 27.9 475.51 34.32 481.38ZM475.74 481.41 482.36 475.38 475.91 469.17 469.79 475.23 475.75 481.42Z" fill="#BE2A26"/><path d="M42 17.08C41.09 18.39 40.76 20.3 40.84 20.38 41.01 20.55 41.31 20.59 41.55 20.58 40.96 20.93 40.99 21.31 41.33 21.57 41.71 21.86 42.32 22.02 42.51 22.21L49.53 29.4 41.73 37.88C40.01 37.84 38.91 36.31 37.77 35.4 38.81 35.63 39.36 34.76 40.1 33.96 41.64 32.3 43.35 31.09 44.29 29.18L38.03 23.05C37.79 24.03 37.41 24.47 36.55 24.72L34.02 22.17C34.09 21.47 34.91 20.94 35.37 20.4L29.3 14.27 23.25 20.65C24.06 21.37 24.36 21.73 25.11 22.08 24.12 23.24 22.87 23.89 21.88 24.86 21.62 24.17 21.41 24.01 21.15 23.78 20.72 23.4 19.93 23.49 19.44 24L14.27 29.31 19.94 35.09C20.3 35.46 20.71 35.53 21.14 35.17 21.46 34.9 21.87 34.54 21.93 33.91L25.05 37.02C24.36 37.32 24.02 37.72 23.27 38.41L29.2 44.32 31.32 42.33C32.75 40.98 34.51 39.94 35.33 38.2 36.18 38.82 37.48 40.14 37.82 41.39L29.31 49.7 21.31 41.8C21.03 41.52 20.73 40.82 20.38 40.83 20.55 40.83 18.03 41.43 17.11 42.18 13.73 41.47 10.38 40.12 7.88 37.49L0 29.27 9.34 19.88C11.37 17.84 13.92 16.97 16.87 17.07 16.88 14.05 18.08 11.36 20.21 9.23L29.34 0.09 38.51 9.03C40.77 11.24 41.58 14.31 42.01 17.09ZM29.28 8.93 37.36 16.95C38.36 15.6 37.7 13.91 36.71 12.88L29.29 5.13 22.53 12.15C21.24 13.49 20.11 15.38 21.22 17.32L29.27 8.94ZM16.91 37.5 9.14 29.31 17.1 21.05C15.02 20.46 13.32 21.28 12.03 22.58L5.2 29.45C9.39 33.32 13.43 39.32 16.91 37.5Z" fill="#CC9D4E"/><path d="M492.89 42.2C492.39 41.01 491.22 41.67 490.07 40.95 489.69 40.71 489.43 40.95 489.17 41.23L480.72 49.68 473.06 42.01C472.82 41.77 472.43 41.82 472.21 41.79 472.54 40.33 473.84 39.28 474.82 38.21 474.82 38.36 474.76 38.84 474.97 39.04L480.67 44.44 486.77 38.44C485.99 37.72 485.65 37.33 484.97 37.03L488.08 33.95C487.91 34.55 489.15 35.86 489.67 35.34L495.8 29.3 489.95 23.6C489.59 23.25 488.98 23.24 488.78 23.38 488.49 23.58 488.13 24.26 488.09 24.76 487.14 23.8 485.97 23.1 484.96 22.03 485.46 22.09 486.63 20.88 486.18 20.41L480.49 14.43 474.38 20.74C475.21 20.96 475.72 21.46 476.04 22.22L473.48 24.88C472.85 24.67 472.2 23.89 471.59 23.53L465.67 29.3 472.19 35.58C471.42 36.36 470.08 37.29 468.86 37.76L460.92 29.72C462.19 26.14 466.95 24.33 468.87 20.75 469.73 19.15 468.28 17.98 468.23 16.95 468.13 14.8 469.27 11.43 471 9.66L480.5-0.01 490.97 10.69C492.53 12.28 493.1 14.43 493.13 16.59 497.38 17.12 500.2 19.53 503.01 22.36 505.36 24.73 508.07 26.47 509.89 29.67L500.16 39.2C498.19 41.13 495.33 41.55 492.91 42.18ZM485.1 13.37C486.38 14.67 487.29 16.31 488.99 17.19 489.99 14.86 488.57 13.26 487.21 11.85L480.69 5.1 473.22 12.86C472.1 14.02 471.72 15.51 472.38 17.37L480.71 8.92 485.1 13.38ZM497.4 36.56 504.88 29.27 498.15 22.85C496.8 21.56 495.22 20.25 492.8 21.09L500.81 29.6 492.94 37.53C494.57 38.61 496.23 37.69 497.39 36.56Z" fill="#CD9E4F"/><path d="M463.6 490.14C463.85 489.65 464.32 489.24 464.37 488.29L467.52 487.49C467.24 489.84 468.38 491.56 470.11 493.28L476.1 499.22 483.31 491.68C484.75 490.18 485.68 488.46 484.31 486.5L481.27 489.64C479.55 491.42 478.02 493.36 476.02 494.85L467.86 486.93C468.54 485.86 469.59 485.06 470.42 484.13L475.91 489.81 481.43 484.31 480.6 482.44 483.26 479.79C483.62 479.7 484.25 481.22 484.51 480.99L490.38 475.61C489.79 473.14 486.56 472.16 484.97 469.67 487.34 467.63 488.17 463.31 490.81 462.79 492.85 463.75 494.66 464.82 496.35 466.49L504.5 474.49C504.87 474.85 504.86 475.93 504.51 476.26L497.34 483.2C494.91 485.56 492.64 487.96 488.69 488.02 488.57 491.21 486.95 493.3 484.92 495.42L476.23 504.5 465.68 493.99C464.54 492.85 464.23 491.33 463.59 490.13ZM494.78 480.41 500.07 475.35 492.59 468.15C491.24 466.85 489.54 466.07 487.61 467.3L495.65 475.5 487.33 484.14C490.81 484.86 492.68 482.42 494.77 480.42Z" fill="#CB9D4D"/><path d="M19.44 463.17C19.9 463.15 20.55 463.17 20.89 463.33 21.12 463.44 21.75 465.14 21.73 466.52 20.2 466.3 18.69 466.92 17.41 468.16L9.96 475.33 17.26 482.31C18.79 483.77 20.73 485.11 23.1 483.63L14.38 475.47 22.35 467.04C23.5 467.65 24.79 469.17 25.46 470.15 25.02 470.19 24.69 470.3 24.31 470.68L19.53 475.38 25.18 480.99C25.76 480.64 26.36 480.14 26.66 479.36L29.36 482.5 28.57 484.32 34.13 489.85 39.47 484.26C40.79 484.51 41.89 485.84 42.24 486.93L35.3 494.03C34.89 494.46 34.22 494.73 33.91 494.54L33.01 493.97 25.96 486.76C25.16 487.69 25.05 489.72 26.04 490.76L34.02 499.25 42.17 490.73 43.26 487.66C44.84 487.36 45.66 489.26 46.5 489.95 46.23 491.1 45.75 492.54 44.86 493.45L34.33 504.26C32.47 503.74 31.98 502.5 30.93 501.43L24.8 495.19C22.82 493.18 21.43 491.05 21.4 488 19.07 487.9 17.31 487.3 15.82 485.9L10.81 481.22C8.8 479.35 6.46 477.71 5.11 475.28 7.62 471.88 10.79 469.43 13.79 466.62 15.56 464.96 17.22 463.32 19.47 463.16Z" fill="#CB9D4D"/><path d="M453.87 26.99C452.94 27.93 451.66 28.77 451.97 30.11L445.71 29.04 335.73 28.98C330.91 28.98 326.83 29.52 322.7 31.79 326.62 35.24 331.37 36.63 336.79 36.64L420.46 36.8C437.46 36.83 452.5 45.54 462.33 59.26 469.05 68.64 471.67 79.69 471.93 91.16 472.05 96.26 473.83 101.09 476.51 105.46 478.93 102.31 480.05 98.6 480.06 94.55L480.15 66.65 479.51 57.78C480.72 58.41 481.48 58.19 482.45 57.32 483.21 59.35 483.85 61.65 483.84 63.98L483.7 97.04C483.68 101.56 481.28 105.57 478.95 108.93L476.18 111.73 472.67 115.94C473.6 117.48 475.18 119.14 476.81 120.02 477.22 121.37 478.23 122.74 479.41 123.18 482.29 128.31 484.47 133.46 483.91 139.78L483.91 218.01C483.66 218.3 483.53 218.55 483.36 218.84L479.41 214.06C479.96 213.32 480.09 212.73 480.08 211.66L480.03 137.11C480.03 133.02 478.49 129.64 476.73 126.62L473.98 123.49C472.66 121.98 471.44 120.4 469.7 118.83 465.41 124.25 462.89 130.55 461.4 137.16 460.6 136.98 460.92 136.38 460.92 135.99L460.92 125.27C461.39 125.27 461.59 125.16 461.79 124.63 463.04 121.33 465.16 118.79 467.21 115.9 464.55 112.77 462.49 109.28 460.93 105.63L461.09 94.36C461.41 94.6 461.68 95.17 461.8 95.74 463.06 102.05 465.5 107.6 469.64 112.94L473.95 108.57C469.1 101.88 467.99 94.47 467.69 86.47 467.19 73.06 460.65 60.79 450.68 52.16 440.71 43.53 429.45 40.49 416.76 40.51L338.86 40.65C331.34 40.66 324.97 38.8 318.97 34.11L313.94 37.9 310.78 40.21C301.92 46.69 291.23 51.09 279.7 51.12L234.01 51.28C221.29 51.32 209.42 47.83 199.57 40.25L202.76 37.66C211.43 44.15 221.74 47.39 232.93 47.36L280.23 47.24C290.26 47.22 299.47 43.28 307.21 37.84 308.31 37.07 309.31 36.46 310.44 35.58L315.42 31.71 310.33 27.53 313.42 24.67 319.04 29.13C322.95 27.56 326.76 25.3 331.4 25.3L446.21 25.24 453.84 26.96Z" fill="#CB9E50"/><path d="M191.6 29.29C192.25 30.29 193.4 31.29 194.7 31.35L199.17 35.52 195.99 38.27 190.95 34.17C186.13 37.52 181.02 40.48 174.87 40.49L91.66 40.6C79.69 40.62 69.03 44.16 59.85 51.65 47.36 61.84 41.88 76.93 41.83 92.75 41.81 98.51 38.95 103.77 36.26 108.63L40.3 113.03C44.84 107.54 47.9 100.92 48.51 94.03 48.89 94.05 49.08 94.17 49.07 94.57L49.03 105.67C47.58 109.3 45.36 112.56 42.93 116 46.33 119.87 48.3 125 48.4 125.1 48.54 125.24 48.95 125.26 49.05 125.26L49.02 136.02C49.07 136.48 49.29 137.06 48.5 137.18 47.63 130.56 44.55 124.53 40.3 118.74L35.98 123.33C35.08 124.29 34.04 125.39 33.25 126.67 31.46 129.59 29.92 133.07 29.91 137.16L29.82 211.69C29.82 212.76 29.96 213.4 30.54 214.13L26.58 218.83C26.42 218.58 26.3 218.34 26.01 218.04L26.08 136.58C26.08 131.39 28.35 126.94 30.92 123.1 31.98 122.33 32.82 121 33.38 120.11L37.37 116.01C36.06 114.76 35.22 112.8 33.54 112.26 33.27 110.85 32.03 109.89 30.88 108.98 28.77 105.58 26.44 101.67 26.24 97.14 25.74 85.75 25.99 74.46 26.15 63.09 26.18 61.11 26.99 59.11 27.62 57.4 28.57 58.36 29.66 58.6 31.09 57.79 30.22 60.06 29.95 63.14 29.93 65.55L29.74 91.35C29.7 96.42 30.46 101.31 33.32 105.5 36.36 101.13 37.91 96.22 38.06 91.11 38.36 80.83 40.41 71.1 45.78 62.23 55.14 46.75 71.22 36.84 89.55 36.8L173.73 36.62C178.88 36.61 183.46 35.13 187.02 31.88 183.11 29.62 179.56 28.98 175.3 28.98L64.25 29.05C62.26 29.05 59.96 29.56 58.36 30.24 58.12 29.06 57.38 27.91 56.57 27.1 60.52 25.33 64.46 25.21 69.08 25.21L178.01 25.23C183.17 25.59 187.14 27.59 191.55 29.27Z" fill="#CB9D50"/><path d="M481.3 451.07 479.05 448.86C480.13 441.77 480.13 434.68 480.05 427.31L479.99 421.32C471.12 449.38 451.31 469.13 423.43 479.33L443.12 479.4 449.56 478.33 452.81 481.47C448.59 483.01 444.59 483.29 439.78 483.27L296.87 483.24 301.72 478.99C301.76 479.23 301.82 479.55 302.39 479.55L400.11 479.33C424.92 479.27 449.62 464.75 464.19 444.54 473.93 431.03 479.88 415.15 479.91 398.16L480.11 296.78C480.11 295.68 479.98 295.12 479.56 294.33L483.36 289.59C483.41 289.78 483.91 290.23 483.91 290.46L483.91 442.22C483.91 442.22 482.64 450.07 482.64 450.07 482.59 450.36 482.33 450.99 482.12 451.13 481.93 451.25 481.62 451.13 481.3 451.07Z" fill="#CC9F50"/><path d="M30.48 294.3C30.51 294.5 29.83 295.05 29.83 295.28L30.2 399.61C30.28 421.08 41.69 442.86 57.52 457.59 73.35 472.32 93.85 479.59 115.8 479.56L207.07 479.43C207.8 479.5 208.05 479.5 208.26 478.95L212.48 481.71C213.07 482.1 214.06 482.36 214.13 483.27L67.55 483.21C63.78 483.21 60.72 482.76 57.56 481.39L60.31 478.73 66.32 479.31 86.61 479.21C59.3 469.44 38.77 449.2 30.02 421.18L30.09 441.93C30.09 444.16 30.35 446.46 31.44 448.29L28.71 451C28.39 451.05 28.07 451.11 27.91 450.98 27.73 450.84 27.44 450.26 27.39 450.01L26.13 443.11 26.06 290.43C26.35 290.09 26.47 289.85 26.63 289.6L30.48 294.27Z" fill="#CC9E50"/><path d="M467.34 469.7 461.71 475.13 467.47 481.2C467.11 482.23 466.09 482.8 465.36 483.42 463.84 483.04 462.3 480.98 459.36 478.82 458.29 478.03 457.43 476.62 456.55 475.59 456.56 475.42 456.4 474.97 456.67 474.71L460.76 470.75C462.1 469.46 463.68 468.54 464.77 467.13 465.82 467.73 466.72 468.97 467.33 469.7Z" fill="#CC9A4C"/><path d="M42.2 463.98C41.57 465.11 40.4 465.86 39.66 466.66 37.48 465.56 36.52 462.74 34.03 460.96L28.05 467.12C27.05 466.35 25.75 464.82 25.33 463.72 26.36 463.96 26.47 463.44 27.12 462.76L33.96 455.52 38.24 459.75C39.61 461.1 40.55 462.87 42.21 463.98Z" fill="#CB9B4E"/><path d="M484.56 463.81C483.93 465.1 482.92 466.12 481.71 467.09L475.94 460.91 470.32 466.65C469.38 465.74 468.36 464.92 467.67 463.74L472.64 459 475.77 455.67C477.72 456.33 478.41 457.83 479.61 459.06L484.56 463.81Z" fill="#C8984A"/><path d="M45.24 467.3 52.26 473.65C52.65 474 53.31 474.47 53.36 474.89 53.43 475.45 53.1 476.18 52.92 476.78 52.43 476.78 52.1 477.42 51.8 477.6 51.21 477.96 50.94 478.73 51.41 479.29L50.31 479.08 46.65 482.27C45.76 483.04 45.37 483.76 44.18 483.23 43.45 482.53 42.64 481.94 42.18 481.03 44.63 479.97 45.95 477.61 48.33 475.35L42.7 469.5C43.2 468.72 44.54 467.79 45.25 467.27Z" fill="#CB9E4F"/><path d="M467.48 481.2 461.72 475.13 467.35 469.7C467.61 469.8 468.68 470.18 468.38 470.85 467.65 472.49 466.1 473.64 464.8 475.12 466.15 477.77 469.16 479.37 468.44 480.16L467.48 481.2Z" fill="#FEFAEF"/><path d="M309.81 27.55 306.59 30.1C305.85 30.69 305.36 30.89 305.52 31.83L301.28 29.53 306.12 25.34C307.35 26.02 308.78 26.4 309.81 27.56Z" fill="#CF9F56"/><path d="M208.69 29.49 205.02 31.65 200.2 27.42C201.4 26.6 202.57 25.89 203.87 25.2 204.28 26.79 206.87 27.73 208.69 29.49Z" fill="#CE9C51"/><path d="M56.23 476.94 53.02 480.18C52.49 479.75 51.94 479.4 51.41 479.3 50.93 478.74 51.21 477.97 51.8 477.61 52.1 477.43 52.43 476.8 52.92 476.79L56.23 476.94Z" fill="#E8C97A"/><path d="M301.28 29.52 305.52 31.82C307.28 32.78 309.06 33.96 310.47 35.62 309.34 36.5 308.34 37.11 307.24 37.88 305.3 36.05 303.18 34.82 301.07 33.78L296.91 31.72C282.37 24.51 259.27 25.61 241.57 25.97 231.51 26.17 221.89 27.64 213.09 31.62L209.2 33.69C207 34.86 204.76 36.11 202.8 37.7L199.61 40.29C193.16 45.52 186.03 51.01 177.04 51.06L88.27 51.61C69.73 51.72 53.84 67.78 53.25 86.63L52.7 190.72C52.68 194.34 53.04 197.4 52.27 200.51 51.37 204.14 50.46 207.81 48.81 211.19 46.85 215.21 44.43 219.03 41.53 222.46L37.46 227.28C28.34 238.08 23.73 251.34 28.34 265.47 30.33 271.54 33.75 276.63 37.63 281.32L41.52 286.01C44.41 289.5 47 293.21 48.86 297.29 50.49 300.86 51.51 304.61 52.31 308.45 52.78 310.68 52.8 312.89 52.8 315.58L52.77 396.1C52.77 411.17 57.65 425 67.51 436.44 78.81 449.55 95.09 457.05 112.4 457.08L183.46 457.18 192.65 457.43C196.95 457.55 201.3 459 205.09 461.07L212.04 464.85 217.74 468.41 222.25 471.82C231.4 478.74 242.46 482.82 254.47 482.91 266.93 483 278.15 478.22 288.04 471.55L292.2 468.74 303.36 461.78C306.8 459.63 310.95 458.96 314.81 457.81 316.2 457.39 317.73 457.25 319.58 457.24L398.1 457.05C429.78 456.97 456.36 431.27 457.01 399.28L457.24 318.26C457.25 314.68 457 311.67 457.64 308.53 458.43 304.6 459.39 300.75 461.23 297.18 463.27 293.22 465.69 289.46 468.55 286.05L472.23 281.68 475.88 276.8C485.57 263.84 486.08 246.73 476.96 233.27L472.21 226.82 468.48 222.46C465.61 219.1 463.25 215.29 461.3 211.28 459.65 207.89 458.11 204.21 457.68 200.45L457.12 195.54 457.28 90.98C457.31 68.36 440.37 51.18 417.74 51.18L334.08 51.18C325.68 51.2 316.45 46.05 310.81 40.26L313.97 37.95C319.49 43.2 326.55 47.33 334.59 47.35L419.42 47.53C431.66 47.56 442.74 52.62 450.64 61.79 457.86 70.18 460.97 80.4 461.09 91.31L461.12 94.41 460.96 105.68 460.96 125.32C460.96 125.32 460.96 136.04 460.96 136.04 460.96 136.44 460.64 137.04 461.44 137.21L461 144.11 460.97 191.87C460.97 202.07 464.28 210.9 470.57 218.77L477.04 226.86C483.6 235.05 487.65 244.66 487.37 255.34 487.13 264.29 484.12 272.59 478.65 279.54L468.93 291.9C463.34 299.01 460.93 307.46 460.95 316.67L461.12 395.49C461.74 432.07 432.65 460.93 396.17 460.98L321.71 461.08C313.33 461.09 305.84 464.27 299.08 468.69L282.48 479.54C264.36 489.43 243.14 489.05 225.45 478.32L210.96 468.68C203.44 463.67 195.39 460.98 186.17 460.98L113.21 460.94C78.35 460.92 49.11 433.36 49.09 398.22L49.06 317.22C49.06 307.78 46.9 299.27 41.06 291.88L33 281.67C27.08 274.17 23.02 265.59 22.66 255.89 22.26 245.06 26.24 235.14 32.95 226.87L39.51 218.79C45 212.02 48.9 204.12 48.91 195.12L48.99 140.91 48.5 137.22C49.3 137.1 49.07 136.52 49.02 136.06L49.05 125.3 49.03 105.71 49.07 94.61C49.07 94.21 48.89 94.09 48.51 94.07L49.34 84.63C51.78 63.87 68.78 47.67 90.05 47.6L176.47 47.32C184.18 47.3 190.71 42.88 195.98 38.32L199.16 35.57 205.02 31.7 208.69 29.54C215.82 26.15 223.32 23.56 231.56 22.86 247.2 21.54 262.76 21.51 278.42 22.86 286.63 23.57 294.35 25.8 301.28 29.57Z" fill="#BD2A26"/><path d="M314.81 457.81C310.95 458.96 306.8 459.63 303.36 461.78 303.41 461.29 303.11 460.87 302.47 460.87L205.09 461.06C201.29 458.99 196.95 457.54 192.65 457.42 193.39 456.18 194.65 457.13 195.99 457.13L313.12 457.15 314.38 457.23C314.58 457.24 314.8 457.55 314.82 457.82Z" fill="#CC9F50"/><path d="M52.3 308.44C51.5 304.6 50.48 300.85 48.85 297.28L48.79 211.17C50.44 207.79 51.35 204.12 52.25 200.49 52.59 200.46 53.09 200.56 52.84 201.11L52.86 307.89C53.24 308.41 52.67 308.57 52.3 308.44Z" fill="#CCA059"/><path d="M461.29 211.27 461.23 297.18C459.39 300.75 458.43 304.6 457.64 308.53 457.04 308.34 457.12 308.07 457.16 307.33L457.16 201.65C456.99 200.9 457.1 200.6 457.68 200.44 458.11 204.2 459.64 207.88 461.3 211.27Z" fill="#CB9C50"/><path d="M296.91 31.71 301.07 33.77C293.45 38.82 284.87 40.7 275.42 40.66L229.76 40.46C222.19 40.43 215.22 37.73 209.19 33.68L213.08 31.61C219.01 35.24 225.72 36.73 232.95 36.73L277.01 36.73C284.25 36.73 290.95 35.19 296.9 31.72Z" fill="#CC9D52"/><path d="M41.5 286 37.61 281.31 37.95 228.47C37.95 227.8 37.89 227.51 37.43 227.27L41.5 222.45C41.66 222.88 41.89 223.33 42.05 223.8L42.02 284.66C42.02 285.05 41.57 285.64 41.49 286.01Z" fill="#C99C52"/><path d="M472.2 226.81 472.22 281.67 468.54 286.04C468.28 285.55 468.23 285.16 467.93 284.62L467.93 223.78C467.93 223.78 468.46 222.43 468.46 222.43L472.19 226.79Z" fill="#CB9D53"/><path d="M292.2 468.73 288.04 471.54 269.99 471.69 222.25 471.81 217.74 468.4 290.94 468.01C291.7 468.01 291.94 468.01 292.2 468.74Z" fill="#CC9C4F"/></g></svg>