<?xml version="1.0" encoding="UTF-8"?>
<svg id="_レイヤー_1" data-name="レイヤー_1" xmlns="http://www.w3.org/2000/svg" version="1.1" viewBox="0 0 192.36 512">
  <!-- Generator: Adobe Illustrator 30.6.0, SVG Export Plug-In . SVG Version: 2.1.4 Build 109)  -->
  <defs>
    <style>
      .st0 {
        fill: #e0b884;
      }

      .st1 {
        fill: #bb0d16;
      }

      .st2 {
        fill: #db99a5;
      }

      .st3 {
        fill: #dbb4b5;
      }

      .st4 {
        fill: #dba5a8;
      }

      .st5 {
        fill: #e6c1bd;
      }

      .st6 {
        fill: #dcbcc6;
      }

      .st7 {
        fill: #c7282b;
      }

      .st8 {
        fill: #b6161c;
      }

      .st9 {
        fill: #e3adb4;
      }

      .st10 {
        fill: #fdebd1;
      }

      .st11 {
        fill: #e3bbc0;
      }

      .st12 {
        fill: #b90b1c;
      }

      .st13 {
        fill: #d07c80;
      }

      .st14 {
        fill: #b40a17;
      }

      .st15 {
        fill: #af0c1b;
      }

      .st16 {
        fill: #c98b90;
      }

      .st17 {
        fill: #f6e1cd;
      }

      .st18 {
        fill: #b7121c;
      }

      .st19 {
        fill: #f9e5cf;
      }

      .st20 {
        fill: #d7b1b2;
      }

      .st21 {
        fill: #f9e8d7;
      }

      .st22 {
        fill: #bf0d16;
      }

      .st23 {
        fill: #b71518;
      }

      .st24 {
        fill: #dab0c2;
      }

      .st25 {
        fill: #efd2a5;
      }

      .st26 {
        fill: #d79998;
      }

      .st27 {
        fill: #dcbabb;
      }

      .st28 {
        fill: #e4c5c4;
      }

      .st29 {
        fill: #faead1;
      }

      .st30 {
        fill: #f3dcca;
      }

      .st31 {
        fill: #f7e5d3;
      }

      .st32 {
        fill: #ce8886;
      }

      .st33 {
        fill: #b90e18;
      }

      .st34 {
        fill: #d1b3b9;
      }

      .st35 {
        fill: #eccea1;
      }

      .st36 {
        fill: #f9eddb;
      }

      .st37 {
        fill: #ba101a;
      }

      .st38 {
        fill: #ebcc9f;
      }

      .st39 {
        fill: #dda2b0;
      }

      .st40 {
        fill: #bd0e17;
      }

      .st41 {
        fill: #dd9ca0;
      }

      .st42 {
        fill: #feecd1;
      }
    </style>
  </defs>
  <g id="_生成オブジェクト" data-name="生成オブジェクト">
    <path class="st10" d="M88.13,283.46l-5.08-1.03c-3.77.22-6.18,3.2-6.73,6.35-.59,3.37.93,6.36,4.15,8.54,1.57,1.06,4.18.41,6.44.42-1.11,2.65-1.34,5.53.54,7.39,1.49,1.46,3.94,2.15,6.74.84l.34,16.23c0,.45.39.6.88.95-5.69-.08-10.09,3.08-11.66,8.39-.69.26-1.06,1.01-.43,1.74.42.49.58.84,1.62.83l22.89-.16c-2.51-12.21-8.9-9.74-10.74-10.93.28-.17.7-.33.73-.55l.09-.91c.67.77,1.45.78,2.46.99,5.78,1.23,8.87,6.74,9.33,12.54.18,2.22,1.46,4.03-.5,6.39,1.25,1.4,1.91,3.16.68,4.84l-.15,155.73c0,2.33.12,4.65-.41,6.85l.52,1.61c.08.24-.76.66-1.32.85-4.12,1.4-8.35.15-12.33.37-2.92.16-5.49.28-8.27,0l-6.03-.63.12-63.12-.02-72.46.27-26.42c.02-1.63.71-2.94-1-3.74l.55-3.05c1.07-1.53-1.09-4.34-.27-5.93.89-1.32.67-2.63.48-4.07,2.25-5.53,4-8.27,10.76-10.1.68-4.77.45-9.36.13-14.35-3.06,0-5.03-.62-6.45-2.09-1.87-1.93-1.77-4.12-1.94-6.62-2.15-.41-5.23-.56-6.43-2.5-.86,1.1-1.25-.59-.4-.47.29.04-1-.6-1.16-.83-3.08-4.6-1.51-11.04,3.91-13.52,1.21-.55,2.73-.73,3.62-1.3s.62-2.43.95-3.27c1.41-3.61,4.37-6.03,8.46-4.26l.26-5.71-21.76-20.88-5.95-6.13-20.87-20.6-8.65-8.29-19.94-19.93c-1.22.81-.99-.53-1.27-.76-.19-.16-.55-.63-.93-.88l-1.27-.85c.35.23-1.32-1.32-1.39-2.23-1.36.49-1.8-1.13-.42-1.46l8.91,8.57,28.88,28.24,35.9,35.24,9.68,9.47c-.15,2.78.11,4.8-.63,7.41-3.17-1.57-5.99-.32-7.33,1.98s-.26,5.86,1.45,7.29ZM109.17,339.47c.5-1.32.06-2.98-.48-3.13l-25.17.15c-1.06,0-.88,3.33.39,3.31l25.26-.33ZM106.9,346.3c1.11.01,1.87-.57,2.19-1,.35-.48.45-1.76-.06-2.6l-25.47.03c-.79,0-.91,1.99-.32,2.58,1.98,1.99,9.61.82,15.47.89l8.19.1ZM100.7,369.75v-21.31c0-.87-2.59-1.04-2.79-.43l.19,14.17-.38,6.92c-.05.97-.04,1.86,1.01,2.04.54.09.98-.25,1.96-1.39ZM92.33,510.33l.17-43.71c0-.81-.35-1.55-.79-1.7-.37-.13-.9-.06-2.14.35l-.09,44.91c.57.46,1.91.63,2.85.15ZM104.57,509.34l-.22-11.99c-.02-1.06-3.15-.43-3.14.94l.06,11.9c0,.84,3.33.83,3.3-.85Z"/>
    <path class="st37" d="M97.9,321.53l-.09.91c-.02.22-.45.38-.73.55-.45-.29-1.29-.02-1.68.15-.48-.35-.87-.5-.88-.95l-.34-16.23c-2.8,1.3-5.26.62-6.74-.84-1.88-1.85-1.65-4.74-.54-7.39-2.26-.02-4.87.64-6.44-.42-3.21-2.17-4.74-5.16-4.15-8.54.55-3.14,2.97-6.13,6.73-6.35l5.08,1.03c-.11.61-.1.94.02,1.17.15.3.6.47.95.32.31-.13.49-.76.34-.99-.22-.32-.96-.22-1.31-.51-1.71-1.42-2.85-4.9-1.45-7.29s4.16-3.55,7.33-1.98c.74-2.62.48-4.63.63-7.41l-9.68-9.47-35.9-35.24-28.88-28.24-8.91-8.57L.17,173.96c-.49-.5.23-2.32.62-2.71l9.71-9.59,24.35-23.74,28.25-27.6,31.38-30.88c.02-2.49.42-4.62-.42-7.12-2.85.65-5.01.4-6.67-1.36s-1.79-4.14-.44-6.98c-3.09.58-5.77.6-8.01-1.15-1.99-1.55-2.61-4.07-2.51-7.14.12-3.37,2.96-7.41,6.52-6.87l5.48.83c-2.66-2.22-3.1-5.32-1.29-7.28s4.47-2.65,7.38-1.09l-.08-10c-.01-1.85-.59-2.08-1.87-2.92-3.3-2.16-4.29-6.07-1.67-9.24l-7.05-7.18L95.42.11c.45-.46,1.97.61,2.44,1.09l10.56,10.7-6.25,6.56c-.19.2-.4.87-.42,1.07-.03.3.93.7,1.04,1.06,1.33,3.97-.8,7.62-4.81,9.18-.15,3.29-.55,7.39.69,10.52,2.11.12,5.1-.06,6.57,2.01,1.38,1.94,1.34,4.34,0,7.25,3.2-1.14,5.3-1.22,7.5.48,4.15,3.22,4.21,9.01.64,12.78-1.89,2-4.28,2.23-7.42,1.8,1.08,2.36.73,4.36-.25,5.91-2.34,3.73-7.75.9-7.77,2.75l-.06,6.07,10.19,9.87,33.99,33.35,39.17,38.46,9.64,9.75c.74.75,2.19,2.45,1.08,3.55l-17.2,16.95-42.96,42.28-31.99,31.5c-.44.43-1.65.92-1.89,1.35l.15,7.69c2.78-1.23,4.84-.34,6.49,1.27,1.94,1.88,2.05,4.31.77,7.14,2.37-.07,4.85-.74,6.53.37,2.54,1.67,4.09,4.4,4.09,6.44,0,3.32-1.17,6.22-4.04,7.97-1.71,1.04-4.37.67-6.54.01.86,2,1.55,4.45.17,6.48-1.78,2.61-4.3,3.84-6.23,2.4-.29-.22-1.4.17-1.4.79v14.58ZM96.4,17.56c1.76.58,2.93-.42,3.99-1.59l3.8-4.18-8.22-7.8-7.72,8.09,6.73,6.98c-1.51,1.44-2.62,2.57-2.82,3.77-.22,1.31.53,2.86,1.66,3.43,1.74.88,3.54.99,4.91.02,1.24-.88,2.58-2.84,1.34-4.33l-3.67-4.4ZM92.95,43.56c-.49-.71-1.64-.84-2.42-.19-.93.78-1.72,1.97-1.59,3.01.09.73,3.43,3.42,4.38,2.65,1.11-.9.99-3.5-.37-5.46ZM103.31,46.59c.65-.64.25-2.18-.37-2.65-.51-.39-1.64-1.18-2.55-.93-1.76.48-2.26,2.01-2.14,3.46.1,1.21.52,2.3,2.16,2.99l2.89-2.86ZM95.95,50.06c-.8.4-.85.95-.52,1.37.39.49.7.64,1.21.28s.64-.77.26-1.22c-.15-.17-.44-.69-.96-.43ZM102.54,50.94c-.08.54.54,1.06.75.93.26-.16.31-.69.24-.93-.13-.44-.91-.58-.99,0ZM81.25,52.64c-1.79,1.44-2.51,3.6-1.83,5.64.61,1.81,2.22,3.09,4.22,3.08,2.11,0,3.12-1.29,4.77-2.88.46-.45,1.89-.49,1.78-1.82-.04-.54-5.08-7.13-8.94-4.03ZM106.67,60.94c1.3,1.26,2.97.65,4.19-.03,2.2-1.23,2.97-5.32.72-7.84-1.13-1.26-3.32-2.1-4.63-.86l-4.71,4.44,4.43,4.29ZM100.44,53.3c-.13-1.01-1.38-1.01-1.5,0-.21,1.64,1.71,1.64,1.5,0ZM93.35,53.86c0-.4-.32-.72-.72-.72s-.72.32-.72.72.32.72.72.72.72-.32.72-.72ZM95.37,56.22c-.34,1.24.88,1.75,1.29,1.27.49-.58.58-1.04.44-1.39-.25-.63-1.47-.78-1.72.11ZM93.35,59.63c0-.4-.32-.72-.72-.72s-.72.32-.72.72.32.72.72.72.72-.32.72-.72ZM100.41,59.63c0-.4-.32-.72-.72-.72s-.72.32-.72.72.32.72.72.72.72-.32.72-.72ZM95.3,62.07c-.67,1.18.49,1.95,1.32,1.2.29-.27.76-.54.27-1.2-.23-.31-1.05-.95-1.59,0ZM102.32,62.1c-.27.48.64,1.39.94,1.31.36-.1.36-.96,0-1.24-.15-.12-.48-.88-.94-.07ZM92.77,64.37c-.9-.9-2.68,1.07-3.47,2.2-.96,1.39.15,2.91,1.17,3.27,1.57.55,2.97-.02,3.77-1.24.63-.96.04-2.73-1.48-4.24ZM103.29,66.82c-1.22-1.46-2.76-2.19-3.79-2.74-1.49,1.58-1.51,3.1-1.55,3.66.74,2.42,2.26,2.38,3.45,2.18,1.46-.1,2.79-2.02,1.89-3.1ZM96.26,264.28l24-23.68,41.76-41.05,26.99-26.59-29.63-29.24-35.99-35.32-27.01-26.66-24.94,24.72-23.45,22.85-33,32.31-11.67,11.36,36.02,35.52,27.64,27.02,29.29,28.76ZM91.5,282.07c.99.63,1.82-.43,2.15-1.02.42-.77.47-2.13.06-2.96-.67-1.34-1.98-1.9-3.24-1.44-.99.36-1.85,1.48-1.73,2.81.1,1.07,1.27,1.65,2.76,2.61ZM103.24,278.68c-.13-1.68-3.02-2.96-4.36-1.56-1.09,1.14-1.02,4.83.79,5.17,1.67.32,3.68-2.27,3.57-3.61ZM96.02,283.07c-.77.38-.86,1.05-.78,1.5s1.09.59,1.44.36c.69-.45-.02-2.18-.67-1.86ZM102.4,283.79c-.54.72.13,1.38.81,1.18.25-.08.64.2.96-.37.27-.49-.1-.88-.36-.95-.36-.09-1.23-.1-1.41.14ZM90.06,289.78c.18.85-2.91-3.32-5.02-4.08-1.67-.61-3.8-.31-4.56.93-1.37,2.23-1.56,3.68-.79,5.74.58,1.56,2.4,3.2,4.55,2.79s5.97-4.66,5.82-5.37ZM110.61,294.35c2.44-1.17,2.93-5.75.67-7.91-.86-.82-2.76-1.9-3.95-.78l-5.12,4.83c3.05,2.69,4.23,5.88,8.4,3.87ZM92.05,286.69c-.35.63.38,1.13.87.84.21-.12.28-.4.1-.68-.11-.18-.57-.88-.97-.16ZM100.49,287.12c-.08-1.29-1.29-1.03-1.44-.57-.19.6-.08,1.34.3,1.6.24.16,1.2.06,1.13-1.03ZM95.95,289.04c-1,.44-.94,1.36-.75,1.91.12.36.82.59,1.37.22.31-.21.51-.8.49-1.26-.02-.37-.54-1.12-1.11-.86ZM99.83,292.13c-.74.26-.97.87-.61,1.38.23.33.65.71,1.24.19.28-.25.58-.71.27-1.12-.14-.18-.45-.62-.9-.46ZM91.95,293.06c-.11.98.76,1.02,1.01.87.35-.21.48-.6.32-.97-.12-.3-.86-.76-1.33.1ZM103.62,295.85c0-.4-.32-.72-.72-.72s-.72.32-.72.72.32.72.72.72.72-.32.72-.72ZM95.48,296.16c-.08.51.56,1.05.75.92.27-.19.31-.69.24-.93-.11-.41-.9-.6-.99.01ZM88.83,302.13c.36,1.51,2.26,2.19,3.38,1.91,1.01-.25,2.01-1.81,2.2-2.8.16-.81-.64-2.54-1.86-3.13-1.37-.66-4.15,2.2-3.71,4.02ZM103.38,300.54l-2.29-2.02c-.53-.47-1.45-1.06-1.65-.73l-.86,1.4c-.82,1.32-.95,2.56-.2,3.44.85,1.01,2.11,1.31,3.49.86.86-.28,2.51-2.07,1.52-2.94Z"/>
    <path class="st0" d="M97.08,323c1.84,1.19,8.23-1.28,10.74,10.93l-22.89.16c-1.03,0-1.2-.34-1.62-.83-.63-.73-.25-1.48.43-1.74,1.56-5.31,5.97-8.47,11.66-8.39.39-.17,1.23-.43,1.68-.15Z"/>
    <path class="st35" d="M92.33,510.33c-.93.48-2.28.32-2.85-.15l.09-44.91c1.23-.41,1.77-.48,2.14-.35.45.15.8.89.79,1.7l-.17,43.71Z"/>
    <path class="st23" d="M106.9,346.3l-8.19-.1c-5.86-.07-13.49,1.1-15.47-.89-.59-.59-.46-2.58.32-2.58l25.47-.03c.5.83.41,2.12.06,2.6-.32.43-1.08,1.01-2.19,1Z"/>
    <path class="st8" d="M109.17,339.47l-25.26.33c-1.27.02-1.45-3.31-.39-3.31l25.17-.15c.54.15.98,1.81.48,3.13Z"/>
    <path class="st38" d="M100.7,369.75c-.99,1.14-1.42,1.48-1.96,1.39-1.05-.17-1.06-1.07-1.01-2.04l.38-6.92-.19-14.17c.19-.61,2.79-.44,2.79.43v21.31Z"/>
    <path class="st25" d="M104.57,509.34c.03,1.67-3.29,1.68-3.3.85l-.06-11.9c0-1.36,3.12-1.99,3.14-.94l.22,11.99Z"/>
    <path class="st36" d="M96.26,264.28l-29.29-28.76-27.64-27.02L3.32,172.98l11.67-11.36,33-32.31,23.45-22.85,24.94-24.72,27.01,26.66,35.99,35.32,29.63,29.24-26.99,26.59-41.76,41.05-24,23.68ZM98.43,256.27l32.69-32.33,31.46-30.78,20.33-19.95-45.98-45.48-29.51-28.92-11.17-10.84-35.68,35.2-30.82,30.15-20.26,19.95,23.45,23.07,27,26.34,34.27,33.7c.54.53,1.46,1.3,1.99,1.39s1.54-.81,2.24-1.5Z"/>
    <path class="st29" d="M96.4,17.56l3.67,4.4c1.25,1.49-.1,3.45-1.34,4.33-1.37.97-3.17.87-4.91-.02-1.14-.58-1.88-2.13-1.66-3.43.2-1.2,1.31-2.34,2.82-3.77l-6.73-6.98,7.72-8.09,8.22,7.8-3.8,4.18c-1.06,1.17-2.23,2.17-3.99,1.59Z"/>
    <path class="st5" d="M95.95,289.04c.57-.25,1.1.49,1.11.86.02.46-.19,1.05-.49,1.26-.55.38-1.24.14-1.37-.22-.19-.54-.25-1.46.75-1.91Z"/>
    <path class="st27" d="M96.02,283.07c.65-.32,1.36,1.42.67,1.86-.36.23-1.36.09-1.44-.36s0-1.12.78-1.5Z"/>
    <path class="st34" d="M95.3,62.07c.54-.95,1.35-.32,1.59,0,.49.66.02.94-.27,1.2-.83.76-1.99-.01-1.32-1.2Z"/>
    <path class="st28" d="M95.37,56.22c.25-.89,1.47-.74,1.72-.11.14.35.05.81-.44,1.39-.4.47-1.63-.04-1.29-1.27Z"/>
    <path class="st4" d="M100.49,287.12c.07,1.09-.9,1.2-1.13,1.03-.38-.26-.49-1-.3-1.6.15-.46,1.36-.73,1.44.57Z"/>
    <path class="st20" d="M100.44,53.3c.21,1.64-1.71,1.64-1.5,0,.13-1.01,1.38-1.01,1.5,0Z"/>
    <path class="st26" d="M102.4,283.79c.18-.24,1.06-.23,1.41-.14.26.06.63.46.36.95-.32.58-.7.3-.96.37-.69.2-1.36-.46-.81-1.18Z"/>
    <path class="st11" d="M99.83,292.13c.45-.16.76.27.9.46.31.41,0,.87-.27,1.12-.58.52-1,.14-1.24-.19-.36-.51-.13-1.12.61-1.38Z"/>
    <path class="st6" d="M95.95,50.06c.52-.26.81.25.96.43.38.45.23.87-.26,1.22s-.82.21-1.21-.28c-.33-.42-.28-.97.52-1.37Z"/>
    <path class="st32" d="M102.32,62.1c.46-.81.79-.05.94.07.35.28.35,1.14,0,1.24-.3.08-1.21-.83-.94-1.31Z"/>
    <path class="st9" d="M91.95,293.06c.47-.86,1.21-.4,1.33-.1.15.38.03.76-.32.97-.25.15-1.12.11-1.01-.87Z"/>
    <circle class="st13" cx="102.9" cy="295.85" r=".72"/>
    <circle class="st3" cx="99.69" cy="59.63" r=".72"/>
    <circle class="st41" cx="92.63" cy="59.63" r=".72"/>
    <circle class="st2" cx="92.63" cy="53.86" r=".72"/>
    <path class="st10" d="M88.13,283.46c.35.29,1.09.19,1.31.51.16.23-.03.86-.34.99-.35.14-.8-.02-.95-.32-.12-.23-.13-.56-.02-1.17Z"/>
    <path class="st39" d="M92.05,286.69c.4-.72.85-.02.97.16.18.28.11.56-.1.68-.49.28-1.21-.21-.87-.84Z"/>
    <path class="st24" d="M95.48,296.16c.09-.62.88-.43.99-.01.07.24.03.74-.24.93-.19.13-.83-.4-.75-.92Z"/>
    <path class="st16" d="M102.54,50.94c.08-.58.87-.44.99,0,.07.24.01.76-.24.93-.21.13-.82-.39-.75-.93Z"/>
    <path class="st18" d="M98.43,256.27c-.7.69-1.7,1.59-2.24,1.5s-1.45-.86-1.99-1.39l-34.27-33.7-27-26.34-23.45-23.07,20.26-19.95,30.82-30.15,35.68-35.2,11.17,10.84,29.51,28.92,45.98,45.48-20.33,19.95-31.46,30.78-32.69,32.33ZM98.66,252.65l36.97-36.37,32.7-32.07,11.26-11.03-38.82-38.38-28.27-27.66-16.18-15.88-42.18,41.53-39.06,38.55c-.62.61-1.94.78-2.08,2l4.6,4.41,31.38,30.81,33.97,33.31,13.24,12.95c.66-1.11,1.59-1.32,2.46-2.17Z"/>
    <path class="st42" d="M98.66,252.65c-.87.85-1.79,1.06-2.46,2.17l-13.24-12.95-33.97-33.31-31.38-30.81-4.6-4.41c.14-1.22,1.46-1.39,2.08-2l39.06-38.55,42.18-41.53,16.18,15.88,28.27,27.66,38.82,38.38-11.26,11.03-32.7,32.07-36.97,36.37ZM95.49,96.44c-1.67.76-2.16,2.4-1.74,3.43.66,1.62,2.2,2.45,3.39,1.76,1.42-.82,2.11-2.42,1.64-3.59s-2.04-2.17-3.28-1.6ZM71.47,203.95c2.7.05,3.99-.04,5.65-.45l.19-29.98,6.34,5.74,3.9-3.88c-2.43-2.16-5.05-4.75-7.55-6.07l-1.77.72c-.28.11-1.38-.84-.94-1.33l4.51-5.09c2.07-2.34,3.96-4.33,5.66-7.45.57-1.04-.51-3.69-2.16-3.75l-8.08-.3-.38-11.23c-1.25-.42-4.37-.73-5.26.36l-.38,11.17-10.6-.05c-1.25.44-1.01,4.12-.34,4.85l14.13.3c1.77.04,3.22,0,5.23.17-6.7,8.4-14.31,14.91-23.61,19.52l3.54,4.62c3.87-1.47,7.36-3.85,10.6-6.73.72-.53,1.59.34.8.87l.27,15.45.25,12.54ZM132.52,148.64l-.17-4.85-45.1.11c-.59,1.85-.56,3.69-.02,4.98l38.49.21c2.24.01,4.36.97,6.8-.45ZM125.39,169.23l-.18-16.43-31.67.03c-.43,6.13-.29,11.72.6,17.2l27.75-.21c1.08,0,2.35-.24,3.5-.59ZM172.49,176.11c1.79-.41,2.2-2.52,1.43-4.2-.5-1.1-2.25-2.31-3.66-1.37s-1.77,2.85-1.38,3.86c.49,1.28,2.16,2.05,3.61,1.71ZM19.53,170.99c-2.02,1.27-1.29,3.01-.4,4.21.96,1.3,2.26,1.53,3.27.63,1.22-1.09,1.89-2.91,1.17-3.87-.88-1.18-2.78-1.76-4.05-.97ZM128.66,201.17l.33-26.92c-2.51-.66-4.77.02-7.11.02l-26.43.04c-1.66,0-3.34-.77-5.28-.02l-.06,28.53c1.34.96,4.1.78,5.53.4.25-.28.3-1.29.8-1.46.36-.12.64-.28,1.36-.28l24.33.06c.75,1.93,1.54,2.8,3.59,2.54,1.36-.17,2.91-.6,2.94-2.91ZM95.32,244.16c-1.87,1.11-2.13,2.89-1.43,3.85,1.12,1.55,2.22,1.89,3.35,1.33,1.58-.77,2.15-2.47,1.65-3.82s-2.12-2.23-3.57-1.37Z"/>
    <path class="st1" d="M128.66,201.17c-.03,2.31-1.58,2.74-2.94,2.91-2.05.26-2.84-.61-3.59-2.54l-24.33-.06c-.73,0-1,.15-1.36.28-.5.17-.55,1.18-.8,1.46-1.42.38-4.18.56-5.53-.4l.06-28.53c1.93-.74,3.62.03,5.28.02l26.43-.04c2.34,0,4.6-.68,7.11-.02l-.33,26.92ZM106.39,185.29c.44-2.33.55-4.27-.2-6.27h-10.26s.01,5.86.01,5.86l10.45.41ZM123.28,185.43l.09-6.42h-10.92c-.74,2.2-.91,4.7.24,6.43,1.42-1.37,3.17.05,4.14-.09,2.55-.35,3.96-.86,6.46.08ZM106.19,190.02c-3.82-.49-6.75,1.04-10.02.02-.48,2.29-.35,4.09-.22,6.39l10.46.39c.41-2.54.46-4.65-.23-6.8ZM122.82,196.49c.74-2.26.88-4.5.06-6.54l-10.68.16c-.36,2.37-.36,4.25,0,6.68l5.2-.06c1.85-.02,3.41-.28,5.42-.25Z"/>
    <path class="st22" d="M71.47,203.95l-.25-12.54-.27-15.45c.79-.53-.07-1.39-.8-.87-3.24,2.88-6.73,5.27-10.6,6.73l-3.54-4.62c9.3-4.61,16.91-11.12,23.61-19.52-2.02-.16-3.46-.13-5.23-.17l-14.13-.3c-.67-.73-.92-4.41.34-4.85l10.6.05.38-11.17c.89-1.09,4.01-.78,5.26-.36l.38,11.23,8.08.3c1.65.06,2.73,2.71,2.16,3.75-1.7,3.12-3.59,5.11-5.66,7.45l-4.51,5.09c-.44.49.66,1.45.94,1.33l1.77-.72c2.5,1.31,5.13,3.91,7.55,6.07l-3.9,3.88-6.34-5.74-.19,29.98c-1.66.41-2.95.5-5.65.45Z"/>
    <path class="st40" d="M125.39,169.23c-1.15.35-2.42.58-3.5.59l-27.75.21c-.89-5.49-1.04-11.07-.6-17.2l31.67-.03.18,16.43ZM119.39,164.06c.07-2.48.42-4.1.06-6.23h-19.74s.02,7.08.02,7.08l16.38-.24c1.21-.02,2.59-.35,3.27-.61Z"/>
    <path class="st7" d="M132.52,148.64c-2.44,1.42-4.56.46-6.8.45l-38.49-.21c-.55-1.28-.57-3.13.02-4.98l45.1-.11.17,4.85Z"/>
    <path class="st15" d="M172.49,176.11c-1.45.33-3.12-.43-3.61-1.71-.39-1.01-.02-2.93,1.38-3.86s3.16.27,3.66,1.37c.76,1.68.35,3.79-1.43,4.2Z"/>
    <path class="st33" d="M19.53,170.99c1.27-.8,3.17-.21,4.05.97.71.96.05,2.77-1.17,3.87-1.01.9-2.31.67-3.27-.63-.89-1.2-1.62-2.94.4-4.21Z"/>
    <path class="st14" d="M95.32,244.16c1.45-.86,3.1.09,3.57,1.37.5,1.35-.08,3.05-1.65,3.82-1.13.55-2.23.22-3.35-1.33-.7-.97-.44-2.75,1.43-3.85Z"/>
    <path class="st12" d="M95.49,96.44c1.24-.56,2.8.38,3.28,1.6s-.22,2.77-1.64,3.59c-1.19.68-2.73-.15-3.39-1.76-.42-1.03.08-2.67,1.74-3.43Z"/>
    <path class="st30" d="M122.82,196.49c-2.01-.04-3.57.23-5.42.25l-5.2.06c-.36-2.44-.35-4.31,0-6.68l10.68-.16c.82,2.04.68,4.28-.06,6.54Z"/>
    <path class="st31" d="M123.28,185.43c-2.5-.94-3.91-.42-6.46-.08-.97.13-2.72-1.29-4.14.09-1.15-1.73-.98-4.23-.24-6.42h10.92s-.09,6.41-.09,6.41Z"/>
    <path class="st19" d="M106.19,190.02c.68,2.15.64,4.26.23,6.8l-10.46-.39c-.13-2.3-.26-4.1.22-6.39,3.26,1.02,6.2-.51,10.02-.02Z"/>
    <path class="st21" d="M106.39,185.29l-10.45-.41v-5.85s10.25,0,10.25,0c.76,2,.64,3.94.2,6.27Z"/>
    <path class="st17" d="M119.39,164.06c-.69.25-2.06.59-3.27.61l-16.38.24-.02-7.09h19.74c.36,2.14,0,3.76-.06,6.24Z"/>
  </g>
</svg>