<svg viewBox="0 0 161.1 512" xmlns="http://www.w3.org/2000/svg" xmlns:xlink="http://www.w3.org/1999/xlink" id="_レイヤー_1" overflow="hidden"><defs></defs><g id="_生成オブジェクト"><path d="M95.2 324.77 95.15 507.45C95.15 509.9 91.78 512.03 90.03 512L70.1 511.72C68.24 511.69 65.85 509.16 65.85 506.91L66.01 325.32C66.01 318.86 72.71 314.42 78.26 313.76 79.24 308.37 78.6 303.14 78.58 297.63 75.01 299.4 71.67 298.94 69.83 296.07 66.43 290.75 73.51 287.86 72.86 285.99 72.65 285.37 71.38 284.1 70.97 284.61 68.85 287.19 66.07 288.7 63.1 287.58 60.13 286.46 58.64 283.86 59.08 280.5 59.38 278.19 60.81 276.28 62.58 275.49 67.16 273.45 70.03 277.75 70.89 277.97 71.41 278.1 72.27 277.4 72.98 276.46 69.41 273.2 67.42 269.69 70.33 266.18 72.28 263.84 75.38 263.73 78.47 265.33L78.67 249.16 59.58 248.9C57.59 248.87 56.3 246.2 56.3 244.52L56.26 232.78C45.71 230.07 35.68 225.48 27.54 218.14 10.91 203.1-1.84 181.93 0.22 159.2 2.97 128.97 28.25 108.93 56.31 102.23L56.74 88.93C56.77 87.88 59.09 86 60.15 85.98L78.56 85.75 78.48 73.93C75.4 75.95 72.3 75.41 70.44 73.08 66.47 68.11 72.91 63.47 72.83 63.19 72.7 62.7 72.15 61.74 71.74 61.36 70.38 60.11 68.76 65.78 63.34 64.41 61.42 63.93 59.58 61.84 59.13 59.5 58.54 56.47 59.87 53.74 62.27 52.43 67.78 49.41 70.37 56.65 72.37 54.32 73.12 53.44 72.89 52.78 71.91 52.05 69.18 50.01 68.08 46.42 69.99 43.73 71.9 41.04 75.33 40.14 78.53 42.29L78.74 30.23C74.78 30.37 71.93 27.33 72.32 23.45 72.8 18.64 67.66 18.68 67.05 14.87 66.79 13.2 67.55 11.73 68.79 10.45L77.73 1.2C79.34-0.47 81.76-0.42 83.36 1.2L92.16 10.01C93.43 11.28 94.21 12.58 94.14 14.3 93.95 18.55 88.43 18.53 88.72 24.59 88.88 28.01 86 30.69 82.56 30.12L82.5 42.27C84.75 41.11 86.58 40.57 88.53 41.52 90.02 42.25 91.78 43.89 92.06 46.02 92.45 48.96 90.29 51.39 88.03 53.14L90.23 55.29C91.39 53.87 92.84 52.35 94.88 51.88 98.74 50.99 102.04 54.23 102.19 57.86 102.36 61.87 98.89 65.46 94.7 64.52 92.76 64.08 91.63 62.59 90.29 60.92L88.07 63.25C90.65 64.98 92.4 67.45 92.12 70.38 91.92 72.54 90.19 73.95 88.94 74.58 86.9 75.6 85.01 75.23 82.52 74.2L82.47 85.73 100.81 86.02C106.03 86.1 105.14 95.59 104.98 102.13 121.88 106.44 137.72 114.97 148.67 128.67 160.79 143.84 164.26 163.67 158.13 182.12 150.34 205.56 129.62 227.7 104.68 232.69L105.18 242.75C105.3 245.23 103.88 248.87 101.12 248.89L82.54 249.05 82.54 265.25C84.71 264.24 86.81 263.98 88.6 264.63 90.02 265.15 91.63 266.64 92.05 268.81 92.62 271.74 90.7 274.42 88.18 276.3 88.53 277.14 89.73 278.4 90.58 278.21 92.52 275.83 95.44 274.33 98.03 275.33 100.82 276.41 102.68 279.41 102.17 282.61 101.73 285.36 99.47 287.49 97.25 287.89 94.31 288.42 92.12 286.97 90.36 284.26 89.55 284.9 88.83 285.66 88.26 286.62 89.97 288.13 91.66 289.78 92.11 292.07 92.59 294.49 91.34 296.82 89.57 297.83 87.35 299.09 84.97 299.04 82.53 297.26L82.45 313.67C88.95 314.14 93.41 318.4 95.2 324.75ZM90.14 14.48C87.44 10.28 84.07 7.25 80.55 3.93 76.87 7.14 73.87 10.44 70.97 14.44 78.16 18.59 74.9 25.89 77.47 26.23 90.54 27.94 80.4 21.11 90.14 14.48ZM77.55 47.79C77.77 46.56 75.19 44.29 74.02 44.93 73.15 45.41 72.56 46.45 73 47.5 73.49 48.7 74.46 49.47 75.45 50.32 76.19 49.85 77.31 49.17 77.56 47.79ZM87.4 48.64C88.55 47.56 88.56 46.16 87.63 45.44 86.7 44.72 85.61 45 84.71 45.87 83.96 46.59 83.18 47.4 83.61 48.31 83.84 48.8 84.4 49.55 85.27 50.11 86 50.58 86.86 49.14 87.39 48.64ZM68 58.45C68.4 57.04 65.73 55.04 64.37 55.78 62.87 56.6 62.64 58.21 62.97 59.34 63.19 60.1 64.33 60.91 65.24 60.75 65.99 60.61 67.57 59.99 68 58.45ZM93.38 59C94.77 60.78 96.31 61.15 97.35 60.33 98.84 59.16 98.44 56.77 97.49 56.11 96.1 55.15 94.59 55.81 93.58 57.03L92.9 57.85C92.73 58.05 93.05 58.57 93.37 58.98ZM75.46 56.52C74.31 57.3 73.41 58.25 73.8 58.71 74.42 59.44 75.12 59.94 75.63 59.92 76.48 59.88 77.27 58.57 77.04 57.9 76.88 57.42 75.94 56.34 75.47 56.52ZM86 59.53C86.8 58.88 87.21 58.25 86.81 57.39 86.49 56.7 86.02 56.01 85.1 56.72 84.18 57.43 83.89 58 84.29 58.82 84.65 59.56 85.09 60.27 86 59.53ZM88.23 69.91C88.63 68.62 86.47 65.7 85.36 66.2 83.46 67.05 83.12 69.32 84.35 70.47 85.27 71.33 87.43 72.5 88.23 69.91ZM76.13 71.07C77.34 70.24 78.01 68.99 77.53 67.99 77.19 67.28 76.04 66.3 75.04 66.42 74.38 66.5 73.61 67.85 73.26 68.43 72.55 69.58 72.89 70.38 73.75 71.09 74.31 71.55 75.14 71.77 76.14 71.09ZM100.87 100.96 100.87 89.75C100.87 89.75 60.2 89.86 60.2 89.86L60.26 101.2C74.1 98.66 87.34 98.84 100.87 100.96ZM59.3 115.08C58.25 112.48 58.64 110.1 60.1 107.94 62.77 103.99 67.12 105.75 69.62 103.66 65 104.04 60.77 104.88 56.24 106.87 57.81 108.73 57.75 110.63 56.79 112.32 55.83 114.01 54.38 114.47 52.15 114.83 51.11 115.14 51.53 118.32 52.47 118.53 55.23 117.54 57.61 117.09 59.29 115.08ZM80.48 121.64C83.4 120.8 86 118.16 87.9 115.77 85.13 115.2 83.61 113.86 83.34 111.87 82.63 106.61 88.27 106.14 87.41 105.06 85.35 102.46 79.8 102.89 75.07 103.71 74.2 103.86 73.22 104.89 73.56 105.55 76.79 106.74 78.83 110.35 77.18 113.5 76.43 114.93 74.99 115.22 73.19 115.82 75.1 118 77.79 120.83 80.48 121.64ZM108.51 114.76C106.09 114.08 104.51 113.47 103.9 111.86 103.29 110.25 103.47 108.68 104.4 106.79 100.92 104.95 97.31 104.09 93.31 103.82 92.73 103.78 91.78 102.64 91 103.84 94.89 105.49 98.69 103.99 101.6 108.45 102.97 110.55 102.76 112.88 101.63 115.62 103.91 116.96 106.1 117.86 108.76 118.58 109.46 117.67 109.81 115.12 108.51 114.76ZM66 108.74C63.24 108.55 62.33 110.09 62.19 111.32 62.03 112.69 62.18 114.15 63.22 115.02L66.01 108.74ZM94.32 214.42C97.54 201.9 99.12 189.73 100.1 176.83 101.4 159.78 100.95 143.04 97.36 126.5 95.98 120.14 94.23 114.05 90.46 108.64 89.64 107.79 86.54 109.81 86.82 110.88 87.33 112.87 90.66 111.17 91.45 115.05 92.18 118.65 85.36 123.04 80.49 126.01 74.51 121.75 68.38 119.07 70.14 113.41 70.69 111.65 73.15 112.37 74.07 111.7 75.65 110.55 71.88 107.79 70.61 108.78 66.75 113.94 65.1 120.19 63.74 126.49 60.28 142.57 59.74 158.83 60.9 175.27 61.92 189.65 64.63 213.26 70.75 225 71.39 226.22 72.65 225.26 73.41 224.77 73.99 224.39 75.11 222.83 73.9 222.29 72.42 221.63 70.71 221.77 70.17 220.28 68.45 215.51 74.99 211.72 80.5 208.13 86.42 211.77 93.72 216.92 90.37 220.98 89.64 221.86 88.35 221.77 87.12 222.29 86.13 222.71 86.85 224.12 87.33 224.49 87.81 224.86 89.13 225.81 89.84 225.5 92.06 222.16 93.26 218.52 94.31 214.42ZM97.94 114.97C99.22 112.65 99.16 111.11 98.45 109.92 98.01 109.17 96.58 108.44 94.93 108.62L97.94 114.97ZM50.68 110.92C52.17 112.05 52.81 111.26 53.19 111.01 53.82 110.6 53.55 109.26 53.09 109.39 51.99 109.7 50.96 110.46 50.68 110.92ZM110.11 110.59 108.38 109.38C108 109.11 107.22 109.42 107.21 109.98 107.19 110.83 108.02 111.12 108.5 111.16 109.17 111.22 109.8 111.09 110.11 110.59ZM48.79 226.19C45.75 222.36 43.42 219.35 41.23 215.5 32.36 199.93 26.69 183.12 24.75 165.16 23.16 143.34 29.18 123.69 45.09 109.84 15.2 121.28-3.72 149.78 6.63 180.96 11.88 196.78 22.28 210.04 35.84 219.67 40.01 222.63 44 224.79 48.78 226.19ZM112.04 226.52C131.82 219.27 147.14 201.4 154.03 182.22 165.31 150.82 146.51 121.57 116.12 109.86 134.52 126.25 139.4 149.23 135.23 173.35 131.92 191.55 124.19 211.89 112.04 226.52ZM66.87 225.71C64.4 219.66 62.63 213.88 61.45 207.61 55.97 178.52 54.14 146.99 62.11 117.92 57.38 120.54 50.19 124.11 49.42 122.22 48.19 119.2 48.36 116.03 48.14 112.51 39.76 118.72 34.27 127.15 31.34 137.06 28.87 145.42 27.6 153.8 28.35 162.84 30.04 183.29 37.03 202.8 48 219.84L49.04 211.77C49.33 209.57 58.33 212.75 61.82 216.12 63.66 217.89 62.51 219.89 62.32 222.16 62.18 223.85 64.66 225.89 66.87 225.7ZM98.95 216.77C101.07 213.95 104.69 212.74 107.28 211.91 108.49 211.52 111.46 209.77 111.74 211.5L113.02 219.4C116.4 214.64 119.14 209.85 121.57 204.4 131.58 181.96 137.85 155 127.9 131.84 124.64 124.26 119.93 117.83 113.34 112.76L112.12 122.02C111.1 123.32 109.83 122.95 108.54 122.45 105.07 121.09 101.82 120.06 98.75 117.59 107.18 146.13 105.14 181.07 99.11 210.15 97.99 215.56 96.4 220.52 94.21 225.59 96.15 225.82 99.02 224.5 98.89 222.13 98.79 220.35 97.64 218.5 98.95 216.76ZM87.64 228.8C85.7 228.02 83.82 226.26 83.4 223.95 82.85 220.93 84.68 219.06 87.76 218.47 86.04 216.11 82.85 213.09 80.28 212.76 77.13 213.76 74.96 216.22 73.24 218.49 76.4 218.97 78.12 221 77.66 223.91 77.31 226.15 75.66 227.85 73.43 228.77 75.79 232.78 84.84 233.1 87.63 228.79ZM70.24 231.26C69.32 228.48 67.24 229.61 65.98 229.19 62.84 228.8 61.03 227.25 59.69 225.44 57.98 223.13 58.92 220.81 59.03 218.52 57.68 216.57 54.62 215.92 52.41 215.16 52.06 216.49 51.97 217.58 52.01 218.92 53.69 219.51 56 219.87 56.85 221.63 57.7 223.39 57.19 225.85 56.52 227.5 61.05 230.04 65.56 230.75 70.24 231.26ZM104.68 227.44C103.3 225.07 103.24 223.18 104.29 221.51 105.11 220.21 106.76 219.33 108.82 219.3 109.04 217.89 109.09 216.95 108.61 215.57 106.75 215.76 103.06 216.57 102.34 218.57 102.34 221.32 103.16 223.79 100.91 226.16 96.4 230.92 91.44 227.94 90.42 231.25 95.46 230.77 100.49 230.34 104.69 227.44ZM53.23 224.72C54.05 224.39 53.91 223.39 53.54 222.94 53.07 222.36 52.1 221.88 51.57 222.77 51.42 223.3 52.7 224.71 53.22 224.72ZM109.7 222.42C108.31 221.82 107.6 222.61 107.29 223.26 107.07 223.72 106.98 224.47 107.77 224.99 108.48 224.17 109.38 223.47 109.71 222.43ZM100.76 245.25C101.2 241.41 101.25 238.27 100.66 234.94 86.78 235.67 73.61 235.71 60.17 234.85L60.38 245.22 100.77 245.26ZM77.78 270.3C76.78 269.02 76.03 268.36 75.43 268.07 74.77 267.75 73.43 267.97 73.05 268.82 72.45 270.16 73.6 272.66 75.39 273.17 76.65 273.53 78.48 271.19 77.79 270.3ZM87.72 271.41C88.66 270.15 88.57 269.06 87.59 268.3 86.25 267.27 83 269.51 83.51 271.15 83.76 271.95 84.6 273.44 85.76 273.25 86.61 273.11 87.21 272.1 87.72 271.41ZM82.48 276.14C81.69 275.01 80.95 274.31 80.32 274.51 79.79 274.68 79.47 275.34 78.96 276.09 78.49 276.77 79.84 277.88 80.8 277.99 81.56 278.07 82.99 276.86 82.48 276.14ZM68.07 281.38C67.62 280.07 66.09 278.87 65.12 278.85 63.29 278.8 62.4 280.56 62.96 282.28 63.3 283.32 64.5 284.75 65.94 283.96 66.82 283.48 68.52 282.65 68.08 281.38ZM85.46 279.53C84.03 280.04 83.34 281.27 83.76 282.07 84.13 282.77 85.17 283.49 85.97 283.22 86.64 282.99 87.66 281.86 87.28 281.03 87.03 280.48 86.02 279.33 85.46 279.53ZM98.31 281.15C98.16 279.48 97.19 278.98 96.11 279.04 94.42 279.14 92.78 280.9 92.95 281.72 93.07 282.31 95.29 284.56 96.45 284.14 97.74 283.68 98.47 282.96 98.31 281.15ZM75.47 279.84C74.38 280.38 73.69 281.33 74.3 282.12 74.83 282.82 75.53 283.64 76.44 282.98 77.1 282.5 77.94 281.72 77.31 280.85 76.97 280.39 76.23 279.46 75.47 279.83ZM82.84 286.45 80.77 284.28 78.69 286.51 80.88 288.53 82.84 286.45ZM88.27 291.97C87.38 290.86 86.38 289.66 85.34 289.33 84.26 290.4 83.46 291.38 83.4 292.36 83.35 293.17 84.4 293.95 85.08 294.53 86.01 295.32 87.03 295.12 87.87 294.42 88.44 293.94 89.03 292.92 88.27 291.97ZM77.99 291.95C77.64 290.86 76.62 290.15 75.77 289.43L73.15 292.27C72.53 292.94 72.94 294.27 73.52 294.66 75.12 295.75 78.55 293.66 78 291.95ZM91.28 337.87 91.4 326.83C91.45 322.38 88.35 319.06 84.08 317.82 78.28 316.14 71.37 318.66 70.06 325.02L69.78 337.91 91.28 337.87ZM89.52 508.19C90.83 508.19 91.53 506.54 91.32 505.3L91.32 341.51C91.32 341.51 69.76 341.57 69.76 341.57L69.76 506.46C69.76 507.22 70.88 508.21 71.3 508.21L89.51 508.19Z" fill="#D4A853"/><path d="M89.52 508.19 71.31 508.21C70.89 508.21 69.78 507.22 69.78 506.46L69.78 341.57C69.78 341.57 91.34 341.51 91.34 341.51L91.34 505.3C91.55 506.54 90.84 508.19 89.53 508.19Z" fill="#9E1E1D"/><path d="M94.32 214.42C93.27 218.52 92.07 222.17 89.85 225.5 89.13 225.81 87.81 224.86 87.34 224.49 86.87 224.12 86.14 222.71 87.13 222.29 88.35 221.77 89.65 221.86 90.38 220.98 93.73 216.92 86.44 211.77 80.51 208.13 75 211.72 68.45 215.51 70.18 220.28 70.72 221.77 72.43 221.63 73.91 222.29 75.13 222.83 74 224.39 73.42 224.77 72.66 225.27 71.4 226.23 70.76 225 64.64 213.25 61.93 189.65 60.91 175.27 59.74 158.84 60.29 142.58 63.75 126.49 65.1 120.19 66.75 113.93 70.62 108.78 71.89 107.79 75.66 110.55 74.08 111.7 73.16 112.37 70.69 111.65 70.15 113.41 68.39 119.07 74.53 121.75 80.5 126.01 85.37 123.04 92.19 118.65 91.46 115.05 90.67 111.17 87.34 112.87 86.83 110.88 86.55 109.81 89.65 107.79 90.47 108.64 94.24 114.05 95.99 120.14 97.37 126.5 100.96 143.04 101.4 159.78 100.11 176.83 99.13 189.73 97.55 201.9 94.33 214.42Z" fill="#9C1E1F"/><path d="M66.87 225.71C64.66 225.9 62.18 223.85 62.32 222.17 62.51 219.9 63.66 217.9 61.82 216.13 58.33 212.77 49.33 209.58 49.04 211.78L48 219.85C37.03 202.81 30.04 183.3 28.35 162.85 27.6 153.81 28.87 145.43 31.34 137.07 34.27 127.15 39.75 118.73 48.14 112.52 48.35 116.04 48.18 119.21 49.42 122.23 50.19 124.12 57.38 120.55 62.11 117.93 54.14 147 55.97 178.53 61.45 207.62 62.63 213.89 64.4 219.66 66.87 225.72Z" fill="#9C1E1E"/><path d="M98.95 216.77C97.64 218.51 98.79 220.35 98.89 222.14 99.03 224.5 96.16 225.83 94.21 225.6 96.4 220.54 97.99 215.57 99.11 210.16 105.14 181.08 107.17 146.15 98.75 117.6 101.81 120.07 105.07 121.09 108.54 122.46 109.83 122.97 111.1 123.34 112.12 122.03L113.34 112.77C119.94 117.84 124.65 124.27 127.9 131.85 137.85 155.01 131.58 181.97 121.57 204.41 119.14 209.86 116.4 214.65 113.02 219.41L111.74 211.51C111.46 209.78 108.49 211.53 107.28 211.92 104.69 212.75 101.08 213.95 98.95 216.78Z" fill="#9B1E1E"/><path d="M112.04 226.52C124.2 211.9 131.92 191.55 135.23 173.35 139.39 149.23 134.51 126.26 116.12 109.86 146.5 121.56 165.3 150.81 154.03 182.22 147.14 201.4 131.83 219.27 112.04 226.52Z" fill="#9B1F1E"/><path d="M48.79 226.19C44.01 224.79 40.01 222.63 35.85 219.67 22.29 210.04 11.89 196.78 6.64 180.96-3.71 149.78 15.21 121.28 45.09 109.84 29.17 123.69 23.16 143.34 24.75 165.16 26.7 183.11 32.36 199.92 41.23 215.5 43.42 219.35 45.76 222.37 48.79 226.19Z" fill="#9C1F1E"/><path d="M100.87 100.96C87.34 98.84 74.1 98.65 60.26 101.2L60.2 89.86 100.86 89.75 100.86 100.96Z" fill="#9C201D"/><path d="M91.28 337.87 69.78 337.91 70.06 325.02C71.37 318.65 78.28 316.13 84.08 317.82 88.36 319.06 91.45 322.39 91.4 326.83L91.28 337.87Z" fill="#9E1F1D"/><path d="M100.76 245.25 60.37 245.21 60.16 234.84C73.6 235.7 86.77 235.66 100.65 234.93 101.24 238.27 101.2 241.4 100.75 245.24Z" fill="#9C1F1E"/><path d="M90.14 14.48C80.4 21.11 90.55 27.94 77.47 26.23 74.9 25.89 78.15 18.6 70.97 14.44 73.87 10.44 76.86 7.14 80.55 3.93 84.07 7.25 87.44 10.29 90.14 14.48Z" fill="#9F221D"/><path d="M87.64 228.8C84.85 233.11 75.8 232.79 73.44 228.78 75.67 227.86 77.32 226.15 77.67 223.92 78.13 221.01 76.41 218.98 73.25 218.5 74.96 216.23 77.14 213.77 80.29 212.77 82.87 213.1 86.05 216.11 87.77 218.48 84.68 219.07 82.86 220.93 83.41 223.96 83.83 226.27 85.71 228.04 87.65 228.81Z" fill="#981E1C"/><path d="M80.48 121.64C77.79 120.83 75.1 118.01 73.19 115.82 74.98 115.22 76.43 114.92 77.18 113.5 78.83 110.35 76.79 106.75 73.56 105.55 73.22 104.88 74.2 103.86 75.07 103.71 79.8 102.89 85.35 102.46 87.41 105.06 88.27 106.14 82.62 106.61 83.34 111.87 83.61 113.87 85.13 115.2 87.9 115.77 86 118.16 83.4 120.8 80.48 121.64Z" fill="#981F1C"/><path d="M70.24 231.26C65.56 230.75 61.04 230.04 56.52 227.5 57.19 225.85 57.74 223.47 56.85 221.63 55.96 219.79 53.69 219.51 52.01 218.92 51.97 217.58 52.06 216.49 52.41 215.16 54.62 215.93 57.69 216.57 59.03 218.52 58.92 220.81 57.98 223.13 59.69 225.44 61.03 227.25 62.84 228.8 65.98 229.19 67.23 229.6 69.31 228.48 70.24 231.26Z" fill="#922016"/><path d="M104.68 227.44C100.47 230.34 95.45 230.77 90.41 231.25 91.43 227.95 96.4 230.92 100.9 226.16 103.15 223.78 102.33 221.32 102.33 218.57 103.06 216.56 106.74 215.76 108.6 215.57 109.08 216.96 109.04 217.9 108.81 219.3 106.75 219.33 105.1 220.21 104.28 221.51 103.23 223.18 103.29 225.07 104.67 227.44Z" fill="#922015"/><path d="M59.3 115.08C57.62 117.09 55.24 117.54 52.48 118.53 51.55 118.31 51.12 115.13 52.16 114.83 54.39 114.47 55.85 114 56.8 112.32 57.75 110.64 57.82 108.73 56.25 106.87 60.78 104.88 65.01 104.04 69.63 103.66 67.13 105.75 62.78 103.99 60.11 107.94 58.65 110.1 58.25 112.48 59.31 115.08Z" fill="#902115"/><path d="M108.51 114.76C109.81 115.13 109.46 117.67 108.76 118.58 106.1 117.86 103.91 116.96 101.63 115.62 102.76 112.88 102.97 110.55 101.6 108.45 98.69 104 94.89 105.49 91 103.84 91.79 102.63 92.73 103.77 93.31 103.82 97.31 104.1 100.92 104.95 104.4 106.79 103.46 108.68 103.26 110.19 103.9 111.86 104.54 113.53 106.09 114.08 108.51 114.76Z" fill="#912416"/><path d="M66 108.74 63.21 115.02C62.17 114.14 62.03 112.69 62.18 111.32 62.32 110.09 63.23 108.55 65.99 108.74Z" fill="#8E2111"/><path d="M97.94 114.97 94.93 108.62C96.58 108.44 98 109.17 98.45 109.92 99.16 111.11 99.23 112.65 97.94 114.97Z" fill="#8E2211"/><path d="M85.46 279.53C86.02 279.33 87.03 280.48 87.28 281.03 87.67 281.86 86.64 282.99 85.97 283.22 85.17 283.49 84.13 282.77 83.76 282.07 83.34 281.27 84.03 280.04 85.46 279.53Z" fill="#FFFEEF"/><path d="M82.48 276.14C82.99 276.86 81.57 278.08 80.8 277.99 79.84 277.88 78.49 276.77 78.96 276.09 79.47 275.34 79.8 274.68 80.32 274.51 80.94 274.31 81.69 275.01 82.48 276.14Z" fill="#FFFEEE"/><path d="M82.84 286.45 80.88 288.53 78.69 286.51 80.77 284.28 82.84 286.45Z" fill="#FFFEED"/><path d="M75.47 279.84C76.23 279.46 76.97 280.4 77.31 280.86 77.95 281.73 77.1 282.51 76.44 282.99 75.53 283.65 74.83 282.83 74.3 282.13 73.69 281.34 74.38 280.39 75.47 279.85Z" fill="#FFFEEF"/><path d="M75.46 56.52C75.94 56.34 76.87 57.42 77.03 57.9 77.26 58.57 76.47 59.88 75.62 59.92 75.11 59.95 74.41 59.44 73.79 58.71 73.4 58.25 74.3 57.29 75.45 56.52Z" fill="#FFFFEC"/><path d="M86 59.53C85.09 60.27 84.65 59.56 84.29 58.82 83.89 58 84.23 57.4 85.1 56.72 86.02 56.01 86.48 56.7 86.81 57.39 87.21 58.25 86.81 58.88 86 59.53Z" fill="#FFFEEA"/><path d="M109.7 222.42C109.37 223.46 108.47 224.17 107.76 224.98 106.97 224.46 107.06 223.71 107.28 223.25 107.59 222.61 108.3 221.81 109.69 222.41Z" fill="#812708"/><path d="M50.68 110.92C50.96 110.46 52 109.7 53.09 109.39 53.55 109.26 53.82 110.61 53.19 111.01 52.81 111.26 52.17 112.05 50.68 110.92Z" fill="#782004"/><path d="M53.23 224.72C52.71 224.72 51.43 223.3 51.58 222.77 52.11 221.88 53.07 222.36 53.55 222.94 53.91 223.38 54.06 224.39 53.24 224.72Z" fill="#802401"/><path d="M110.11 110.59C109.8 111.09 109.17 111.22 108.5 111.16 108.02 111.12 107.19 110.83 107.21 109.98 107.23 109.42 108 109.11 108.38 109.38L110.11 110.59Z" fill="#7A1D00"/></g></svg>