<svg viewBox="0 0 504.36 390.15" xmlns="http://www.w3.org/2000/svg" xmlns:xlink="http://www.w3.org/1999/xlink" id="_レイヤー_1" overflow="hidden"><defs></defs><g id="_生成オブジェクト"><path d="M219.43 52.12 221.95 55.69 226.23 47.48C226.74 47.57 226.95 47.56 227.42 47.77 225.86 50.64 223.8 54.08 223.12 57.4 224.02 60.32 225.61 63.03 227.32 65.82 229 57.85 231.36 50.9 234.7 44.17 235.2 44.21 235.54 44.24 236.01 44.39 232.19 52 229.75 60.04 228.01 68.78 231.24 79.14 231.18 89.52 230.25 100.07 230.12 101.51 230.83 103.31 231.52 104.75 234.07 102.66 235.91 100.4 237.7 97.61 233.9 83.57 234.74 69.49 237.77 55.46L240.9 44.18C241.46 44.26 241.69 44.24 242.21 44.1 236.98 60.35 234.65 77.76 238.51 95.94 240.99 94.5 242.59 91.8 244.07 89.21 242.59 76.06 243.42 63.42 245.39 50.55L246.97 40.23 248.31 40.04 247.69 44.24C245.62 58.22 243.6 72.02 245.36 86.81 247.88 83.79 251.59 79.89 251.6 75.85L251.77 26.89 253.17 26.69 253.17 75.25C253.17 79.73 256.92 83.68 259.41 87.35 261.08 72.73 259.55 58.92 257.28 45.13L258.66 44.81C260.94 59.74 262.51 74.51 260.62 89.7L266.27 96.05C269.68 80.76 268.54 65.43 264.4 50.56L262.25 42.87C262.76 42.96 263.12 42.6 263.18 41.73 268.8 59.7 271.84 78.3 267.47 97.65L272.53 103.95C274.06 99.76 274.38 95.9 273.88 91.71 273.77 83.88 274.85 76.4 276.96 68.74 275.37 60.41 272.7 52.87 269.32 45.66 269.78 45.77 270.14 45.41 270.24 44.7L275.63 58.23C276.59 60.63 276.55 63.02 278.01 65.61L281.88 57.18C280.01 53.15 278.7 49.23 276.26 45.86 276.79 45.79 277.18 45.42 277.18 44.86L282.69 54.98C284.34 54.08 284.67 52.46 285.63 51.47 286.83 50.24 288.19 48.98 288.86 47.38 283.63 38.27 274.69 29.38 267.02 21.99 265.06 20.1 263.94 18.06 262.8 16.12L281.51 34.86C284.76 38.2 287.51 41.71 290.21 45.52 294.27 41.48 297.41 37.7 301.7 34.98 300.9 35.93 300.35 37.53 298.97 38.83 290.88 46.42 284.04 54.94 280.04 65.34 274.25 80.43 273.67 96.71 279.79 111.62L286.26 120.33 289.62 117.56C290.22 117.07 292.21 116.73 291.17 115.19 289.48 112.68 287.7 110.33 288.21 107.12 288.58 104.79 289.95 102.12 292.6 100.17 289.02 89.39 288.87 78.16 291.26 67.49L292.65 67.46C290.33 77.71 290.45 88.43 293.9 99.19 297.24 98.32 300.03 98.01 303.8 98.85 300.86 89.39 299.63 80.25 299.43 70.92L300.83 70.92C301 80.25 302.51 89.47 305.47 99.16 311.02 101.68 315.43 105.63 318.96 111.16 318.81 107.6 317.17 105.02 316.4 101.76 312.61 91.21 309.2 80.7 307.79 69.75L309.19 69.42C310.5 78.75 312.97 87.86 316.3 96.92 318.71 103.48 320.09 109.82 322.07 116.54 325.16 127.08 326.31 137.16 323.68 148.27 325.66 148.09 327.97 146.96 328.3 145.34 331.22 130.91 330.14 116.56 326.42 102.48 324.3 94.46 321.06 87.28 318.4 79.42L313.91 66.14 315.3 65.74 322.1 84.93C329.65 106.24 333.85 120.66 330.26 144.68 332 143.95 334.4 143.22 335.19 141.92 340.76 123.84 338 105.63 329.88 89.1L321.77 72.6 322.98 72.15 332.46 91.32C340.16 106.89 341.43 124.17 337.29 141.03L341.57 139.08C342.81 138.51 345.84 137.94 346.23 136 349.86 118.14 347.4 99.56 339 83.47L326.33 61.63C322.75 55.46 319.37 48.69 318.93 42.22 322.1 50.08 325.64 57.82 330.29 65.34L336.95 76.12C345.66 67.03 355.73 60.29 366.94 56.19 367 56.57 367.01 57.01 366.89 57.28 366.74 57.62 366.02 57.72 365.76 57.84 355.54 62.69 345.86 68.44 338.11 77.45 337.35 78.45 339.8 81.56 340.71 81.69 339.72 83.15 341.89 86.37 343.13 88.25L348.37 80.58C348.9 80.71 349.17 80.72 349.55 80.88L343.86 90.26 347.6 101.41C349.88 94.17 352.54 88.08 356.16 82.27 356.28 82.7 356.55 82.97 357.19 83.04 353.37 89.4 350.8 96.26 348.25 103.94 349.77 114.16 350.05 124.63 348.15 135.35 349.72 135.31 352.8 134.33 353.03 132.85L356.16 112.16C357.74 101.72 359.99 91.91 363.88 82.78 364.01 83.36 364.36 83.71 364.95 83.64 360.8 93.39 358.98 104.16 357.3 115.2L354.64 132.72 363.26 128.43 365.2 109.83C366.08 101.39 367.16 93.28 369.13 85.21L370.46 85.7C368.19 94.33 367.56 103.41 366.47 112.56L364.7 127.42C368.27 126.42 370.93 124.76 373.96 122.87L374.54 116.57 374.61 87.11 376.01 87.11C376.01 87.11 375.87 121.55 375.87 121.55 378.09 121.28 379.17 120.04 381.28 119.25 380.16 126.88 378.59 134.28 379.61 142.56 383.26 132.69 383.12 122.46 381.73 112.37L379.45 95.71C380.05 95.55 380.42 95.08 380.78 94.83L383.05 111.7C384.49 122.41 383.97 133.39 380.78 143.87 379.43 148.33 378.45 152.38 380.49 156.71 379.31 158.93 379.01 161.79 380.37 164.57 392.77 148.27 396.85 128.2 392.72 108.19L389.24 91.31C387.59 83.33 386.7 75.64 387.62 68.06 388.08 77.51 390.3 86.67 391.95 96.27L395.56 117.28 395.68 133.44C409.3 126.13 423.88 122.79 439.19 122.41 442.06 122.34 444.55 121.75 447.11 123.15L428.16 124.63C416.25 125.56 405.22 130.08 394.98 136.1L394 140.95C393.81 141.9 393.72 142.69 394.56 143.43 392.38 144.77 391.63 147.69 391.4 150.51 397.71 145.32 403.8 141.09 410.54 137.58 410.64 138.01 410.65 138.46 410.79 139.16 403.23 142.96 396.72 148.07 389.77 153.79L380.07 168.57C380.07 171.21 379.64 173.64 380.56 176.63 390.21 162.47 402.46 150.84 417.16 142.47 417.82 142.68 418.05 142.97 418.53 143.48 403.07 151.64 390.45 165 380.02 179.76L378.85 197.07 388.87 184.12C399.38 170.53 410.81 158.12 424.97 148.34 425.08 148.64 425.36 148.97 425.59 148.86 425.83 148.75 425.98 148.45 426.96 148.92 416.06 156.14 405.85 164.74 397.72 175.43L377.91 201.45 372.26 216.4C377.61 212.47 381.22 207.92 385.37 203.09L411.3 172.94C418.57 164.49 426.24 157.21 434.71 150.16 434.99 150.71 435.22 151.02 436 151.13 427.75 157.85 420.2 165.12 413.14 173.34L383.99 207.3C379.42 212.63 374.69 217.02 369.73 221.84 367.25 224.25 365.69 227.91 364.07 231.41 385.09 219.14 402.78 202.98 417.28 183.84L434.73 160.82C435.04 161.39 435.47 161.54 436 161.61L418.67 184.52C402.82 205.47 383.47 222.34 360.86 235.48 357.56 237.4 355.51 241.05 352.72 243.69 382.67 232.93 409.51 214.39 426.05 186.95L436.76 169.18C437 169.68 437.38 169.91 437.99 169.97L428.53 185.95C410.08 217.14 382.47 234.82 349.18 246.95 348.58 247.17 348.49 247.93 348.49 248.27 345.76 249.06 343.52 250.89 341.54 253.48L358.02 251.56C378.28 247.35 397.21 238.61 413.36 225.6 444.59 200.43 446.04 173.3 463.63 144.54 464.41 143.26 465.4 142.89 466.81 143.35 454.99 162.51 449.98 184.59 436.3 204.99 429.39 215.29 420.91 223.42 411.18 231.6 420.64 232.54 428.61 233.06 437.05 235.34 455.72 240.38 472.21 250.6 484.37 265.53 482.6 264.74 481.39 263.58 479.73 262.08L473.03 256.04C459.48 243.83 442.13 236.73 423.83 234.69 418.61 234.11 413.44 233.09 408.35 234.03L398.54 239.4C397.48 239.98 396.86 240.58 397.26 241.36 395.65 241.58 393.77 242.01 392.45 242.56L375.21 249.72 400.61 247.1C415.66 245.55 430.28 246.79 444.62 250.82 444.57 251.23 444.28 251.58 444.16 252.31 428.41 247.71 411.72 247 395.01 249.19L364.57 253.18C357.12 254.16 350.02 255.31 342.33 255.22 340.19 255.2 337.69 254.96 335.85 256.79L362.02 256.47C392.09 256.11 421.99 253.24 450.73 261.59 450.26 262.46 449.71 262.22 449.47 261.97 449.29 261.79 449 262.25 449.11 262.71 440 260.06 430.52 258.01 420.7 257.97L370.42 257.77 331.89 258.8 355.75 261.42 442.17 270.61 450.18 271.76 450.35 273.21 441.78 272.02 398.45 267.51 326.62 260.85C343.77 264.53 359.47 268.36 375.96 273.27 389.38 277.27 402.65 280.62 416.7 281.29L445.41 281.32 445.77 282.83 418.15 282.81C393.65 282.79 367.94 270.67 344.01 267.01 357.08 270.17 365.96 277.73 376.18 285.68 383.98 291.75 396.15 292.92 405.66 294.36 417.75 296.2 429.46 294.38 441.08 291.71 441.51 292.39 441.41 292.82 441.3 293.3 419.37 298.11 401.29 297.52 379.16 289.61L386.34 301.39C386.75 302.06 387.33 302.71 387.9 302.87 387.33 303.26 387.35 303.83 387.77 304.11L391.47 312.48C395.27 314.01 399.21 315.13 403.41 314.92L414.68 314.36C428.42 313.68 440.75 308.14 453.2 302.46 460.35 299.2 466.62 295.08 474.9 293.55L446.21 307.35C434.62 312.92 422.72 315.5 410.3 316.2 419.71 319.03 439.63 314.59 448.5 310.43L472.7 299.08C473 299.79 473.46 299.82 473.75 299.81L456.13 309.02C437.84 318.31 414.46 322.08 394.03 315.79L395.94 322.28C395.36 322.27 394.42 321.68 394.09 320.98L386.69 305.25C374.16 278.61 349.06 267.2 320.8 263.57 315.61 266.13 308.87 266.65 308.85 268.59 305.16 267.87 301.29 268.77 297.74 270.14 309.07 274.9 320.01 277.59 331.34 280.52 338.54 282.39 345.58 283.9 352.1 286.93 352.12 287.53 351.94 287.93 351.5 288.16L330.63 281.92C318.56 278.31 306.53 275.72 294.85 270.56 291.84 270.23 288.48 270.15 284.76 271.14 299.68 280.19 315.07 286.28 331.56 290.17 340.28 292.54 348.45 295.05 356.37 298.7 355.9 298.98 355.7 299.34 355.66 300.03 346.97 295.91 337.74 293.31 328.08 290.9 311.38 286.75 295.96 280.08 281.31 270.94 279.89 270.06 277.48 270.31 275.34 270.43 277.07 273.02 279.54 274.1 282.03 276.01 297.2 287.6 313.75 296.31 332.02 301.56L357.96 309.27C357.19 310.16 356.54 309.21 356.51 310.44L330.87 302.87C308.57 296.28 289.18 285.01 271.43 269.67 270.33 268.72 267.79 268.73 266.51 268.94 288.93 295.71 312.77 314.44 348.52 315.21L348.58 316.98C329.63 315.86 311.44 310.78 295.79 299.25 283.32 290.06 272.27 279.43 263.25 267.28 263.05 267.01 262.96 266.67 263.01 266.43 263.08 266.11 263.42 265.9 263.78 265.81 314.09 279.86 374.84 240.41 377.23 185.37L377.08 157.97C377.02 145.81 376.99 134.25 378.93 122.14 347.67 141.64 315.33 148.18 294.09 180.64 288.53 189.13 283.89 197.74 279.99 207.16L271.93 226.62C268.5 234.9 264.58 242.71 258.96 249.31 256.88 248.71 254.72 249.63 252.36 248.07 250.69 248.83 248.66 249.16 246.6 250.08 241.71 244.71 238.01 238.52 235.06 231.53L224.84 207.35C215.64 185.58 203.84 166.91 183.76 153.69 176.18 148.7 168.69 144.97 160.7 140.89L136.61 128.61 126.01 122.67C127.46 133.8 128.85 144.27 127.96 155.06 125.54 184.39 126.52 210.1 146.5 233.11 156.21 244.29 167.69 253.05 180.92 259.59 192.95 265.54 205.37 268.13 218.81 268.57 236.65 269.16 251.27 261.64 252.48 262.18 253.99 262.85 252.82 264.02 252.95 264.7 256.58 283.68 266.88 299.8 280.58 313.01 292.01 324.02 305.2 330.75 320.98 332.43 331.59 333.56 342.22 331.97 352.86 329.9L360.96 328.94 367.17 328.19C370.81 327.75 374.61 327.72 378.18 328.19L371.12 329.09C367.73 329.52 364.62 329.28 361.27 329.87L348.64 332.08C334.68 334.52 321.12 334.94 307.04 331.34 317.07 337.07 328.5 338.79 340.26 338.19 357.48 337.3 370.22 331.17 386.68 332.48 385.27 332.58 383.93 332.85 382.52 333.11L358.44 337.47C340.26 340.76 324.87 342.9 307.12 333.94 303.09 348.92 292.74 357.38 280.43 365.63L264.25 376.59C264.68 375.7 264.81 374.21 266.26 373.17L272.78 368.51C286.09 358.99 299.58 353.35 305.48 333.36 303.73 331.76 301.88 331.02 300.21 330.07L292.45 325.66C291.94 332.77 289.65 338.6 286.42 344.11L284.73 344.19C288.49 338.35 290.88 331.67 291.08 324.51L282.27 317.7C282.54 330.71 278.39 342.1 271.8 352.55 271.18 352.5 270.9 352.49 270.43 352.29L274.98 343.95C279.57 335.54 281.99 325.62 280.32 316.17L269.79 305.03C273.29 322.2 270.45 338.08 264.57 353.29L263.06 353.36C266.77 344.18 269.74 334.66 269.97 324.33 270.13 316.89 269.95 308.83 267.06 302.07L258.33 286.22 261.11 304.73C263.14 318.25 262.6 331.42 260.26 344.72L258.69 353.62 257.23 353.82 260.16 334.88C262.83 317.58 258.38 294.45 254.45 276.21 253.12 278.56 253.25 281.36 253.25 284.42L253.19 362.04 251.81 362.38 251.64 274.26C244.04 303.12 241.24 324.72 247.63 353.64L246.32 354.48 245.64 350.27C242.41 335.65 241.48 321.06 243.67 306.21L246.73 285.47 237.88 301.9C231.96 318.87 235.5 338.1 242.16 354.29 242.06 355.01 241.69 355.29 241.19 355.47 233.91 337.81 231.44 323.4 235.46 303.87L224.91 315.74C222.83 323.19 224.89 332.01 227.75 339.2L234.95 353.02C234.56 353.13 234.2 353.36 234.05 354.13 229.01 346.12 224.64 337.6 223.18 327.88L222.37 317.85 213.63 324.86C214.38 333.06 217.18 340.13 221.83 346.6 221.44 347.02 221.15 347.03 220.59 347.14 216.13 340.97 213.36 334.05 212.28 325.7L204.81 329.91 199.44 332.71C202.64 347.29 212.57 355.31 224.54 363.6L239.05 373.64C241.07 374.65 242.82 376.43 242.68 378.69L218.3 361.42C208.55 354.52 201.07 345.81 197.66 334.08 187.09 339.14 176.02 341.62 164.69 340.13L147.2 337.84 122.08 333.26C122.82 332.08 124.3 331.91 126.16 332.23L157 337.51C170.45 339.81 183.95 338.52 195.91 332.03 184.16 334.28 173.32 335.11 161.89 333.1L141.37 329.5 134.19 328.98 128.2 328.16C131.79 327.77 135.57 327.74 139.19 328.18L142.94 328.64 164.8 331.97C179.84 334.26 195.3 332 208.7 324.69 227.99 314.17 249.71 286.64 251.05 263.95 249.91 263.76 249.24 264.58 248.89 265.35 247.98 264.62 246.36 265.14 245.84 266.38 241.01 277.95 233.43 287.52 224.74 296.57 216.05 305.62 206.35 312.39 195.03 317.49 185.84 321.63 176.55 323.24 166.85 323.01L166.85 321.68C179.41 321.81 191.36 318.57 202.32 312.16 210.69 307.26 218.01 301.58 224.71 294.44 232.53 286.1 239.46 277.42 244.13 266.7 241.16 266.82 239.82 269.38 238.25 271.37 233.72 277.13 229.14 282.16 223.73 287.15 203.96 305.37 184.91 315.39 158.14 316.67 157.64 316.07 157.17 315.9 156.83 315.35 166.04 314.33 175.12 313.56 183.92 310.53 205.86 302.97 223.57 287.04 238.43 268.9 236.72 268.68 234.44 268.7 233.07 269.9 215.42 285.3 195.31 296.37 173.03 303.06L150.35 309.87C150.02 309.19 149.69 308.87 149.02 308.67L172.3 301.64C193.65 295.2 213.05 284.76 230.16 270.37 228.03 270.13 225.48 269.89 223.69 270.99 209.3 279.83 194.23 286.29 177.9 290.4 169.58 292.49 161.67 294.65 153.91 297.98 153.69 297.23 153.37 296.85 152.61 296.87 160.39 293.51 168.25 291.35 176.67 289.13 192.12 285.06 206.62 279.39 220.5 271.05 216.98 270.62 212.92 269.56 210.05 270.59 200.37 274.66 191.14 277.91 180.93 280.26 171.35 282.47 162.1 284.57 153.22 288.17L152.47 286.86C169.87 279.83 189.98 277.99 207.83 269.89 203.75 269.11 200.18 267.72 196.74 268.29L183.64 263.55C157.7 267.05 134.62 276.47 121.27 299.78 117.53 306.3 111.45 319.1 111.8 318.96 111.52 319.07 111.09 318.98 110.59 318.78 110.98 318.01 111.57 317.23 111.35 315.83 94.34 320.86 76.9 319.71 60.2 313.7 50.53 310.22 42.04 305.55 32.91 300.99 31.62 300.34 29.73 300.24 28.89 299.07 30.13 297.76 31.55 298.89 32.92 299.56 51.01 308.43 73 319.78 94.16 316.27 78.88 315.14 64.83 310.82 51.21 303.77L29.19 293.48C37.36 295.1 44.31 298.87 51.78 302.51 66.92 309.89 82.41 314.64 99.45 314.53 104.32 314.5 109.07 314.47 113.42 312.45L117.27 303.29 125.63 289.52C106.26 296.87 86.52 298.29 67.12 293.97L67.21 292.5C83.78 296.2 101.05 295.93 117.64 290.48L128.12 287.04C136.3 277.75 146.75 272.03 157.95 267.52 134.35 271.59 109.26 282.8 85.47 282.85L59.65 282.91 59.28 281.39 83.37 281.43C96.2 281.45 108.29 278.66 120.61 275.38L162.7 264.19 178.29 260.62C152.63 261.92 127.46 265.38 101.62 268.11L58.97 272.61 58.51 271.15 105.82 265.99 172.36 259.17C163.48 257.94 155.34 258.7 146.47 258.26 125.3 257.21 104.56 256.76 83.48 257.91 75.48 258.35 67.95 259.53 60.46 261.45 60.02 260.76 60.19 260.32 60.29 259.87 84.86 254.08 109.44 255.82 134.58 256.17L170.69 256.68C164.16 254.49 157.96 255.81 151.4 254.81 134.46 252.23 118.05 249.66 100.94 248.55 87.74 247.69 75.07 248.24 62.61 251.66L62.13 250.13C75.54 246.51 89.06 245.73 103.02 247.12L129.88 249.79C124.09 247.21 118.5 245.33 112.84 242.19L110 241.79 97.85 233.81C68.87 233.07 42.8 243.02 23.39 264.23L17.93 270.2C17.26 270.93 16.65 271.41 15.61 270.9 34.24 246.12 62.25 231.85 94.47 231.9 71.39 214.46 61.43 195.88 51.3 170.41 47.04 159.78 42.43 149.68 36.25 140.36 38.49 140.02 39.37 141.75 40.44 143.32 44 148.55 46.95 153.79 49.48 159.59L61.42 186.93C67.1 199.93 75.16 211.3 85.72 220.89 105.28 238.68 137.76 253.04 164.95 253.76 162.98 251.29 160 249.56 157.92 248.52 157.73 248.29 157.47 247.45 156.84 247.23 131.5 238.19 107.4 225.51 89.55 204.46 82.55 196.2 77.12 187.4 71.93 178.48 72.63 178.53 72.99 178.98 73.77 178.71L79.74 188.35C97.43 216.92 122.77 232.65 153.49 244.29 149.52 240.81 146.97 236.87 142.94 234.6 112.58 217.48 93.77 196.23 73.95 168.14 74.41 167.85 74.76 167.7 75.12 167.2 83.41 178.42 91.58 189.69 101.54 200.22 113.16 212.51 125.97 222.95 141.08 231.45 139.15 227.15 137.09 223.25 133.96 220.48 113.62 202.47 98.42 178.5 77.05 158.26 77.51 157.9 77.73 157.59 77.92 156.89 88.64 166.99 98.09 178.22 107.76 189.73 115.75 199.24 123.07 208.52 132.99 217.23 130.25 212.26 130.18 205.37 126.86 201.08L108.05 176.78C99.74 166.04 89.73 157.12 78.94 149.67L80.16 149.53C80.39 149.56 80.56 149.24 80.55 148.81 91.68 156.62 101.62 165.79 110.23 176.74L126.25 197.11 124.68 180.09C114.44 164.85 101.89 152.18 86.06 143.67 86.68 143.46 86.89 143.01 86.88 142.26 102.06 150.6 114.65 162.65 124.47 177.14 125.09 174.27 124.9 171.88 124.86 169.21 121.55 164.22 118.59 159.53 115.84 154.28 107.64 147.48 99.18 141.43 89.52 137.31 90.08 137.1 90.39 136.71 90.4 135.91 98.95 139.68 106.61 144.81 114.15 150.94 113.75 148.41 113.03 144.94 110.77 143.56 111.49 143.05 111.53 142.61 111.37 141.9L110.04 136.18C97.68 128.71 83.79 124.91 69.3 124.19 68.42 124.15 68.35 123.44 68.58 122.71 82.72 123.35 96.41 126.65 109.33 133.58L109.45 117.29C109.53 106.07 117.05 88.94 117.1 68.14 117.41 68.08 117.86 68.02 118.11 68.18 118.45 68.4 118.46 68.93 118.47 69.58 118.85 90.79 109.32 108.04 110.85 128.54 111.88 142.36 117.18 154.91 125.12 165.76 125.42 162.79 126.07 159.62 124.79 157.35 125.71 153.98 126.5 149.93 125.18 146.3 120.44 133.36 120.96 119.7 122.73 106.06L123.54 99.8 124.89 99.73 123 114.28C121.72 124.15 122.2 134.22 125.78 143.4 126.31 135.02 125.02 127.34 123.59 118.97L129.16 121.82 128.99 85.88 130.38 85.55 130.36 122.72 139.83 127.61C140.18 125.34 139.33 123.3 139.12 121.19 137.9 108.75 137.44 96.15 134.06 84.16L135.35 83.44C138.76 95.84 139.53 108.67 140.47 121.68 141.17 123.58 140.17 126.66 141.9 128.28 144.06 130.32 147.08 131.37 150.21 132.41 146.68 115.23 147.08 101.57 140.66 85.33L141.96 84.67C145.6 94.42 147.34 104.49 148.91 114.95L151.65 133.25C152.67 134.27 154.64 135.18 156.76 135.5 155.31 125.38 155.08 115.46 156.84 105.36 154.55 98.14 152.28 91.17 148.47 84.68L149.71 84.11C152.68 89.57 155.24 95.23 157.27 102.15 158.58 98.29 159.22 94.59 161.07 90.65L156.17 82.24C156.59 82.18 156.89 82.15 157.35 81.95L161.46 87.99C163.19 86.41 163.46 84.15 164.4 82.4 165.24 80.85 166.58 79.42 167.1 77.27 159.44 69.45 151.17 63.45 141.72 58.87L140.21 57.97C139.98 57.83 140.1 57.11 140.11 56.94 150.52 61.33 159.95 67.42 168.03 76.13L178.79 58.29C183.33 50.75 186.12 42.69 187.41 34.4 188.15 35.67 187.96 37.6 187.65 39.15 186.12 46.67 183.59 53.66 179.52 60.43L169 77.96C158.79 94.96 154.72 115.22 158.43 134.82 158.93 137.45 160.37 138.72 162.77 138.75 162.55 137.89 162.8 137.55 162.97 137.43 163.36 139.33 165.07 140.95 167.45 140.93 163.19 123.28 165.13 105.34 173.33 89.28L182.77 70.8C182.9 71.42 183.27 71.78 183.8 71.71L172.9 93.69C166.23 109.11 164.98 125.92 169.37 142.06 171.26 143.44 173.01 144.46 175.37 144.84 170.97 124.28 174.85 106.12 181.81 87.27L189.7 65.92 191.09 66.13 180.94 94.13C175.17 110.03 173.24 126.64 176.64 143.21 177.2 145.95 177.79 148.09 181.32 148.25 178.93 137.22 180.06 127.09 182.8 116.59 184.77 109.03 186.62 102.1 189.22 94.74 192.92 84.27 195.87 73.66 196.27 62.75L197.77 63.25C197.7 79.09 189.12 96.23 185.93 111.86 189.19 106.45 193 101.82 199.11 99.61 201.62 91.81 203.4 84.21 203.5 75.78 203.52 73.94 204.84 71.66 203.96 69.69L204.69 69.4C205.3 79.28 204.54 88.72 200.73 98.78 204.54 98.33 207.51 98.01 211.23 99.29 213.12 91.39 214.61 83.8 213.63 76.17L213.08 71.93 214.45 71.76 215.02 76.17C216.06 84.19 214.64 92.4 212.46 100.13 217.49 104.15 218.09 110.72 214.06 115.4 213.26 116.32 214.93 117.01 215.39 117.39L218.74 120.2 224.44 112.32C235.84 86.19 226.55 56.69 205.27 38.18 203.94 36.6 201.63 35.69 201.98 33.45 206.71 37.26 210.84 41.52 215.25 46.27 222.98 32.83 234.35 24.45 243.41 13.83 244.13 14.67 244.09 14.98 243.47 15.65L221.99 38.94 215.94 47.7 219.47 52.16ZM208.24 171.15C208.02 173.19 212.78 178.11 215.83 183.45 215.48 166.92 219.38 151.31 226.21 136.76 226.41 137.37 226.8 137.56 227.48 137.61 220.59 152.96 215.65 170.36 218.23 187.58L228.54 210.7 237.55 231.83C239.83 237.17 242.22 242.16 246.2 246.47L239.01 230.29C224.59 197.85 227.18 165.67 236.76 133.29L238.33 133.17C227.85 163.22 227.02 202.35 241.32 231.57L248.98 247.23 244.71 225.29C238.65 194.16 238.7 163.27 244.11 132.21L245.7 132.06C239.74 166.99 239.9 194.11 247.22 229.09 248.33 234.41 248.56 239.62 251.31 244.88L251.61 150.37 251.79 130.58 253.2 130.46 253.34 247.22C259.62 222.3 264.13 194.01 262.79 167.79 262.13 154.89 260.67 142.58 258.52 130.08L260.09 129.9C262.93 146.29 265.02 162.61 264.71 179.74 264.28 203.01 260.28 225.07 255.31 247.93L263.45 231.42C278.51 200.87 276.12 162.56 265.49 130.66 266.25 130.66 266.64 130.37 266.8 129.59 278.23 164.12 279.95 199.44 264.49 233.12 262.63 237.17 260.38 240.64 259.59 245.09 264.83 237.9 268.3 230.16 271.64 222.04L280.66 200.1 286.94 186.76C288.34 169.17 284.18 152.13 276.81 136.95 277.51 136.81 277.8 136.58 278.08 136.04 285.22 150.6 289.08 166.29 288.97 183.59 291.48 179.36 293.86 175.68 296.74 172.15L302.74 164.79C301.94 156.03 299.26 148.23 295.38 140.33 283.97 117.05 265.54 102.83 256.72 87.77L252.4 80.4C246.74 91.22 239.39 99.85 231.47 108.84 217.07 125.17 204.56 143.27 201.7 164.88L208.24 171.15ZM190.37 154.29C190.91 156.32 193.37 158.05 195.44 158.8 190.91 147.7 188.8 136.58 192.3 126.29 192.63 126.58 192.96 127.02 193.54 127.01L192.22 132.67C191.23 143.4 194.02 153.42 199.52 162.48 201.64 158.92 201.03 155.7 199.84 152.35 196.7 143.53 195.63 134.34 197.84 125.71L199.2 125.71C197.03 134.81 198.44 144.27 201.59 153.96L204.69 144.67C203.3 136.46 203.05 128.69 203.42 120.69L204.77 120.71C204.84 127.65 204.24 134.46 205.89 141.65L210.1 133.28C210.22 131.1 209.39 128.42 208.85 126.51 209.41 126.51 209.75 126.19 209.99 125.71L211.91 130.76C213.58 129.3 213.93 126.75 214.93 125.35 215.48 124.58 217.08 123.52 217.15 122.02 217.2 120.95 210.4 115.15 208.95 117.79 208.44 117.9 208.02 117.41 207.58 117.19 207.02 117.26 206.73 117.61 206.37 117.84 206.14 117.05 205.99 116.86 205.54 116.43 205.15 116.06 204.93 115.57 204.03 115.83L203.95 115.03C203.92 114.75 203.6 114.11 203.29 114.07 202.92 114.03 202.1 114.29 202.08 114.61 201.54 114.03 201.79 113.49 201.86 112.98 202.2 112.73 202.54 112.6 203.25 113.02 202.94 111.78 203.37 111.53 203.68 110.98 204.02 110.36 205.47 109.73 206.01 110.4 205.88 111.59 205.22 112.92 205.85 113.72 206.71 114.81 208.07 115.48 209.75 115.19 213.34 114.57 215.29 111.2 215.08 107.84 214.88 104.66 212.95 101.74 209.28 100.67 194.62 96.42 179.71 117.13 182.01 138.51 182.46 142.72 182.9 146.89 184.78 150.7 185.98 152.31 188.55 153.43 190.38 154.31ZM301.62 115.86C301.14 115.74 300.77 116.11 300.89 116.56 299.99 116.29 299.77 115.37 299.47 116.2 299.31 116.65 299.33 116.9 299.42 117.16 298.98 117.02 298.25 117.21 298.21 117.63L298.09 119.15 296.63 118.59C296.79 118.12 296.4 117.93 296.21 117.83 295.86 117.18 294.91 116.75 294.24 116.8 292.57 116.93 288.66 121.13 288.3 122.08 287.68 123.73 289.59 123.99 290.06 124.61 291.03 125.9 291.17 128.81 293.36 130.23 294.29 127.32 294.67 124.54 295.49 122.04 296.05 122.14 296.68 122.15 297.23 122.04 296.25 125.37 294.63 129.42 294.9 133.21 295.17 136.19 297.7 138.58 298.77 141.36 300.19 135.1 300.33 129.32 300.1 123.49L301.47 123.49C302.2 130.49 300.87 137.35 300.35 144.66L302.95 154.15C307.15 142.59 308.35 132.59 304.51 122.02L305.93 122.07C308.27 128.24 308.75 134.8 307.76 141.82L303.88 157.21C303.49 158.76 304.2 161.19 305.35 162.74 311.56 151.16 314.89 138.42 311.16 127.15L312.62 126.99 313.96 133.71C315.5 141.46 312.51 149.33 309.82 157.71 311.59 157.83 314.03 155.68 314.73 153.71 316.65 152.89 319.64 151.86 320.56 149.47 325.96 135.46 323.41 119.29 314.1 107.67 309.84 102.35 303.26 99.41 296.8 100.37 293.68 100.84 291.4 103.05 290.54 105.11 289.33 108.02 289.71 111.39 292.01 113.3 294.91 115.73 298.7 115.21 300.7 111.89 301.9 112.24 302.58 113.13 302.66 113.47 301.04 113.93 301.49 115.21 301.6 115.85ZM275.38 106.68C275.79 105.07 276.02 103.69 275.02 102.06 273.64 103.48 273.71 105.56 275.38 106.68ZM229.47 107.38C230.36 107.19 230.75 106.42 230.36 105.98 229.95 105.51 230.17 104.89 229.66 103.86 229.13 104.8 229.14 106 229.47 107.38Z" fill="#C7995A"/><path d="M263.78 265.78 254.57 262.56C254.12 263.91 255.33 264.94 256.02 265.5 265.91 299.63 299.99 330.19 336.79 325.97L355.14 323.86 362.41 323.31 368.33 322.75C368.31 322.51 368.16 322.29 367.93 322.2L355.29 322.54 350.82 322.87C350.57 322.41 350.06 322.06 349.87 321.44 358.68 320.33 367.05 320.97 376.16 321.34 367.1 318.91 357.77 317.5 348.57 316.96L348.51 315.19 349.99 315.84C361.27 316.15 371.66 318.17 382.42 321.48 374.57 316.12 365.62 313.11 356.49 310.42 356.52 309.19 357.17 310.15 357.94 309.25 367.39 312.06 376.43 315.62 385.11 320.88 376.67 311.81 366.6 305.2 355.64 300.01 355.68 299.32 355.87 298.96 356.35 298.68 366.96 303.57 376.09 310.07 385.3 318.2 377.64 304.14 365.66 294.07 351.47 288.14 351.91 287.91 352.09 287.51 352.07 286.91 364.92 291.83 375.43 300.85 384.01 311.56 383.5 312.2 383.7 312.52 384.03 313.12 384.25 313.52 384.95 314.09 385.17 313.12 385.19 312.5 384.28 311.76 384.01 311.55 379.66 303.08 374.18 295.13 366.65 288.76 357.8 281.45 347.54 277.08 336.49 273.97L308.82 268.55C308.84 266.61 315.58 266.09 320.77 263.53 349.03 267.16 374.13 278.56 386.66 305.21L394.06 320.94C394.39 321.64 395.33 322.23 395.91 322.24L401.44 333.6 386.65 332.42C370.2 331.11 357.45 337.24 340.23 338.13 328.48 338.73 317.05 337.02 307.01 331.28 321.1 334.88 334.66 334.46 348.61 332.02L361.24 329.81C364.59 329.22 367.7 329.46 371.09 329.03L378.15 328.13C374.58 327.66 370.78 327.7 367.14 328.13L360.93 328.88 352.83 329.84C342.19 331.91 331.57 333.51 320.95 332.37 305.18 330.68 291.98 323.96 280.55 312.95 266.84 299.74 256.54 283.62 252.92 264.64 252.79 263.96 253.96 262.79 252.45 262.12 251.24 261.58 236.63 269.1 218.78 268.51 205.35 268.07 192.92 265.47 180.89 259.53 167.66 252.99 156.18 244.23 146.47 233.05 126.49 210.04 125.52 184.33 127.93 155 128.82 144.21 127.43 133.74 125.98 122.61L136.58 128.55 160.67 140.83C168.65 144.9 176.14 148.63 183.73 153.63 203.81 166.85 215.61 185.52 224.81 207.29L235.03 231.47C237.98 238.46 241.68 244.65 246.57 250.02L252.1 256.08 258.94 249.25C264.55 242.65 268.48 234.84 271.91 226.56L279.97 207.1C283.87 197.68 288.52 189.07 294.07 180.58 315.31 148.12 347.65 141.58 378.91 122.08 376.97 134.19 376.99 145.75 377.06 157.91L377.21 185.31C374.81 240.34 314.06 279.8 263.76 265.75ZM352.15 142.58C342.5 146.82 333.45 152.56 324.91 158.75L322.46 159.88 314.97 166.25C288.19 189.02 281.57 227.53 264.35 248.52L254.69 258.66C258.68 261.47 263.43 262.05 267.85 263.22 271.05 264.07 274.26 263.65 277.08 263.62 278.8 265.27 281.14 264.47 283.32 264.49 289.85 264.53 295.62 263.55 301.86 262.11 338.34 253.71 367.76 224.54 370.03 186.27L369.94 152.68C369.94 150.51 371.28 147.98 369.9 145.93L369.17 151.65C367.93 161.31 367.17 170.66 365.9 180.17L364.36 191.7 362.88 191.65 364.67 176.87C366.01 165.8 366.51 155.01 369.24 144.65 369.41 144 370.07 142.84 369.41 141.8 368.74 141.54 367.5 142.5 367.06 143.36 366.95 142.39 367.16 141.89 366.69 140.97 365.31 141.93 364.87 143.44 364.06 144.63L353.09 160.8C352.53 160.64 352.2 160.56 351.85 160.09L364.75 141.22C358.91 146.47 354.12 152.56 349.62 158.76 349.12 158.66 348.81 158.52 348.47 158.07L351.79 153.43 360.57 142.37C355.61 145.5 351.59 149.31 347.64 153.18 346.96 153.02 346.67 152.77 346.47 152.22 349.42 149.35 352.82 146.54 356.19 143.78L362.85 138.35 356.77 141.31C355.24 139.44 353.19 141.79 352.16 142.57ZM143.29 142.07C148.38 146.88 152.46 152.79 156.64 158.42 156.39 159.02 156.14 159.34 155.62 159.4 150.91 153.06 146.27 146.59 140.01 141.06L155.95 164.66C155.41 164.93 155.15 164.96 154.55 165.18 150.28 157.93 145.25 151.1 140.1 144.01 140.1 143.3 139.55 142.33 138.48 142.75 143.65 151.36 147.83 160.25 151.6 169.63 151.52 170.4 151.14 170.63 150.42 170.69 146.86 161.77 142.56 153.08 138.07 144.65 137.62 143.81 137.66 142.8 136.43 141.66 135.29 143.04 135.22 144.65 135.4 146.22 135.37 146.36 134.6 146 134.6 145.67 134.6 145.39 134.8 144.55 133.71 144.71 134.23 147.02 134.97 149.24 134.93 151.55L134.5 180.4C133.78 229.02 177.98 265.19 224.78 264.51 225.97 264.49 227.56 263.6 228.6 263.66 231.29 263.78 234.15 263.95 237.02 263.15 241.17 262.37 245.46 260.87 249.45 258.58 247.73 256.55 246.5 255.11 244.96 254.05 245.43 253.36 245.01 252.45 244.01 253.19 243.53 250.68 241.26 250.3 240.3 249.53 235.8 243.27 232.17 236.57 228.79 229.37L216.26 202.64C209.87 189.01 201.42 176.98 190.49 166.95L179.43 158.61C172.19 153.15 164.39 148.46 155.79 144.4 154.73 143.9 153.74 141.96 151.87 142.87 156.53 145.73 160.68 148.95 164.78 152.12 164.68 152.73 164.43 153.04 163.83 153.15 158.48 148.86 152.36 144.79 146.68 140.9 145.8 140.3 144.67 138.5 143.15 139.26 142.36 139.65 141.85 139.22 140.85 138.95 141.62 140.51 142.35 141.2 143.28 142.08Z" fill="#AA2530"/><path d="M196.72 268.26C174.87 271.91 151.66 275.38 135.34 291.43 129.07 297.59 123.98 304.61 120.72 312.53 129.44 300.85 139.52 292.06 152.45 286.83L153.2 288.14C138.25 294.2 126.52 305.36 118.59 319.21 128.36 309.32 139.85 302.33 152.58 296.83 153.35 296.81 153.66 297.19 153.88 297.94 142.51 302.81 128.48 310.46 120.56 320.11 129.78 315.08 139.15 311.61 148.99 308.64 149.66 308.84 149.99 309.16 150.32 309.84 140.4 312.82 130.76 316.06 121.8 321.54 128.56 319.69 134.63 317.78 141.47 317.02L156.79 315.33C157.13 315.88 157.6 316.06 158.1 316.65L152.78 317.33C143.48 318.52 134.53 319.19 125.96 322.11 134 321.26 141.28 320.24 149.28 321.11 155.31 321.76 161.2 321.6 166.81 321.66L166.81 322.99C166.81 322.99 148.42 322.54 148.42 322.54L134.9 322.23C134.62 322.36 134.53 322.63 134.53 322.72L141.4 323.24 149.8 323.89 169.64 325.97C201.75 329.34 232.97 304.85 244.62 275.91L248.86 265.34C249.21 264.58 249.88 263.76 251.02 263.94 249.68 286.62 227.96 314.15 208.67 324.68 195.27 331.99 179.82 334.25 164.77 331.96L142.91 328.63 139.16 328.17C135.54 327.72 131.77 327.75 128.17 328.15L134.16 328.97 141.34 329.49 161.86 333.09C173.29 335.1 184.13 334.27 195.88 332.02 183.92 338.51 170.43 339.8 156.97 337.5L126.13 332.22C124.27 331.9 122.79 332.06 122.05 333.25 116.43 332.73 110.01 332.98 103.56 333.8 106.64 328.54 108.34 323.66 110.57 318.79 111.07 318.98 111.5 319.08 111.78 318.97 111.42 319.11 117.51 306.32 121.25 299.79 134.6 276.48 157.68 267.06 183.62 263.56L196.72 268.3Z" fill="#AA252F"/><path d="M109.94 241.76 96.62 240.6C76.97 239.75 58.27 244.76 41.9 255.49 34.87 260.93 27.62 265.35 22.23 272.98 33.42 262.07 46.7 254.26 62.08 250.11L62.56 251.64C51.01 254.81 40.22 259.99 30.86 267.59 27.22 270.54 23.51 272.87 20.84 276.81 33.27 268.77 46.29 263.14 60.24 259.85 60.14 260.3 59.97 260.74 60.41 261.43 46.69 264.94 33.25 269.87 21.12 279.16 33.6 275.91 45.58 272.53 58.47 271.13L58.93 272.59C45.89 273.96 33.33 276.79 20.51 281.92 33.62 280.76 46.26 280.68 59.25 281.38L59.62 282.9 41.92 282.37C34.1 282.14 26.74 282.92 19.37 284.02 26.23 284.55 32.56 284.75 39.17 286.23L67.18 292.49 67.09 293.96 50.09 290.18C43 288.6 36.14 287.28 29.09 286.06 27.62 285.81 26.02 285.2 24.25 286.18 33.14 287.57 41.4 290.99 50.26 294.19L72.85 302.35C87.54 306.75 102.52 306.84 117.24 303.27L113.39 312.43C109.04 314.44 104.29 314.48 99.42 314.51 82.38 314.61 66.89 309.86 51.75 302.49 44.28 298.85 37.34 295.08 29.16 293.46L51.18 303.75C64.8 310.81 78.85 315.12 94.13 316.25 72.97 319.77 50.98 308.41 32.89 299.54 31.52 298.87 30.1 297.74 28.86 299.05 20.22 295.27 10.82 292.07 2.13163e-14 291.41L15.55 270.87C16.59 271.38 17.2 270.9 17.87 270.17L23.33 264.2C42.74 242.98 68.81 233.04 97.79 233.78L109.94 241.76Z" fill="#AB262E"/><path d="M68.53 122.66C68.3 123.39 68.37 124.1 69.25 124.14 83.75 124.85 97.63 128.66 109.99 136.13L111.32 141.85C111.48 142.56 111.44 143 110.72 143.51 100.05 136.98 88.32 131.81 75.45 130.61 80.49 132.52 85.48 133.72 90.35 135.86 90.33 136.67 90.02 137.06 89.47 137.26 76.46 131.7 62.22 129.2 48.09 129.44 62.01 132.26 74.87 135.65 86.82 142.21 86.82 142.96 86.61 143.41 86 143.62 74.42 137.4 61.66 133.27 47.87 131.45 59.49 136.58 70.43 141.7 80.49 148.76 80.5 149.19 80.33 149.51 80.1 149.48L78.88 149.62C69.16 142.91 58.53 137.06 46.63 133.34 58.08 140.29 68.39 147.91 77.86 156.84 77.66 157.54 77.45 157.85 76.99 158.21 67.43 149.15 57.23 141.03 44.99 134.84L53.85 142.5C62.29 149.8 68.76 158.62 75.06 167.15 74.7 167.64 74.35 167.8 73.89 168.09 74.11 167.76 73.94 167.53 73.58 167.68 65.59 157.24 57.47 147.03 46.92 138.66L55.3 148.82C62.28 158.44 67.58 168.75 73.71 178.66 72.92 178.93 72.57 178.48 71.87 178.43 64.4 165.6 57.4 152.13 46.7 140.99 58.19 157.28 63.08 174.42 72.68 191.74 90.9 224.61 122.43 241.13 157.86 248.48 159.94 249.52 162.92 251.25 164.89 253.72 137.7 253 105.22 238.64 85.66 220.85 75.11 211.26 67.04 199.89 61.36 186.89L49.42 159.55C46.89 153.76 43.95 148.52 40.38 143.28 39.31 141.71 38.43 139.98 36.19 140.32 32.97 135.46 29.39 130.89 24.8 126.29 39.68 123.24 54.08 121.99 68.54 122.64Z" fill="#AC2832"/><path d="M484.36 265.5C486.26 266.35 487.82 268.85 489.24 270.77L504.36 291.16C494.09 292.08 485.69 294.46 477.14 298.51 475.94 299.08 474.83 299.78 473.73 299.8 473.44 299.8 472.97 299.78 472.68 299.07L448.48 310.42C439.61 314.58 419.68 319.01 410.28 316.19 422.7 315.49 434.6 312.91 446.19 307.34L474.88 293.54C466.6 295.07 460.33 299.19 453.18 302.45 440.73 308.12 428.4 313.66 414.66 314.35L403.39 314.91C399.18 315.12 395.25 314 391.45 312.47L387.75 304.1C387.32 303.82 387.31 303.26 387.88 302.86 405.14 307.78 423.05 306.48 439.96 299.94L459.78 292.29C467.22 289.42 474.5 287.4 482.12 285.98 476.87 285.55 472.01 286.54 467.06 287.63L441.28 293.29C441.39 292.81 441.5 292.38 441.06 291.7L455.98 288.28C464.47 286.33 472.52 285.11 481.74 284.02 473.45 282.32 464.83 281.99 456.09 282.37L445.76 282.82 445.4 281.31C459.27 281.33 472.85 280.39 486.27 282.78 474.43 277.48 462.47 274.87 450.35 273.19L450.18 271.74C461.98 273.44 473.14 276.26 485.19 279.94 474.23 271.89 461.75 266.37 449.11 262.69 449 262.23 449.29 261.77 449.47 261.95 449.71 262.2 450.26 262.43 450.73 261.57 463.09 265.16 474.79 270.86 485.39 277.89 482.5 273.93 479.11 271.71 475.65 268.86 466.18 261.06 455.54 255.62 444.15 252.29 444.27 251.56 444.56 251.21 444.61 250.8 459.07 254.86 471.34 262.54 482.64 272.58 474.12 262.51 463.45 255.32 451.83 249.17 434.68 241.22 416.06 238.81 397.24 241.34 396.85 240.56 397.46 239.96 398.52 239.38L408.33 234.01C413.42 233.06 418.59 234.08 423.81 234.67 442.11 236.71 459.46 243.81 473.01 256.02L479.71 262.06C481.37 263.56 482.58 264.72 484.35 265.51Z" fill="#AC2830"/><path d="M466.8 143.31C465.39 142.86 464.41 143.22 463.62 144.5 446.02 173.27 444.58 200.4 413.35 225.56 397.2 238.58 378.27 247.31 358.01 251.52L341.53 253.44C343.5 250.85 345.75 249.02 348.48 248.23 366.1 245.12 382.74 238.2 397.97 228.39 412.8 218.83 424.25 206.26 432.75 190.79L444.54 166.14C447.96 159 450.87 151.99 455.56 145.53 454.92 145.09 454.23 145.51 453.84 146 447.66 153.67 442.76 161.86 437.98 169.93 437.36 169.87 436.99 169.64 436.75 169.14 442.81 159.09 448.59 148.85 456.46 140.1 457.29 140.51 457.31 140.16 457.53 140.01 458.15 139.59 458.37 138.85 458.09 138.54 457.72 138.14 457.05 138.13 456.99 138.34L456.46 140.1C457.15 137.81 441.69 154.04 435.99 161.58 435.46 161.5 435.03 161.35 434.72 160.79 442.07 151.1 450.14 142.37 459.85 134.93 450.84 139.11 443.46 145.01 435.99 151.09 435.21 150.98 434.97 150.67 434.7 150.12 442.4 143.71 450.34 138.1 458.68 133.43 446.77 136.94 436.56 142.51 426.95 148.88 425.97 148.41 425.82 148.7 425.58 148.82 425.35 148.92 425.07 148.59 424.96 148.3 435.13 141.28 445.7 136.44 457.69 131.6 443.97 132.97 430.7 137.01 418.52 143.44 418.05 142.93 417.81 142.64 417.15 142.43 428.42 136.02 440.74 133.01 453.47 130.08 438.3 129.18 423.62 132.67 410.79 139.12 410.65 138.42 410.63 137.96 410.54 137.54 417.02 134.16 423.94 132.39 430.93 129.94 417.78 131.46 405.73 136.5 394.57 143.39 393.73 142.65 393.82 141.86 394.01 140.91L394.99 136.06C405.23 130.04 416.26 125.51 428.17 124.59L447.12 123.11C457.8 122.28 468.8 124.51 480.15 126.3 474.71 131.88 470.52 137.33 466.82 143.32Z" fill="#AC2831"/><path d="M318.91 42.19C319.35 48.66 322.73 55.43 326.31 61.6L338.98 83.44C347.39 99.52 349.84 118.11 346.21 135.97 345.82 137.91 342.79 138.49 341.55 139.05 347.27 111.59 339.23 94.31 325.47 71.6 320.59 63.55 317.27 55.48 314.37 46.91 315.3 56.1 319.07 64.24 322.97 72.12L321.76 72.57C318.32 65.58 315.13 58.47 313.59 50.59 313.13 48.23 313.51 45.83 312.31 43.49 311.73 50.91 312.75 58.54 315.29 65.71L313.9 66.11C311.26 58.32 311.01 47.69 310.92 39.24L308.92 48.76 308.74 67.83 309.19 69.39 307.79 69.72C306.46 59.39 306.93 48.01 310.01 37.83 305.33 46.07 302.3 54.99 301.49 64.6 301.3 66.9 300.79 68.87 300.83 70.9L299.43 70.9C299.4 69.32 299.97 67.8 300.06 66.01 300.57 55.92 303.82 46.71 307.86 38.03 300.39 47.1 295.05 56.8 292.65 67.42L291.26 67.45C293.54 57.24 298.25 48.31 304.72 39.28 298.31 44.5 293.77 50.67 289.61 57.51 279.76 73.72 279.24 93.6 286.74 110.89L289.63 117.53 286.27 120.3 279.8 111.59C273.68 96.69 274.26 80.4 280.05 65.31 284.04 54.91 290.88 46.39 298.98 38.8 300.37 37.5 300.92 35.89 301.71 34.95 305.8 30.11 311.58 26.67 317.46 22.91 316.9 30.22 318.5 35.97 318.92 42.17Z" fill="#AC2632"/><path d="M201.94 33.4C201.58 35.64 203.89 36.56 205.23 38.13 226.51 56.64 235.8 86.13 224.4 112.27L218.7 120.15 215.35 117.34C226.27 96.26 226.48 71.72 211.75 52 207.63 46.48 203.67 41.43 198.24 37.3 206.73 47.59 212.78 59.05 214.42 71.71L213.05 71.88C211.49 59.78 205.63 48.7 197.81 39.16 201.62 49.24 205.38 59.3 204.66 69.36L203.93 69.65C203.31 68.27 203.53 67.02 203.38 65.3 202.58 56.07 200.02 47.33 195.79 39.21 196.47 44.11 197.81 48.42 197.79 53.37L197.74 63.22 196.24 62.72C196.5 55.74 196.95 48.94 194.51 42.01 194.46 50.33 193.82 58.47 191.06 66.09L189.67 65.88 192.25 54.7C192.77 52.43 193.52 49.58 192.32 47.7 191.92 47.95 190.87 47.67 191.03 47.39 191.23 47.03 191.8 46.22 191.16 44.92L190.06 48.46C187.58 56.43 184.21 64.06 179.46 71.6 174.16 80.04 169.43 88.13 166.07 97.56 161.42 110.62 160.27 124.2 162.95 137.39 162.78 137.51 162.53 137.85 162.75 138.71 160.35 138.69 158.9 137.42 158.41 134.78 154.7 115.18 158.78 94.92 168.98 77.92L179.5 60.39C183.57 53.62 186.1 46.63 187.63 39.11 187.95 37.56 188.13 35.63 187.39 34.36 187.98 30.81 187.79 27.27 187.79 22.99 193.21 26.26 197.59 29.88 201.95 33.39Z" fill="#AC2733"/><path d="M140.07 56.9C140.06 57.06 139.95 57.79 140.17 57.93L141.68 58.83C151.13 63.41 159.4 69.41 167.06 77.23 166.54 79.39 165.2 80.81 164.36 82.36 159.6 75.87 153.43 70.95 146.63 66.52 142.7 64.54 139.46 61.75 135.02 60.5 143.68 66.71 151.49 73.34 157.31 81.9 156.84 82.1 156.55 82.13 156.13 82.19 148.97 72.53 139.52 64.5 128.99 58.98 137.32 67.01 144.56 74.68 149.66 84.06L148.42 84.63C143.32 75.95 137.12 67.98 128.68 61.6 133.7 69.55 138.78 76.26 141.91 84.62L140.61 85.28C137.3 76.92 132.75 69.33 126.79 62.39 130.32 69.53 133.33 76.18 135.32 83.39L134.03 84.11C132.18 77.55 130.13 71.01 126.11 65.14 127.54 71.78 129.8 77.51 129.62 84.27 129.61 84.75 130.21 85.25 130.35 85.49L128.96 85.82C128.94 81.23 126.86 71.25 124.66 66.54 126.46 76.22 126.47 85.09 125.4 94.81L124.87 99.67 123.52 99.74C124.88 89.28 125.89 78.41 123.54 67.92 123.58 78.6 123 88.16 120.42 98.25 114.97 119.62 114.04 138.22 124.77 157.28 126.05 159.55 125.4 162.72 125.1 165.69 117.16 154.85 111.86 142.3 110.83 128.47 109.3 107.97 118.83 90.72 118.45 69.51 118.44 68.85 118.43 68.33 118.09 68.11 117.84 67.95 117.39 68.01 117.08 68.07 117.1 60.75 115.67 53.76 113.27 46.28L133.24 53.84 140.09 56.9Z" fill="#AD2A34"/><path d="M387.61 68.01C386.68 75.59 387.58 83.28 389.23 91.26L392.71 108.14C396.84 128.15 392.75 148.22 380.36 164.52 379 161.74 379.3 158.88 380.48 156.66 387.13 144.12 390.56 129.66 387.76 115.16L383.95 95.42C382.26 86.69 381.25 78.51 381.68 69.34 379.7 71.69 380.38 74.39 380.23 77.2 379.9 83.34 380 89.08 380.77 94.77 380.42 95.02 380.04 95.49 379.44 95.65 378.49 88.68 377.92 81.52 379.1 74.7L380.3 67.78C380.14 67.54 379.87 67.36 379.68 67.32L376.57 82.12 376 87.04 374.6 87.04C374.6 87.04 375.12 84.72 375.12 84.72 375.44 77.71 377.23 71.38 379.44 64.38 374.83 70.86 372.38 78.26 370.44 85.64L369.11 85.15C371.22 76.52 374.97 68.94 379.36 60.83 373.2 67.57 368.42 75.36 364.92 83.58 364.33 83.65 363.97 83.29 363.85 82.72 367.11 75.08 371.61 68.32 376.82 60.88 368.48 66.94 362.54 74.93 357.17 82.99 356.54 82.92 356.26 82.65 356.14 82.22 361.59 73.48 368.38 65.99 375.77 58.97 365.14 64.66 356.69 72.24 349.52 80.83 349.14 80.67 348.87 80.67 348.34 80.53 353.69 72.7 361.28 67.09 369.11 60.97 357.81 65.49 348.17 72.46 340.68 81.65 339.77 81.52 337.32 78.42 338.08 77.41 345.83 68.39 355.51 62.65 365.73 57.8 365.99 57.67 366.71 57.58 366.86 57.24 366.98 56.98 366.97 56.54 366.91 56.15L391.68 46.37C389.2 53.71 388.48 60.85 387.6 68.01Z" fill="#AC2832"/><path d="M220.56 347.08C221.12 346.97 221.41 346.96 221.8 346.54 226.45 353 232.38 358.28 237.93 364.08L244.85 371.3 234.02 354.08C234.17 353.31 234.53 353.08 234.92 352.97L248.16 373.3C246.23 366.61 243.57 361.27 241.16 355.43 241.66 355.25 242.04 354.97 242.13 354.25L249.4 371.93 246.28 354.45 247.59 353.61 251.39 370.78 251.78 362.35 253.16 362.01 253.3 373.49C253.51 373.49 253.76 373.36 253.88 373.1L254.02 369.34 257.21 353.79 258.67 353.59 254.47 373.46C255.74 372.96 255.65 371.62 256.04 370.67L263.04 353.33 264.55 353.26 256.9 373.05 270.41 352.27C270.88 352.47 271.17 352.49 271.78 352.53L259.56 371.89 273.49 357.3C277.63 352.96 281.61 348.97 284.7 344.17L286.39 344.09C282.82 350.18 277.66 355.23 272.41 360.42 269.99 362.81 267.16 364.63 265.83 368L283.84 354.32C292.07 348.07 298.15 339.86 300.18 330.06 301.85 331.01 303.7 331.74 305.45 333.35 299.55 353.33 286.06 358.98 272.75 368.5L266.23 373.16C264.77 374.2 264.64 375.69 264.22 376.58 260.64 380.82 255.59 384.37 252.45 390.17 249.35 385.36 246.19 382.06 242.65 378.65 242.79 376.39 241.03 374.61 239.02 373.6L224.51 363.56C212.54 355.28 202.61 347.25 199.41 332.67L204.78 329.87C206.45 339.43 212.1 347.39 219.9 353.4L237.4 366.87C237.97 367.31 238.22 369.18 239.96 368.36L231.71 359.84C227.64 355.63 223.79 351.57 220.55 347.1Z" fill="#A5252E"/><path d="M262.79 16.11C263.93 18.05 265.05 20.09 267.01 21.98 274.69 29.37 283.62 38.26 288.85 47.37 288.18 48.97 286.82 50.24 285.62 51.46 279.94 42.53 273.22 34.51 265.09 27.19L277.17 44.84C277.17 45.4 276.78 45.77 276.25 45.84L260.23 23.79 270.24 44.68C270.14 45.39 269.78 45.75 269.32 45.64L257.87 22.59C257.79 21.78 257.61 20.49 256.52 20.41L263.18 41.72C263.12 42.59 262.76 42.95 262.25 42.86L255.51 22.98C255.64 30.79 257.55 37.56 258.66 44.8L257.28 45.12 253.66 23.12C252.81 24.26 253.17 25.55 253.17 26.7L251.77 26.9C251.77 24.98 252.09 23.12 251.35 21.01L248.31 40.04 246.97 40.23 250.1 20.25C248.3 20.33 249.05 21.87 248.88 22.29L247.99 20.44C246.35 21.08 245.32 21.32 244.61 22.42L239.09 30.92C235.23 36.87 230.6 41.94 227.42 47.78 226.96 47.57 226.74 47.58 226.23 47.49 230.32 39.65 236.26 33.14 241.6 24.91 238.54 26.94 236.83 30.22 234.13 32.93 228.3 38.77 223.43 45.11 219.44 52.14L215.91 47.68 221.96 38.92 243.44 15.63C244.06 14.96 244.09 14.65 243.38 13.81 246.85 9.75 249.51 5.59 252.59 0.03 255.23 6.62 259.72 10.92 262.8 16.14Z" fill="#AC2931"/><path d="M296.73 172.15C294.64 146.08 278.72 127.35 263.03 106.64 262.1 105.42 261.79 103.16 260.03 103.55 266.64 114.67 272.74 125.18 278.06 136.04 277.78 136.58 277.49 136.81 276.79 136.95 271.38 125.82 265.08 114.81 258.21 103.67L266.78 129.58C266.62 130.36 266.24 130.64 265.47 130.65L256.34 103.23C256.22 102.88 256.51 102.51 255.99 102.09 255.53 101.72 256.09 101.3 256.2 101.07 256.51 100.41 255.76 99.6 255.36 99.13 254.18 97.73 252.96 100.73 251.76 100.3 252.27 98.72 250.5 98.96 251.11 100.21L245.68 132.04 244.09 132.19 249.54 100.93 238.3 133.15 236.73 133.27C239.83 122.78 243.51 112.46 247.51 101.63L238.42 117.25C234.42 124.13 230.61 130.56 227.45 137.6 226.77 137.55 226.39 137.36 226.18 136.75L242.68 105.78 223.72 131.29C214.91 143.14 209.79 156.6 208.21 171.14L201.67 164.87C204.53 143.25 217.04 125.15 231.44 108.83 239.36 99.85 246.71 91.21 252.37 80.39L256.69 87.76C265.5 102.82 283.94 117.04 295.35 140.32 299.22 148.22 301.91 156.02 302.71 164.78L296.71 172.14Z" fill="#AD2532"/><path d="M450.34 273.18C462.47 274.86 474.43 277.46 486.26 282.77 472.83 280.37 459.25 281.31 445.39 281.3L416.68 281.27C402.64 280.6 389.36 277.26 375.94 273.25 359.46 268.33 343.75 264.51 326.6 260.83L398.43 267.49 441.76 272 450.33 273.19Z" fill="#FEFEFD"/><path d="M59.24 281.37C46.25 280.68 33.61 280.76 20.5 281.91 33.32 276.78 45.88 273.96 58.92 272.58L101.57 268.08C127.41 265.35 152.58 261.89 178.24 260.59L162.65 264.16 120.56 275.35C108.24 278.63 96.15 281.42 83.32 281.4L59.23 281.36Z" fill="#FEFEFD"/><path d="M445.75 282.81 456.08 282.36C464.82 281.98 473.44 282.31 481.73 284.01 472.51 285.09 464.46 286.32 455.97 288.27L441.05 291.69C429.43 294.36 417.72 296.17 405.63 294.34 396.12 292.9 383.95 291.72 376.15 285.66 365.93 277.71 357.06 270.15 343.98 266.99 367.92 270.65 393.62 282.77 418.12 282.79L445.74 282.81Z" fill="#FEFEFD"/><path d="M67.17 292.48 39.16 286.22C32.55 284.74 26.22 284.55 19.36 284.01 26.73 282.91 34.09 282.13 41.91 282.36L59.61 282.89 85.43 282.83C109.22 282.77 134.31 271.57 157.91 267.5 146.71 272.01 136.26 277.73 128.08 287.02L117.6 290.46C101.02 295.91 83.75 296.18 67.17 292.48Z" fill="#FEFEFD"/><path d="M449.09 262.68C461.74 266.36 474.21 271.88 485.17 279.93 473.12 276.25 461.97 273.43 450.16 271.73L442.15 270.58 355.73 261.39 331.87 258.77 370.4 257.74 420.68 257.94C430.51 257.98 439.98 260.02 449.09 262.68Z" fill="#FDFEFC"/><path d="M58.46 271.13C45.57 272.53 33.59 275.91 21.11 279.16 33.25 269.86 46.68 264.94 60.4 261.43 67.89 259.51 75.42 258.33 83.42 257.89 104.51 256.74 125.24 257.2 146.41 258.24 155.28 258.68 163.42 257.92 172.3 259.15L105.76 265.97 58.45 271.13Z" fill="#FEFEFD"/><path d="M265.49 130.65C276.12 162.55 278.51 200.86 263.45 231.41L255.31 247.92C260.29 225.06 264.28 202.99 264.71 179.73 265.03 162.6 262.93 146.28 260.09 129.89L255.33 102.44C255.07 101.62 255.35 100.98 256.21 101.07 256.1 101.31 255.54 101.72 256 102.09 256.52 102.51 256.23 102.88 256.35 103.23L265.48 130.65Z" fill="#FDFDFC"/><path d="M244.11 132.2C238.69 163.26 238.65 194.16 244.71 225.28L248.98 247.22 241.32 231.56C227.02 202.34 227.84 163.21 238.33 133.16L249.57 100.94 244.12 132.2Z" fill="#FDFDFC"/><path d="M258.53 130.08C260.68 142.58 262.14 154.89 262.8 167.79 264.14 194.01 259.63 222.3 253.35 247.22L253.21 130.46 253.52 100.93 258.53 130.08Z" fill="#FDFDFC"/><path d="M76.98 158.23C98.35 178.47 113.55 202.45 133.89 220.45 137.02 223.22 139.08 227.12 141.01 231.42 125.91 222.92 113.09 212.48 101.47 200.19 91.51 189.65 83.35 178.39 75.05 167.17 68.75 158.64 62.27 149.82 53.84 142.52L44.98 134.86C57.21 141.05 67.41 149.17 76.98 158.23Z" fill="#FDFCFA"/><path d="M434.7 160.79 417.25 183.81C402.74 202.95 385.06 219.11 364.04 231.38 365.66 227.88 367.22 224.22 369.7 221.81 374.66 216.99 379.39 212.59 383.96 207.27L413.11 173.31C420.17 165.08 427.73 157.81 435.97 151.1 443.43 145.02 450.82 139.12 459.83 134.94 450.13 142.38 442.05 151.11 434.7 160.8Z" fill="#FCFCFB"/><path d="M276.8 136.95C284.18 152.13 288.34 169.16 286.93 186.76L280.65 200.1 271.63 222.04C268.29 230.15 264.82 237.9 259.58 245.09 260.37 240.64 262.62 237.16 264.48 233.12 279.94 199.43 278.22 164.12 266.79 129.59L258.22 103.68C265.09 114.82 271.39 125.83 276.8 136.96Z" fill="#FDFDFC"/><path d="M236.75 133.28C227.17 165.66 224.58 197.84 239 230.28L246.19 246.46C242.2 242.15 239.81 237.17 237.54 231.82L228.53 210.69 218.22 187.57C215.64 170.35 220.58 152.95 227.47 137.6 230.63 130.56 234.44 124.13 238.44 117.25L247.53 101.63C243.53 112.47 239.86 122.78 236.75 133.27Z" fill="#FDFDFC"/><path d="M251.78 100.3 251.78 130.57C251.78 130.57 251.61 150.36 251.61 150.36L251.31 244.87C248.56 239.6 248.33 234.4 247.22 229.08 239.9 194.1 239.75 166.98 245.7 132.05L251.13 100.22C250.52 98.97 252.29 98.73 251.78 100.31Z" fill="#FDFEFD"/><path d="M156.79 315.31 141.47 317C134.64 317.75 128.56 319.67 121.8 321.52 130.76 316.04 140.4 312.8 150.32 309.82L173 303.01C195.28 296.32 215.39 285.25 233.04 269.85 234.41 268.66 236.69 268.63 238.4 268.85 223.54 286.99 205.82 302.91 183.89 310.48 175.09 313.52 166.01 314.29 156.8 315.3Z" fill="#FDFDFC"/><path d="M356.49 310.42C365.62 313.12 374.57 316.12 382.42 321.48 371.66 318.16 361.27 316.14 349.99 315.84L348.51 315.19C312.76 314.42 288.91 295.69 266.5 268.92 267.78 268.71 270.32 268.71 271.42 269.65 289.18 284.99 308.56 296.26 330.86 302.85L356.5 310.42Z" fill="#FDFDFC"/><path d="M456.44 140.1C448.57 148.85 442.79 159.1 436.73 169.14L426.02 186.91C409.48 214.35 382.64 232.89 352.69 243.65 355.48 241.01 357.52 237.37 360.83 235.44 383.44 222.3 402.8 205.44 418.64 184.48L435.97 161.57C441.67 154.03 457.12 137.8 456.44 140.09Z" fill="#FCFCFA"/><path d="M73.88 168.1C93.7 196.19 112.51 217.44 142.87 234.56 146.9 236.84 149.46 240.78 153.42 244.25 122.7 232.61 97.36 216.88 79.67 188.31L73.7 178.67C67.56 168.76 62.27 158.45 55.29 148.83L46.91 138.67C57.46 147.03 65.58 157.24 73.57 167.69 73.93 167.54 74.1 167.77 73.88 168.1Z" fill="#FDFCFA"/><path d="M444.13 252.29C455.51 255.61 466.16 261.06 475.63 268.86 479.09 271.71 482.48 273.93 485.37 277.89 474.77 270.86 463.07 265.16 450.71 261.57 421.97 253.22 392.06 256.08 362 256.45L335.83 256.77C337.67 254.95 340.17 255.18 342.31 255.2 350 255.29 357.1 254.14 364.55 253.16L394.99 249.17C411.7 246.98 428.39 247.69 444.14 252.29Z" fill="#FDFDFC"/><path d="M60.23 259.85C46.28 263.14 33.26 268.77 20.83 276.81 23.5 272.87 27.21 270.54 30.85 267.59 40.21 259.99 51 254.81 62.55 251.64 75.02 248.21 87.69 247.66 100.88 248.53 117.99 249.65 134.4 252.22 151.34 254.79 157.91 255.79 164.1 254.47 170.63 256.66L134.52 256.15C109.38 255.8 84.79 254.06 60.23 259.85Z" fill="#FDFEFC"/><path d="M148.99 308.62C139.15 311.59 129.78 315.06 120.56 320.09 128.47 310.44 142.5 302.79 153.88 297.92 161.65 294.6 169.56 292.43 177.87 290.34 194.2 286.23 209.27 279.78 223.66 270.93 225.45 269.83 228.01 270.07 230.13 270.31 213.01 284.7 193.61 295.14 172.27 301.58L148.99 308.61Z" fill="#FCFDFB"/><path d="M355.64 300.01C366.59 305.2 376.66 311.81 385.11 320.88 376.43 315.62 367.39 312.06 357.94 309.25L332 301.54C313.73 296.29 297.17 287.58 282.01 275.99 279.52 274.09 277.05 273.01 275.32 270.41 277.46 270.29 279.87 270.04 281.29 270.92 295.94 280.06 311.36 286.73 328.06 290.88 337.72 293.28 346.95 295.89 355.64 300.01Z" fill="#FCFDFB"/><path d="M348.48 248.24C348.48 247.9 348.57 247.13 349.17 246.92 382.45 234.79 410.06 217.11 428.52 185.92L437.98 169.94C442.76 161.86 447.67 153.67 453.84 146.01 454.23 145.53 454.92 145.1 455.56 145.54 450.87 152.01 447.95 159.01 444.54 166.15L432.75 190.8C424.25 206.27 412.8 218.84 397.97 228.4 382.75 238.22 366.11 245.13 348.48 248.24Z" fill="#FAFCFA"/><path d="M78.87 149.64C89.66 157.09 99.66 166.01 107.98 176.75L126.79 201.05C130.11 205.34 130.18 212.23 132.92 217.2 123 208.49 115.69 199.21 107.69 189.7 98.01 178.19 88.57 166.96 77.85 156.86 68.38 147.93 58.07 140.31 46.62 133.36 58.52 137.08 69.16 142.93 78.87 149.64Z" fill="#FCFCF9"/><path d="M71.86 178.44C77.06 187.36 82.48 196.17 89.48 204.42 107.33 225.48 131.43 238.15 156.77 247.19 157.39 247.41 157.65 248.25 157.85 248.48 122.42 241.13 90.89 224.61 72.67 191.74 63.07 174.42 58.18 157.28 46.69 140.99 57.4 152.13 64.39 165.6 71.86 178.43Z" fill="#FBFBFA"/><path d="M434.68 150.12C426.21 157.17 418.54 164.44 411.27 172.9L385.34 203.05C381.19 207.87 377.58 212.43 372.23 216.36L377.88 201.41 397.69 175.39C405.82 164.7 416.03 156.11 426.93 148.88 436.55 142.51 446.75 136.95 458.66 133.43 450.31 138.11 442.38 143.71 434.68 150.12Z" fill="#FCFCFA"/><path d="M424.94 148.28C410.78 158.06 399.35 170.47 388.84 184.06L378.82 197.01 379.99 179.7C390.42 164.94 403.04 151.58 418.5 143.42 430.68 136.99 443.94 132.95 457.67 131.58 445.68 136.42 435.11 141.26 424.94 148.28Z" fill="#FCFDFB"/><path d="M86 143.63C101.83 152.14 114.38 164.81 124.62 180.05L126.19 197.07 110.17 176.7C101.56 165.75 91.62 156.59 80.49 148.77 70.44 141.71 59.5 136.59 47.87 131.46 61.66 133.28 74.42 137.4 86 143.63Z" fill="#FCFCFA"/><path d="M263.25 267.26C272.26 279.41 283.31 290.04 295.79 299.23 311.44 310.76 329.63 315.84 348.58 316.96 357.78 317.51 367.11 318.91 376.17 321.34 367.06 320.96 358.69 320.33 349.88 321.44L341.62 321.67C330.05 322 319.06 320.18 308.61 315.25 286.77 304.93 271.85 287.83 260.16 266.85 261.53 266.38 262.26 267.12 263.26 267.26Z" fill="#FDFDFA"/><path d="M166.81 321.64C161.2 321.58 155.3 321.75 149.28 321.09 141.28 320.22 134 321.24 125.96 322.09 134.53 319.17 143.49 318.5 152.78 317.31L158.1 316.63C184.86 315.35 203.92 305.33 223.69 287.11 229.11 282.12 233.69 277.09 238.21 271.33 239.78 269.33 241.12 266.78 244.09 266.66 239.42 277.38 232.49 286.06 224.67 294.4 217.97 301.54 210.65 307.22 202.28 312.12 191.32 318.53 179.37 321.77 166.81 321.64Z" fill="#FCFCF9"/><path d="M351.48 288.14C365.66 294.06 377.65 304.13 385.31 318.2 376.1 310.07 366.96 303.57 356.36 298.68 348.44 295.03 340.27 292.52 331.55 290.15 315.06 286.26 299.67 280.17 284.75 271.12 288.47 270.13 291.83 270.21 294.84 270.54 306.52 275.7 318.55 278.29 330.62 281.9L351.49 288.14Z" fill="#FCFCFA"/><path d="M152.58 296.82C139.85 302.32 128.36 309.31 118.59 319.2 126.52 305.36 138.25 294.2 153.2 288.13 162.08 284.53 171.32 282.42 180.91 280.22 191.12 277.87 200.35 274.61 210.03 270.55 212.9 269.51 216.96 270.58 220.48 271.01 206.6 279.35 192.1 285.01 176.65 289.09 168.23 291.31 160.37 293.46 152.59 296.83Z" fill="#FCFCFA"/><path d="M387.87 302.85C387.3 302.69 386.72 302.04 386.31 301.37L379.13 289.59C401.26 297.5 419.34 298.09 441.27 293.28L467.05 287.62C472 286.53 476.86 285.54 482.11 285.97 474.49 287.39 467.21 289.4 459.77 292.28L439.95 299.93C423.03 306.46 405.13 307.76 387.87 302.85Z" fill="#FDFEFD"/><path d="M67.08 293.95C86.48 298.27 106.23 296.85 125.59 289.5L117.23 303.27C102.51 306.84 87.52 306.75 72.84 302.35L50.25 294.19C41.39 290.99 33.14 287.57 24.24 286.18 26.01 285.19 27.61 285.8 29.08 286.06 36.13 287.27 42.99 288.6 50.08 290.18L67.08 293.96Z" fill="#FCFDFB"/><path d="M313.9 66.11 318.39 79.39C321.05 87.25 324.3 94.44 326.41 102.45 330.12 116.53 331.21 130.87 328.29 145.31 327.96 146.93 325.65 148.06 323.67 148.24 326.3 137.13 325.16 127.05 322.06 116.51 320.09 109.79 318.7 103.45 316.29 96.89 312.96 87.83 310.49 78.72 309.18 69.39L308.73 67.83 308.91 48.76 310.91 39.24C310.99 47.69 311.25 58.32 313.89 66.11Z" fill="#FCFBF9"/><path d="M314.75 153.71C319.72 139.72 317.3 121.95 304.13 112.96 307.8 116.92 311.53 121.44 312.64 126.99L311.18 127.15C309.59 122.36 307.22 117.69 302.97 114.22L305.95 122.08 304.53 122.03C303.76 119.9 302.9 117.7 301.62 115.85 301.51 115.21 301.07 113.93 302.68 113.47 302.59 113.12 301.92 112.24 300.72 111.89 298.72 115.21 294.93 115.73 292.03 113.3 289.74 111.38 289.35 108.02 290.56 105.11 291.42 103.05 293.69 100.84 296.82 100.37 303.28 99.41 309.85 102.35 314.12 107.67 323.43 119.28 325.99 135.46 320.58 149.47 319.66 151.86 316.67 152.88 314.75 153.71Z" fill="#AD2431"/><path d="M196.22 62.71C195.82 73.62 192.87 84.23 189.17 94.7 186.57 102.06 184.72 108.99 182.75 116.55 180.01 127.05 178.88 137.18 181.27 148.21 177.74 148.05 177.15 145.91 176.59 143.17 173.19 126.59 175.13 109.99 180.89 94.09L191.04 66.09C193.8 58.47 194.45 50.33 194.49 42.01 196.93 48.94 196.48 55.75 196.22 62.72Z" fill="#FCFBFA"/><path d="M201.86 112.96C202.44 112.02 201.76 111.6 201.14 111.95 200.37 112.4 199.88 112.27 199.79 112.94 190.17 121.27 185.9 133.89 188.4 146.79L190.38 154.28C188.55 153.4 185.98 152.28 184.78 150.67 182.9 146.86 182.46 142.69 182.01 138.48 179.71 117.1 194.61 96.39 209.28 100.64 212.95 101.7 214.88 104.62 215.08 107.81 215.29 111.17 213.34 114.54 209.75 115.16 208.07 115.45 206.71 114.78 205.85 113.69 205.22 112.9 205.88 111.56 206.01 110.37 205.47 109.7 204.03 110.33 203.68 110.95 203.37 111.51 202.94 111.75 203.25 112.99 202.54 112.57 202.2 112.7 201.86 112.95Z" fill="#AD2431"/><path d="M248.86 265.32 244.62 275.89C232.97 304.83 201.75 329.32 169.64 325.95L149.8 323.87 141.4 323.22 134.53 322.7C134.53 322.61 134.61 322.34 134.9 322.21L148.42 322.52 166.82 322.97C176.52 323.21 185.81 321.59 195 317.45 206.32 312.35 216.14 305.45 224.71 296.53 233.28 287.61 240.98 277.92 245.81 266.34 246.33 265.1 247.95 264.58 248.86 265.31Z" fill="#FBFCFA"/><path d="M196.72 268.26C200.16 267.69 203.73 269.07 207.81 269.86 189.96 277.97 169.85 279.8 152.45 286.83 139.51 292.06 129.44 300.84 120.72 312.53 123.98 304.61 129.08 297.59 135.34 291.43 151.66 275.38 174.87 271.91 196.72 268.26Z" fill="#FCFDFC"/><path d="M308.83 268.57 336.5 273.99C347.55 277.09 357.81 281.47 366.66 288.78 374.2 295.15 379.67 303.1 384.02 311.57 375.44 300.85 364.93 291.84 352.08 286.92 345.56 283.9 338.52 282.38 331.32 280.51 319.99 277.57 309.05 274.88 297.72 270.13 301.27 268.76 305.14 267.86 308.83 268.58Z" fill="#FBFCFA"/><path d="M189.65 65.87 181.76 87.22C174.8 106.06 170.92 124.23 175.32 144.79 172.95 144.42 171.21 143.39 169.32 142.01 164.93 125.88 166.18 109.07 172.85 93.64L183.75 71.66C187.51 64.09 190.89 56.16 192.29 47.68 193.5 49.56 192.75 52.41 192.22 54.68L189.64 65.86Z" fill="#FCFBFB"/><path d="M321.75 72.57 329.86 89.07C337.98 105.6 340.75 123.81 335.17 141.89 334.38 143.19 331.98 143.92 330.24 144.65 333.83 120.63 329.63 106.21 322.08 84.9L315.28 65.71C312.74 58.54 311.72 50.91 312.3 43.49 313.5 45.82 313.12 48.23 313.58 50.59 315.12 58.47 318.32 65.58 321.75 72.57Z" fill="#FBFAF8"/><path d="M251.79 362.35 251.4 370.78 247.6 353.61C241.21 324.69 244.01 303.09 251.61 274.23L251.78 362.35Z" fill="#FDFDFA"/><path d="M257.21 353.8 254.02 369.35 253.88 373.11C253.76 373.38 253.51 373.5 253.3 373.5L253.16 362.02 253.22 284.4C253.22 281.35 253.09 278.54 254.42 276.19 258.35 294.42 262.8 317.56 260.13 334.86L257.2 353.8Z" fill="#FCFDFA"/><path d="M89.47 137.27C99.13 141.39 107.58 147.45 115.79 154.24 118.53 159.49 121.49 164.18 124.81 169.17 124.84 171.84 125.04 174.23 124.42 177.1 114.6 162.61 102.01 150.56 86.83 142.22 74.88 135.66 62.01 132.27 48.1 129.45 62.23 129.2 76.47 131.71 89.48 137.27Z" fill="#FAFAF8"/><path d="M444.59 250.79C430.25 246.76 415.62 245.52 400.58 247.07L375.18 249.69 392.42 242.53C393.74 241.98 395.61 241.55 397.23 241.33 416.04 238.8 434.67 241.21 451.82 249.16 463.44 255.3 474.11 262.5 482.63 272.57 471.32 262.53 459.05 254.86 444.6 250.79Z" fill="#FCFCFB"/><path d="M263.04 353.34 256.04 370.68C255.66 371.63 255.75 372.97 254.47 373.47L258.67 353.6 260.24 344.7C262.58 331.39 263.12 318.22 261.09 304.71L258.31 286.2 267.04 302.05C269.94 308.82 270.12 316.87 269.95 324.31 269.72 334.63 266.75 344.16 263.04 353.34Z" fill="#FCFCF9"/><path d="M246.29 354.45 249.41 371.93 242.14 354.25C235.48 338.06 231.94 318.83 237.86 301.86L246.71 285.43 243.65 306.17C241.46 321.02 242.39 335.61 245.62 350.23L246.3 354.44Z" fill="#FCFCF9"/><path d="M417.13 142.41C402.43 150.77 390.18 162.41 380.53 176.57 379.61 173.58 380.05 171.15 380.04 168.51L389.74 153.73C396.69 148.01 403.2 142.91 410.76 139.1 423.59 132.64 438.27 129.15 453.44 130.06 440.72 133 428.4 136 417.12 142.41Z" fill="#FBFCFA"/><path d="M148.42 84.63C152.23 91.12 154.5 98.09 156.79 105.31 155.03 115.42 155.26 125.33 156.71 135.45 154.59 135.13 152.63 134.21 151.6 133.2L148.86 114.9C147.29 104.45 145.55 94.37 141.91 84.62 138.79 76.26 133.71 69.55 128.68 61.6 137.12 67.98 143.32 75.95 148.42 84.63Z" fill="#FCFBF9"/><path d="M109.94 241.76 112.78 242.16C118.44 245.3 124.03 247.18 129.82 249.76L102.96 247.09C89 245.7 75.48 246.48 62.07 250.1 46.69 254.25 33.41 262.06 22.22 272.97 27.61 265.34 34.86 260.92 41.89 255.48 58.27 244.76 76.96 239.74 96.61 240.59L109.93 241.75Z" fill="#FDFDFC"/><path d="M363.84 82.73C359.95 91.86 357.7 101.67 356.12 112.11L352.99 132.8C352.77 134.29 349.68 135.27 348.11 135.3 350.01 124.58 349.73 114.11 348.21 103.89 350.76 96.2 353.33 89.34 357.15 82.99 362.52 74.93 368.46 66.94 376.8 60.88 371.59 68.32 367.09 75.08 363.83 82.72Z" fill="#FBFBF9"/><path d="M215.34 117.34C214.89 116.96 213.22 116.27 214.01 115.35 218.04 110.67 217.44 104.11 212.41 100.08 214.59 92.35 216.01 84.14 214.97 76.12L214.4 71.71C212.76 59.05 206.72 47.59 198.22 37.3 203.65 41.43 207.61 46.49 211.73 52 226.46 71.72 226.25 96.26 215.33 117.34Z" fill="#FAFCFB"/><path d="M291.26 67.47C288.88 78.14 289.02 89.37 292.6 100.15 289.94 102.1 288.58 104.77 288.21 107.1 287.7 110.31 289.47 112.66 291.17 115.17 292.21 116.71 290.22 117.05 289.62 117.54L286.73 110.9C279.23 93.61 279.76 73.73 289.6 57.52 293.76 50.68 298.3 44.51 304.71 39.29 298.24 48.32 293.53 57.25 291.25 67.46Z" fill="#FAFBFA"/><path d="M296.73 172.15C293.85 175.68 291.47 179.36 288.96 183.59 289.06 166.29 285.21 150.6 278.07 136.04 272.75 125.19 266.65 114.68 260.04 103.55 261.8 103.15 262.11 105.41 263.04 106.64 278.72 127.36 294.64 146.08 296.74 172.15Z" fill="#FBFCFB"/><path d="M307.79 69.73C309.2 80.68 312.61 91.18 316.4 101.74 317.17 105 318.82 107.58 318.96 111.14 315.43 105.61 311.02 101.66 305.47 99.14 302.52 89.45 301 80.23 300.83 70.91 300.79 68.88 301.3 66.91 301.49 64.61 302.3 55 305.33 46.09 310.01 37.84 306.93 48.02 306.46 59.39 307.79 69.73Z" fill="#FCFCFA"/><path d="M226.21 136.76C219.38 151.31 215.48 166.92 215.83 183.45 212.78 178.1 208.02 173.19 208.24 171.15 209.82 156.61 214.94 143.15 223.75 131.3L242.71 105.79 226.21 136.76Z" fill="#FCFCFB"/><path d="M203.91 69.64C204.79 71.61 203.47 73.89 203.45 75.73 203.35 84.16 201.58 91.76 199.06 99.56 192.95 101.77 189.14 106.41 185.88 111.81 189.08 96.18 197.65 79.04 197.72 63.2L197.77 53.35C197.79 48.4 196.45 44.1 195.77 39.19 200 47.31 202.56 56.05 203.36 65.28 203.51 67 203.29 68.25 203.91 69.63Z" fill="#FCFCFB"/><path d="M241.16 355.42C243.57 361.26 246.23 366.6 248.16 373.29L234.92 352.96 227.72 339.14C224.86 331.95 222.8 323.13 224.88 315.68L235.43 303.81C231.42 323.34 233.88 337.75 241.16 355.41Z" fill="#FDFCFA"/><path d="M240.9 44.18 237.77 55.46C234.74 69.49 233.9 83.56 237.7 97.61 235.91 100.41 234.07 102.67 231.52 104.75 230.83 103.31 230.12 101.51 230.25 100.07 231.18 89.52 231.24 79.14 228.01 68.78 229.75 60.04 232.19 52.01 236.01 44.39L247.46 21.6 240.9 44.18Z" fill="#FCFCFB"/><path d="M213.03 71.87 213.58 76.11C214.56 83.74 213.07 91.33 211.18 99.23 207.47 97.95 204.49 98.27 200.68 98.72 204.5 88.66 205.26 79.22 204.64 69.34 205.36 59.28 201.6 49.22 197.79 39.14 205.61 48.68 211.47 59.77 213.03 71.86Z" fill="#FCFCFC"/><path d="M270.41 352.27 256.9 373.05 264.55 353.26C270.43 338.06 273.27 322.17 269.77 305L280.3 316.14C281.97 325.59 279.55 335.51 274.96 343.92L270.41 352.26Z" fill="#FCFCFA"/><path d="M299.43 70.9C299.63 80.23 300.86 89.37 303.8 98.83 300.03 97.99 297.24 98.3 293.9 99.17 290.45 88.4 290.33 77.69 292.65 67.44 295.05 56.82 300.39 47.12 307.86 38.05 303.82 46.72 300.57 55.94 300.06 66.03 299.97 67.82 299.39 69.34 299.43 70.91Z" fill="#FCFDFC"/><path d="M269.31 45.64C272.69 52.86 275.37 60.4 276.95 68.72 274.84 76.37 273.76 83.86 273.87 91.69 274.37 95.88 274.05 99.75 272.52 103.93L267.46 97.63C271.83 78.28 268.79 59.68 263.17 41.71L256.51 20.4C257.6 20.48 257.78 21.77 257.86 22.58L269.31 45.63Z" fill="#FBFBFA"/><path d="M369.1 85.16C367.13 93.22 366.05 101.33 365.17 109.78L363.23 128.38 354.61 132.67 357.27 115.15C358.95 104.11 360.77 93.34 364.92 83.59 368.42 75.37 373.2 67.58 379.36 60.84 374.97 68.95 371.22 76.53 369.11 85.16Z" fill="#FBFBFA"/><path d="M140.6 85.28C147.03 101.52 146.63 115.18 150.15 132.36 147.02 131.32 144 130.27 141.84 128.23 140.12 126.6 141.11 123.53 140.41 121.63 139.48 108.62 138.7 95.8 135.29 83.39 133.31 76.17 130.3 69.53 126.76 62.39 132.73 69.33 137.28 76.92 140.58 85.28Z" fill="#FCFCFA"/><path d="M262.24 42.86 264.39 50.55C268.53 65.42 269.68 80.75 266.26 96.04L260.61 89.69C262.5 74.5 260.93 59.73 258.65 44.8 257.54 37.56 255.64 30.79 255.5 22.98L262.24 42.86Z" fill="#FCFBFA"/><path d="M246.97 40.22 245.39 50.54C243.42 63.41 242.58 76.05 244.07 89.2 242.59 91.79 240.99 94.48 238.51 95.93 234.65 77.75 236.99 60.34 242.21 44.09L248.27 25.23C248.54 24.38 248.53 23.13 248.88 22.27 249.05 21.85 248.3 20.31 250.1 20.23L246.97 40.21Z" fill="#FCFBF9"/><path d="M374.59 87.05 374.52 116.51 373.94 122.81C370.9 124.7 368.24 126.36 364.68 127.36L366.45 112.5C367.54 103.35 368.17 94.28 370.44 85.64 372.38 78.26 374.83 70.86 379.44 64.38 377.23 71.38 375.44 77.72 375.12 84.72L374.6 87.03Z" fill="#FCFCFB"/><path d="M134.01 84.12C137.39 96.12 137.86 108.71 139.07 121.15 139.28 123.25 140.12 125.29 139.78 127.57L130.31 122.68 130.33 85.51C130.2 85.27 129.59 84.77 129.6 84.29 129.78 77.53 127.51 71.8 126.09 65.16 130.11 71.03 132.16 77.57 134.01 84.13Z" fill="#FCFCFA"/><path d="M234.02 354.08 244.85 371.3 237.93 364.08C232.37 358.28 226.44 353 221.8 346.54 217.16 340.08 214.35 333 213.6 324.8L222.34 317.79 223.15 327.82C224.61 337.54 228.99 346.06 234.02 354.07Z" fill="#FBFBF9"/><path d="M284.71 344.17C281.62 348.98 277.64 352.97 273.5 357.3L259.57 371.89 271.79 352.53C278.38 342.09 282.52 330.69 282.26 317.68L291.07 324.49C290.87 331.65 288.49 338.32 284.72 344.17Z" fill="#FBFBFA"/><path d="M123.5 99.74 122.69 106C120.92 119.64 120.4 133.3 125.14 146.24 126.47 149.87 125.67 153.92 124.75 157.29 114.02 138.23 114.95 119.62 120.4 98.26 122.98 88.17 123.56 78.61 123.52 67.93 125.87 78.42 124.86 89.29 123.5 99.75Z" fill="#FAFBFB"/><path d="M380.47 156.67C378.43 152.34 379.41 148.29 380.76 143.83 383.94 133.35 384.47 122.37 383.03 111.66L380.76 94.79C379.99 89.09 379.89 83.36 380.22 77.22 380.37 74.41 379.69 71.71 381.67 69.36 381.24 78.54 382.25 86.71 383.94 95.44L387.75 115.18C390.55 129.69 387.13 144.14 380.47 156.68Z" fill="#F8FAF9"/><path d="M341.55 139.04 337.27 140.99C341.41 124.13 340.14 106.85 332.44 91.28L322.96 72.11C319.06 64.23 315.29 56.09 314.36 46.9 317.27 55.48 320.59 63.54 325.46 71.59 339.22 94.3 347.26 111.58 341.54 139.04Z" fill="#F9F9F7"/><path d="M182.72 70.76 173.28 89.24C165.08 105.29 163.14 123.23 167.4 140.89 165.03 140.9 163.31 139.29 162.92 137.39 160.24 124.2 161.4 110.62 166.04 97.56 169.39 88.13 174.12 80.03 179.43 71.6 184.17 64.05 187.55 56.43 190.03 48.46 190.66 48.48 190.96 49.11 190.75 49.84 188.61 57.26 186.08 64.19 182.72 70.77Z" fill="#F7F9F7"/><path d="M251.77 26.88 251.6 75.84C251.59 79.88 247.88 83.78 245.36 86.8 243.59 72.01 245.62 58.21 247.69 44.23L248.31 40.03 251.35 21C252.09 23.11 251.78 24.97 251.77 26.89Z" fill="#FBFBF8"/><path d="M257.28 45.11C259.55 58.9 261.08 72.71 259.41 87.33 256.91 83.66 253.17 79.71 253.17 75.23L253.17 26.68C253.17 25.53 252.8 24.24 253.65 23.1L257.27 45.1Z" fill="#FBFBF9"/><path d="M220.56 347.08C223.79 351.55 227.64 355.61 231.72 359.82L239.97 368.34C238.22 369.16 237.97 367.29 237.41 366.85L219.91 353.38C212.1 347.37 206.46 339.41 204.79 329.85L212.26 325.64C213.33 334 216.1 340.91 220.57 347.08Z" fill="#FAFBFA"/><path d="M300.18 330.04C298.15 339.84 292.07 348.05 283.84 354.3L265.83 367.98C267.16 364.61 269.99 362.79 272.41 360.4 277.66 355.22 282.82 350.16 286.39 344.07 289.62 338.56 291.91 332.73 292.42 325.62L300.18 330.03Z" fill="#FBFCFB"/><path d="M128.94 85.83 129.11 121.77 123.54 118.92C124.98 127.28 126.27 134.97 125.73 143.35 122.15 134.17 121.67 124.1 122.95 114.23L124.84 99.68 125.37 94.82C126.44 85.1 126.43 76.23 124.63 66.55 126.84 71.26 128.91 81.24 128.93 85.83Z" fill="#FBFBFA"/><path d="M379.44 95.66 381.72 112.32C383.1 122.41 383.25 132.64 379.6 142.51 378.58 134.23 380.15 126.83 381.27 119.2 379.17 119.99 378.08 121.22 375.86 121.5L376 87.06 376.57 82.14 379.68 67.34C379.87 67.38 380.14 67.56 380.3 67.8L379.1 74.72C377.92 81.54 378.49 88.7 379.44 95.67Z" fill="#FAFAF9"/><path d="M156.13 82.19 161.03 90.6C159.18 94.54 158.54 98.24 157.23 102.1 155.2 95.18 152.63 89.52 149.67 84.06 144.57 74.69 137.34 67.02 129 58.98 139.53 64.5 148.97 72.53 156.14 82.19Z" fill="#FBFAF7"/><path d="M356.13 82.22C352.51 88.03 349.85 94.12 347.57 101.36L343.83 90.21 349.52 80.83C356.69 72.24 365.14 64.66 375.77 58.97 368.38 65.98 361.58 73.48 356.14 82.22Z" fill="#F8F9F7"/><path d="M263.78 265.78C263.42 265.88 263.08 266.08 263.01 266.4 262.96 266.64 263.05 266.98 263.25 267.25 262.25 267.11 261.52 266.38 260.15 266.84 271.84 287.82 286.76 304.92 308.6 315.24 319.04 320.17 330.03 321.99 341.61 321.66L349.87 321.43C350.06 322.05 350.57 322.4 350.82 322.86L346.51 322.93C306.41 327.07 275.13 299.04 257.58 265.32 257.4 265.09 256.48 264.78 256.3 264.7 256.12 264.62 255.77 265.11 256.01 265.49 255.32 264.93 254.11 263.9 254.56 262.55L263.77 265.77Z" fill="#BC8654"/><path d="M197.84 125.7C195.63 134.33 196.7 143.52 199.84 152.34 201.03 155.69 201.65 158.91 199.52 162.47 194.03 153.42 191.23 143.39 192.22 132.66L193.54 127C194.65 122.25 197.95 117.23 202.07 114.58L197.83 125.69Z" fill="#FBFCFB"/><path d="M311.18 127.16C314.92 138.43 311.58 151.17 305.37 162.75 304.22 161.2 303.51 158.77 303.9 157.22L307.78 141.83C308.77 134.81 308.29 128.25 305.95 122.08L302.97 114.22C307.23 117.69 309.59 122.36 311.18 127.15Z" fill="#FDFCFC"/><path d="M234.7 44.17C231.36 50.91 229 57.86 227.32 65.82 225.61 63.03 224.02 60.32 223.12 57.4 223.8 54.08 225.85 50.64 227.42 47.77 230.61 41.92 235.23 36.86 239.09 30.91L244.61 22.41C244.88 22.44 245.13 22.44 245.38 22.67L234.7 44.18Z" fill="#FBFBF9"/><path d="M276.25 45.84C278.69 49.2 280 53.12 281.87 57.16L278 65.59C276.54 63 276.58 60.61 275.62 58.21L270.23 44.68 260.22 23.79 276.24 45.84Z" fill="#FAFAF8"/><path d="M304.53 122.04C308.37 132.61 307.17 142.61 302.97 154.17L300.37 144.68C300.88 137.37 302.22 130.51 301.49 123.53 301.25 121.26 300.45 118.99 300.9 116.57 300.78 116.12 301.14 115.75 301.63 115.87 302.91 117.72 303.76 119.92 304.54 122.05Z" fill="#FCFAFA"/><path d="M204.03 115.82C204.18 117.25 203.48 119.27 203.41 120.68 203.04 128.69 203.29 136.45 204.68 144.66L201.58 153.95C198.43 144.25 197.02 134.8 199.19 125.68 200.1 121.86 201.75 118.26 203.94 115.01L204.02 115.81Z" fill="#FBFAF8"/><path d="M348.35 80.54 343.11 88.21C341.87 86.34 339.69 83.11 340.69 81.65 348.18 72.46 357.82 65.49 369.12 60.97 361.29 67.09 353.69 72.7 348.35 80.53Z" fill="#FAFBFB"/><path d="M164.36 82.36C163.42 84.1 163.15 86.37 161.42 87.95L157.31 81.91C151.49 73.35 143.68 66.73 135.02 60.51 139.46 61.76 142.7 64.54 146.63 66.53 153.43 70.96 159.6 75.88 164.36 82.37Z" fill="#F8F9F9"/><path d="M314.75 153.71C314.05 155.68 311.61 157.83 309.84 157.71 312.54 149.34 315.52 141.46 313.98 133.71L312.64 126.99C311.53 121.43 307.8 116.92 304.13 112.96 317.3 121.95 319.72 139.72 314.75 153.71Z" fill="#FAFBFA"/><path d="M200.41 113.67C196.59 116.92 193.93 121.51 192.31 126.28 188.81 136.58 190.92 147.69 195.45 158.79 193.38 158.04 190.91 156.3 190.38 154.28L188.4 146.79C185.91 133.89 190.17 121.27 199.79 112.94 200.29 112.91 200.64 113.27 200.41 113.67Z" fill="#F9FAFA"/><path d="M110.73 143.51C112.99 144.89 113.71 148.36 114.11 150.89 106.57 144.76 98.91 139.63 90.36 135.86 85.49 133.72 80.5 132.52 75.46 130.61 88.33 131.81 100.06 136.98 110.73 143.51Z" fill="#F5F6F6"/><path d="M410.52 137.52C403.78 141.03 397.69 145.26 391.38 150.45 391.61 147.63 392.36 144.71 394.54 143.37 405.71 136.48 417.75 131.44 430.9 129.92 423.92 132.37 416.99 134.14 410.51 137.52Z" fill="#F8F9F9"/><path d="M256.22 101.07C255.36 100.98 255.08 101.62 255.34 102.44L260.1 129.89 258.53 130.07 253.52 100.92 253.21 130.45 251.8 130.57 251.8 100.3C252.99 100.73 254.2 97.73 255.39 99.13 255.79 99.6 256.54 100.41 256.23 101.07Z" fill="#B03B3B"/><path d="M285.62 51.46C284.66 52.44 284.32 54.07 282.68 54.97L277.17 44.85 265.09 27.2C273.22 34.52 279.94 42.54 285.62 51.47Z" fill="#F5F8F6"/><path d="M226.23 47.48 221.95 55.69 219.43 52.12C223.42 45.09 228.29 38.76 234.12 32.91 236.82 30.2 238.53 26.92 241.59 24.89 236.26 33.13 230.31 39.63 226.22 47.47Z" fill="#F5F9F7"/><path d="M299.42 117.17C298.87 119.39 300.03 121.49 300.11 123.51 300.34 129.35 300.2 135.12 298.78 141.38 297.71 138.59 295.18 136.2 294.91 133.23 294.64 129.44 296.26 125.39 297.24 122.06L298.09 119.16 298.21 117.64C298.24 117.21 298.98 117.03 299.42 117.17Z" fill="#FDFDFD"/><path d="M206.37 117.83 208.85 126.5C209.39 128.4 210.22 131.09 210.1 133.27L205.89 141.64C204.24 134.45 204.84 127.64 204.77 120.7 204.76 119.33 205.8 117.96 205.55 116.42 205.99 116.85 206.15 117.04 206.38 117.83Z" fill="#FCFCFB"/><path d="M248.88 22.28C248.54 23.14 248.55 24.39 248.27 25.24L242.21 44.1C241.69 44.24 241.46 44.26 240.9 44.18L247.46 21.6 236.01 44.39C235.54 44.24 235.2 44.21 234.7 44.17L245.38 22.66C245.13 22.44 244.88 22.43 244.61 22.4 245.32 21.3 246.35 21.06 247.99 20.42L248.88 22.27Z" fill="#A7413D"/><path d="M258.97 249.28 252.13 256.11 246.6 250.05C248.66 249.14 250.7 248.81 252.36 248.04 254.72 249.6 256.89 248.68 258.96 249.28Z" fill="#AB7C45"/><path d="M208.95 117.78 214.93 125.34C213.93 126.74 213.58 129.29 211.91 130.75L209.99 125.7C208.96 123 208.68 119.99 207.59 117.18 208.03 117.4 208.45 117.9 208.96 117.78Z" fill="#F8F8F7"/><path d="M192.3 47.69C190.9 56.16 187.51 64.09 183.76 71.67 183.23 71.74 182.86 71.38 182.73 70.76 186.09 64.18 188.62 57.25 190.76 49.83 190.97 49.1 190.67 48.47 190.04 48.45L191.14 44.91C191.78 46.21 191.21 47.02 191.01 47.38 190.85 47.66 191.91 47.94 192.3 47.69Z" fill="#A94238"/><path d="M296.63 118.6 295.49 122.07C294.67 124.57 294.29 127.34 293.36 130.26 291.17 128.84 291.03 125.93 290.06 124.64L296.2 117.85C296.4 117.94 296.79 118.14 296.62 118.61Z" fill="#FBFCFC"/><path d="M214.93 125.34 208.95 117.78C210.4 115.14 217.19 120.94 217.15 122.01 217.09 123.51 215.48 124.57 214.93 125.34Z" fill="#AA2537"/><path d="M296.2 117.84 290.06 124.63C289.6 124.01 287.68 123.75 288.3 122.1 288.66 121.15 292.57 116.95 294.24 116.82 294.91 116.77 295.86 117.19 296.21 117.85Z" fill="#A02131"/><path d="M202.08 114.59C197.96 117.24 194.66 122.25 193.55 127.01 192.97 127.02 192.64 126.58 192.31 126.29 193.93 121.51 196.59 116.93 200.41 113.68 200.94 113.7 201.49 113.24 201.86 112.97 201.78 113.49 201.54 114.02 202.08 114.6Z" fill="#AD463A"/><path d="M203.94 115.02C201.75 118.28 200.1 121.87 199.19 125.69L197.83 125.69C197.83 125.69 202.07 114.59 202.07 114.59 202.09 114.27 202.91 114.01 203.28 114.05 203.59 114.09 203.91 114.74 203.94 115.01Z" fill="#B04838"/><path d="M209.98 125.7C209.74 126.19 209.4 126.51 208.84 126.5L206.36 117.83C206.72 117.6 207.01 117.25 207.57 117.18 208.66 119.98 208.95 122.99 209.97 125.7Z" fill="#B33E32"/><path d="M300.89 116.57C300.44 118.99 301.25 121.26 301.48 123.53L300.11 123.53C300.03 121.49 298.86 119.4 299.42 117.18 299.33 116.92 299.31 116.67 299.47 116.22 299.77 115.38 299.99 116.31 300.89 116.58Z" fill="#B14B31"/><path d="M205.54 116.42C205.79 117.96 204.75 119.33 204.76 120.7L203.41 120.68C203.48 119.26 204.18 117.25 204.03 115.82 204.94 115.56 205.16 116.05 205.54 116.42Z" fill="#B24536"/><path d="M298.09 119.16 297.24 122.06C296.68 122.18 296.06 122.16 295.5 122.06L296.64 118.59 298.1 119.15Z" fill="#BA4C3D"/><path d="M275.38 106.68C273.71 105.57 273.64 103.49 275.02 102.06 276.02 103.69 275.79 105.07 275.38 106.68Z" fill="#F6F5F9"/><path d="M229.47 107.38C229.14 106.01 229.13 104.8 229.66 103.86 230.17 104.88 229.96 105.51 230.36 105.98 230.74 106.42 230.36 107.2 229.47 107.38Z" fill="#F2EEDB"/><path d="M233.06 250.96C232.41 251.15 231.92 251.42 231.68 251.88 231.44 252.34 231.5 252.9 231.83 253.3 233.12 254.05 233.81 254.09 234.22 254.54 234.89 255.28 235.19 256.42 234.75 257.67L235.97 258.88 233.95 259.18C233.22 259.29 232.96 262.51 232.7 262.22 232.92 262.46 233.76 263.05 234.33 262.9L235.89 262.48C236.29 262.37 236.79 262.51 237.02 263.16 234.15 263.96 231.29 263.79 228.6 263.67 213.13 262.98 198 260.28 183.82 252.63 159.44 239.47 143.15 215.91 140.02 188.75L141.42 188.79C144.91 216.82 162.69 241.19 188.77 253.28 201.87 259.35 216.1 262.41 230.81 260.89 197.05 256.05 166.56 236.85 152.85 204.29 149.31 195.88 147.33 187.6 145.53 179.08L147.03 178.92C148.61 186.2 150.2 193.36 152.99 200.6 161.66 223.08 178.68 240.63 200.71 250.38 211.16 255.01 221.66 258.91 233.71 258.4 200.1 246.55 172.54 226.12 159.26 192.87L150.4 170.7C151.12 170.64 151.5 170.41 151.58 169.64L159.24 188.71C163.16 198.45 167.44 207.74 174.11 215.98 183.99 228.18 195.66 238.43 209.61 245.66 217.14 249.56 223.92 253.78 232.82 255.12 211.21 245.22 193.28 229.64 180.31 209.12 174.24 199.52 169.18 190.06 163.44 180.31L154.54 165.19C155.15 164.97 155.4 164.94 155.94 164.67L170.48 189.41C177 200.5 183.08 211.29 191.27 221.28 201.19 233.37 213.25 243.03 227.32 250.01 209.06 236.6 197.76 222.41 188.36 202.36L181.42 187.56C176.43 176.92 170.19 167.3 162.43 158.85 163.08 158.74 163.38 158.43 163.47 157.85 170.78 165.68 177.02 174.45 181.7 184.48L189.72 201.69C199.17 221.96 213.55 239.89 233.05 250.95Z" fill="#C0985E"/><path d="M150.41 170.69 159.27 192.86C172.55 226.11 200.11 246.54 233.72 258.39 221.67 258.9 211.17 255 200.72 250.37 178.69 240.62 161.67 223.07 153 200.59 150.21 193.35 148.62 186.19 147.04 178.91 144.99 167.87 142.28 156.82 137.97 146.17 137.36 145.99 137.19 145.36 137.33 145 137.43 144.75 137.68 144.51 138.06 144.66 142.54 153.08 146.85 161.78 150.41 170.7Z" fill="#FCFDFB"/><path d="M362.88 191.66C356.49 233.48 317.72 263.75 274.95 261.22 287.64 258.4 299.01 255.65 310.04 249.2 337.44 234.44 352.36 212.48 358.47 182.67 360.86 170.99 363.65 159.51 367.45 147.91 367.82 146.77 367.78 145.16 369.24 144.67 366.51 155.03 366.01 165.81 364.67 176.89L362.88 191.67Z" fill="#FCFCFA"/><path d="M351.84 160.09C337.39 181.24 326.74 206.91 309.86 225.16 300.71 235.05 290.72 243.81 278.33 249.43 286.7 242.52 294.2 236.26 300.74 227.93 308.8 217.67 314.96 206.69 320 194.57 326.55 178.81 335.52 165.06 347.64 153.18 351.58 149.31 355.6 145.5 360.57 142.37L351.79 153.43 348.47 158.07C341.44 167.89 335.37 178.33 330.18 189.42 331.57 189.41 331.91 188.17 332.39 187.3 337.73 177.45 343.11 167.76 349.63 158.76 354.12 152.56 358.91 146.47 364.76 141.22L351.86 160.09Z" fill="#FCFCFA"/><path d="M343.23 151.04C330.93 160.45 320.7 172 313.72 186.2L300.78 212.55C293.5 227.36 283.46 239.33 271.05 250.82 286.47 242.99 297.85 230.4 306.85 216.49 312.04 208.47 315.84 200.21 319.64 191.42 326.07 176.55 335.05 163.35 346.46 152.22 346.66 152.78 346.95 153.02 347.63 153.18 335.51 165.07 326.54 178.81 319.99 194.57 314.96 206.69 308.79 217.67 300.73 227.93 294.19 236.26 286.7 242.51 278.32 249.43 290.71 243.81 300.7 235.05 309.85 225.16 326.73 206.91 337.37 181.24 351.83 160.09 352.19 160.57 352.51 160.65 353.07 160.8L342.68 177.92 322.43 211.83C309.73 230.73 292.54 246.01 272.2 254.95L270.83 253.49C270.49 253.15 269.84 252 269.17 252.37L266.75 253.72C266.88 252.97 266.6 252.33 266.02 252.21 265.52 252.1 265.15 252.25 264.25 251.73 265.05 251.33 265.44 251.11 265.69 250.19 265.79 249.83 266.15 249.32 265.19 249.05 274.18 240.6 281.44 230.42 286.7 218.88L295.7 199.13C300.92 187.68 306.96 177 315.09 167.22 315.68 167.1 315.77 166.43 314.96 166.23L322.45 159.86 324.9 158.73C308.47 174.4 300.19 192.18 291.34 212.9 285.72 226.05 278.1 237.14 269 248.85 282.55 239.21 292.27 226.14 299.3 211.8L311.99 185.91C319.22 171.16 330.13 159.19 342.97 149.48 343.07 150.12 343 150.45 343.21 151.02Z" fill="#C49D62"/><path d="M155.61 159.4C160 165.31 163.73 171.73 167.39 178.43 170.18 182.55 171.29 187.33 175.28 191.09 170.18 179.55 164.06 168.42 156.63 158.41 152.45 152.79 148.37 146.87 143.28 142.06 143.95 141.31 144.43 141.65 145.17 142.32 151.43 147.66 157.15 153.1 162.43 158.85 170.19 167.3 176.43 176.93 181.42 187.56L188.36 202.36C197.76 222.41 209.06 236.6 227.32 250.01 213.25 243.03 201.19 233.37 191.27 221.28 183.07 211.29 176.99 200.5 170.48 189.41L155.94 164.67 140 141.07C146.27 146.6 150.9 153.06 155.61 159.41Z" fill="#FCFCFA"/><path d="M154.54 165.19 163.44 180.31C169.18 190.06 174.24 199.52 180.31 209.12 193.28 229.63 211.21 245.22 232.82 255.12 223.92 253.77 217.14 249.55 209.61 245.66 195.66 238.44 183.99 228.18 174.11 215.98 167.44 207.74 163.16 198.46 159.24 188.71L151.58 169.64C147.81 160.26 143.63 151.37 138.46 142.76 139.53 142.34 140.07 143.31 140.08 144.02 145.23 151.11 150.26 157.94 154.53 165.19Z" fill="#FCFCFA"/><path d="M353.19 169.74 344.92 190.05C338.75 205.21 330.26 218.61 317.78 229.63 305.3 240.65 291.01 249.44 274.98 254.84L273.22 255.59C272.67 255.83 272.42 255.04 272.22 254.95 292.56 246 309.76 230.73 322.45 211.83L342.7 177.92 353.09 160.8 364.06 144.63C364.49 144.53 364.71 144.75 364.8 144.99 365 145.54 364.46 145.85 364.26 146.2 359.81 153.94 356.42 161.8 353.19 169.73Z" fill="#FCFCFA"/><path d="M163.84 153.14C176.39 163.19 186.33 175.61 193.36 190.39L201.73 207.99C208.15 221.49 216.42 233.71 227.07 244.36L235.59 252.01C234.64 251.92 233.8 251.38 233.05 250.95 213.54 239.89 199.17 221.96 189.72 201.69L181.7 184.48C177.03 174.45 170.78 165.68 163.47 157.85 158.69 152.73 153.76 147.7 147.99 143.09 147.26 142.5 146.34 141.71 146.67 140.89 152.35 144.77 158.47 148.85 163.82 153.14Z" fill="#FCFCFA"/><path d="M356.19 143.79C352.81 146.55 349.41 149.35 346.47 152.23 335.06 163.36 326.07 176.56 319.65 191.43 315.85 200.22 312.04 208.48 306.86 216.5 297.86 230.41 286.48 243 271.06 250.83 283.47 239.34 293.52 227.37 300.79 212.56L313.73 186.21C320.71 172.01 330.93 160.46 343.24 151.05L354.92 142.9C355.64 141.95 357.17 142.56 356.2 143.8Z" fill="#FCFBF9"/><path d="M352.15 142.58 342.99 149.5C330.15 159.2 319.24 171.18 312.01 185.93L299.32 211.82C292.29 226.16 282.57 239.24 269.02 248.87 278.12 237.16 285.74 226.07 291.36 212.92 300.21 192.2 308.49 174.41 324.92 158.75 333.46 152.56 342.51 146.82 352.16 142.58Z" fill="#FBFBF9"/><path d="M179.45 158.6C190.29 168.85 198.99 180.84 205.25 194.64L215.76 217.8C220.88 229.1 227.59 238.82 236.01 248.69 222.77 241.14 210.4 221.95 203.92 208.65L194.7 189.7C187.52 174.95 177.58 161.99 164.8 152.11 160.7 148.94 156.55 145.73 151.89 142.86 153.77 141.95 154.75 143.89 155.81 144.39 164.41 148.45 172.21 153.13 179.45 158.6Z" fill="#FCFCF9"/><path d="M277.07 263.62C308.22 263.26 337.74 248.45 354.27 220.43 359.62 211.36 363.02 201.74 364.36 191.72L365.9 180.19C367.17 170.68 367.93 161.33 369.17 151.67L369.9 145.95C371.27 147.99 369.93 150.52 369.94 152.7L370.03 186.29C367.76 224.56 338.34 253.73 301.86 262.13 295.61 263.57 289.85 264.55 283.32 264.51 281.14 264.5 278.8 265.29 277.08 263.64Z" fill="#FBFBFA"/><path d="M135.4 146.23C136.7 157.46 138.52 168.83 139.07 180.55 139.21 183.43 139.74 186.28 140.03 188.75 143.16 215.91 159.45 239.46 183.83 252.63 198.01 260.28 213.14 262.98 228.61 263.67 227.57 263.61 225.98 264.5 224.79 264.52 177.99 265.2 133.79 229.04 134.51 180.41L134.94 151.56C134.97 149.25 134.24 147.02 133.72 144.72 134.81 144.55 134.62 145.39 134.61 145.68 134.61 146.01 135.38 146.38 135.41 146.23Z" fill="#FAFAF9"/><path d="M350.82 322.87 355.29 322.54 367.93 322.2C368.15 322.3 368.31 322.51 368.33 322.75L362.41 323.31 355.14 323.86 336.79 325.97C299.99 330.19 265.92 299.63 256.02 265.5 255.78 265.13 256.13 264.64 256.31 264.71 256.49 264.78 257.41 265.1 257.59 265.33 275.14 299.06 306.42 327.08 346.52 322.94L350.83 322.87Z" fill="#FCFCFB"/><path d="M358.47 182.67C352.36 212.49 337.44 234.44 310.04 249.2 299.01 255.65 287.65 258.4 274.95 261.22 317.72 263.75 356.49 233.48 362.88 191.66L364.36 191.71C363.02 201.74 359.62 211.36 354.27 220.42 337.74 248.44 308.22 263.25 277.07 263.61 274.25 263.64 271.04 264.06 267.84 263.21 268.27 262.33 269.61 262.41 271.12 262.71 272.28 261.99 270.77 261.37 270.37 261.7 270.16 261.87 270.36 260.71 270.73 260.75L272.02 260.9C272.49 260.29 272.26 259.49 272.09 258.92 286.98 258.41 300.89 253.09 313.82 245.33 329.03 236.21 341.25 223.36 348.93 207.34 352.99 198.85 355.45 190.07 357.22 181.16 356.97 181.47 357.04 181.9 357.41 182.19 357.66 182.38 358 182.69 358.48 182.67Z" fill="#BC9055"/><path d="M179.45 158.6 190.51 166.94C189.85 167.25 189.95 167.82 190.53 167.96 197.49 176.17 202.62 185.23 207.11 194.96L219.09 220.92C224.21 232.02 231.31 242.24 240.32 249.53 241.28 250.31 243.55 250.68 244.03 253.19 245.03 252.45 245.45 253.36 244.98 254.05L240.48 250.96C239.32 252.05 238.53 253.12 237.42 253.69 237.06 252.66 236.32 252.68 236.01 252.7 235.76 252.71 235.49 252.35 235.61 252.01L227.09 244.36C216.44 233.72 208.17 221.5 201.75 207.99L193.38 190.39C186.35 175.61 176.4 163.2 163.86 153.14 164.47 153.03 164.72 152.72 164.81 152.11 177.59 161.99 187.53 174.95 194.71 189.7L203.93 208.65C210.41 221.95 222.78 241.15 236.02 248.69 227.6 238.82 220.9 229.1 215.77 217.8L205.26 194.64C199 180.84 190.29 168.85 179.46 158.6Z" fill="#C7A164"/><path d="M240.31 249.53C231.3 242.24 224.2 232.02 219.08 220.92L207.1 194.96C202.61 185.23 197.47 176.18 190.52 167.96 189.94 167.83 189.85 167.25 190.5 166.94 201.43 176.97 209.88 189.01 216.27 202.63L228.8 229.36C232.17 236.56 235.81 243.26 240.31 249.52Z" fill="#FAF9F7"/><path d="M265.2 249.06C264.87 249.42 264.34 249.2 264.35 248.52 281.57 227.52 288.19 189.02 314.97 166.25 315.78 166.45 315.69 167.12 315.1 167.24 306.97 177.01 300.93 187.69 295.71 199.15L286.71 218.9C281.45 230.44 274.19 240.63 265.2 249.07Z" fill="#F8F9F8"/><path d="M265.2 249.06C266.15 249.33 265.8 249.83 265.7 250.2 265.45 251.11 265.06 251.34 264.26 251.74 265.16 252.27 265.53 252.12 266.03 252.22 266.61 252.34 266.89 252.98 266.76 253.73L269.18 252.38C269.85 252.01 270.49 253.16 270.84 253.5L272.21 254.96C271.04 255.47 269.69 255.72 268.49 256.75L270.13 257.23C270.39 257.31 270.22 258.13 269.97 258.24 269.53 258.22 268.76 258.07 268.58 259.05L272.09 258.93C272.26 259.51 272.49 260.3 272.02 260.91L270.73 260.76C270.36 260.72 270.17 261.88 270.37 261.71 270.77 261.39 272.28 262 271.12 262.72 269.61 262.42 268.27 262.34 267.84 263.22 263.42 262.05 258.67 261.47 254.68 258.66L264.34 248.52C264.34 249.2 264.87 249.43 265.19 249.06Z" fill="#AA733F"/><path d="M235.6 252.01C235.49 252.35 235.76 252.71 236 252.7 236.31 252.68 237.05 252.66 237.41 253.69 238.51 253.12 239.31 252.05 240.47 250.96L244.97 254.05C246.51 255.11 247.74 256.55 249.46 258.58 245.47 260.87 241.18 262.38 237.03 263.15 236.8 262.5 236.31 262.36 235.9 262.47L234.34 262.89C233.77 263.04 232.93 262.45 232.71 262.21 232.98 262.51 233.23 259.28 233.96 259.17L235.98 258.87 234.76 257.66C235.19 256.4 234.89 255.27 234.23 254.53 233.83 254.08 233.13 254.04 231.84 253.29 231.51 252.89 231.45 252.33 231.69 251.87 231.93 251.41 232.42 251.14 233.07 250.95 233.82 251.38 234.66 251.92 235.61 252.01Z" fill="#AA7743"/><path d="M138.06 144.66C137.68 144.51 137.43 144.75 137.33 145 137.19 145.36 137.36 145.99 137.97 146.17 142.28 156.82 144.98 167.87 147.04 178.91L145.54 179.07C143.46 169.21 141.93 159.09 137.33 149.79 138.54 160.91 140.02 170.85 140.49 181.29 140.61 183.9 141.14 186.48 141.43 188.79L140.03 188.75C139.75 186.28 139.21 183.43 139.07 180.55 138.52 168.82 136.7 157.45 135.4 146.23 135.22 144.66 135.29 143.05 136.43 141.67 137.66 142.8 137.62 143.81 138.07 144.66Z" fill="#AB3937"/><path d="M369.24 144.67C367.79 145.15 367.83 146.77 367.45 147.91 363.65 159.51 360.86 170.99 358.47 182.67 357.99 182.69 357.65 182.38 357.4 182.19 357.03 181.9 356.97 181.47 357.21 181.16 359.62 169.04 362.74 157.33 366.9 145.26 361.66 153.33 357.91 161.91 354.43 170.57 353.84 170.55 353.47 170.28 353.18 169.75 356.41 161.82 359.8 153.95 364.25 146.22 364.45 145.87 364.99 145.55 364.79 145.01 364.7 144.76 364.48 144.54 364.05 144.65 364.86 143.46 365.3 141.96 366.68 140.99 367.16 141.92 366.94 142.41 367.05 143.38 367.49 142.52 368.73 141.56 369.4 141.82 370.06 142.86 369.4 144.02 369.23 144.67Z" fill="#A93B37"/><path d="M155.61 159.4C156.13 159.33 156.38 159.01 156.63 158.42 164.06 168.42 170.18 179.56 175.28 191.1 171.29 187.34 170.18 182.56 167.39 178.44 163.72 171.74 159.99 165.32 155.61 159.41Z" fill="#B98C57"/><path d="M349.61 158.77C343.1 167.77 337.72 177.46 332.37 187.31 331.89 188.19 331.56 189.42 330.16 189.43 335.36 178.34 341.43 167.9 348.45 158.08 348.79 158.53 349.1 158.66 349.6 158.77Z" fill="#BC8D54"/><path d="M146.69 140.9C146.36 141.72 147.27 142.51 148.01 143.1 153.77 147.71 158.7 152.73 163.49 157.86 163.4 158.44 163.1 158.75 162.45 158.86 157.17 153.11 151.45 147.67 145.19 142.33 144.45 141.67 143.98 141.32 143.3 142.07 142.37 141.19 141.64 140.5 140.87 138.94 141.86 139.21 142.38 139.64 143.17 139.25 144.7 138.49 145.82 140.29 146.7 140.89Z" fill="#A6473A"/><path d="M356.19 143.79C357.17 142.56 355.63 141.95 354.91 142.89L343.23 151.04C343.02 150.48 343.09 150.14 342.99 149.5L352.15 142.58C353.19 141.8 355.23 139.45 356.76 141.32L362.84 138.36 356.18 143.79Z" fill="#AC5349"/><path d="M384.02 311.56C384.29 311.77 385.19 312.51 385.18 313.13 384.96 314.09 384.26 313.53 384.04 313.13 383.72 312.53 383.52 312.21 384.02 311.57Z" fill="#FBFCFA"/><path d="M456.44 140.1 456.97 138.34C457.03 138.13 457.71 138.14 458.07 138.54 458.35 138.85 458.13 139.59 457.51 140.01 457.28 140.16 457.27 140.51 456.44 140.1Z" fill="#CAA5AB"/><path d="M201.86 112.96C201.49 113.23 200.93 113.69 200.41 113.67 200.64 113.27 200.29 112.91 199.79 112.94 199.88 112.27 200.37 112.39 201.14 111.95 201.76 111.59 202.44 112.02 201.86 112.96Z" fill="#C7995A"/><path d="M145.54 179.08C147.34 187.6 149.32 195.88 152.86 204.29 166.57 236.85 197.06 256.05 230.82 260.89 216.12 262.41 201.88 259.35 188.78 253.28 162.7 241.2 144.92 216.82 141.43 188.79 141.14 186.48 140.61 183.9 140.49 181.29 140.02 170.86 138.54 160.92 137.33 149.79 141.93 159.09 143.46 169.21 145.54 179.07Z" fill="#FCFCFA"/><path d="M354.43 170.57C349.66 182.44 345.41 194.41 338.97 205.86 324.8 231.08 297.08 250.56 269.96 258.23 270.21 258.13 270.38 257.3 270.12 257.22L268.48 256.74C269.68 255.7 271.04 255.46 272.2 254.95 272.4 255.04 272.65 255.83 273.2 255.59L274.96 254.84C291 249.44 305.06 240.85 317.76 229.63 330.46 218.41 338.72 205.21 344.9 190.05L353.17 169.74C353.45 170.28 353.83 170.54 354.42 170.56Z" fill="#C1985B"/><path d="M357.22 181.16C355.44 190.08 352.99 198.86 348.93 207.34 341.26 223.36 329.03 236.21 313.82 245.33 300.89 253.09 286.97 258.4 272.09 258.92L268.58 259.04C268.76 258.06 269.54 258.21 269.97 258.23 297.09 250.55 324.81 231.07 338.98 205.86 345.42 194.41 349.67 182.44 354.44 170.57 357.92 161.91 361.67 153.33 366.91 145.26 362.75 157.34 359.63 169.05 357.22 181.16Z" fill="#FCFCFB"/></g></svg>