<svg viewBox="0 0 512 121.03" xmlns="http://www.w3.org/2000/svg" xmlns:xlink="http://www.w3.org/1999/xlink" id="_レイヤー_1" overflow="hidden"><defs></defs><g id="_生成オブジェクト"><path d="M320.04 15.59 320.73 15.59C320.33 15.65 320.44 16.13 320.72 16.13L510.26 16.15C510.69 17.32 510.66 18.13 510.42 19.63L502.84 19.6 481.91 19.46 467.35 19.54C466.43 19.54 465.58 19.58 465.31 20.25 465.06 20.88 464.78 21.76 464.78 22.62L464.63 98.36C464.63 99.27 464.88 100.81 465.99 101.06L510.27 101.06C510.82 101.67 510.59 104.01 509.92 104.01L464.12 104.01C464.12 104.01 400.23 104.06 400.23 104.06L383.8 104.02 200.05 104.04 122.67 104.04C122.67 104.04 109.5 104.08 109.5 104.08L17.76 104.01 2.54 104.22C1.1 104.24 0.79 103.03 1.04 101.95 1.33 100.66 2.43 100.95 3.65 100.96L24.65 101.16C25.14 101.16 25.54 101.11 25.71 100.87 25.83 100.7 25.79 100.37 25.9 100.11L45.82 100.03 45.82 21C36.37 20.37 27.41 20.99 18.21 20.88L1.64 20.68C0.19 20.66-0.27 17.64 0.42 16.27L106.11 16.05C105.92 15.55 106.29 15.36 106.62 15.6 106.47 16.08 106.75 16.31 107.64 16.14L319.28 16.14C320.05 16.14 319.98 15.74 320.03 15.6ZM398.37 29.62 453.5 29.56 453.56 91.34 405.63 91.37C405.63 90.89 405.61 90.37 404.81 90.15L404.83 43.57 441.53 43.62 441.53 77.25C441.53 77.25 416.9 77.3 416.9 77.3L416.8 57.82 430.53 57.71 430.48 63.08 422.16 63.08C422.16 63.08 422.15 71.9 422.15 71.9L436.35 71.9C436.35 71.9 436.35 48.94 436.35 48.94L410.06 48.94C410.06 48.94 410.01 86.02 410.01 86.02L448.37 86.02C448.37 86.02 448.3 34.81 448.3 34.81L396.8 34.77 396.83 100.16 459.8 100.11C460.52 100.11 460.79 100 460.93 99.54 461.12 99.54 461.45 99.52 461.45 98.9L461.5 23.21C461.5 21.72 461.86 19.77 460.21 19.75L453.4 19.64 438.87 19.5 424.3 19.57C419.43 19.59 414.71 19.64 409.82 19.59L401.13 19.49C399.82 19.48 397.15 19.04 396.31 20.3 394.65 22.8 395.23 28.63 396.35 29.85 396.84 30.38 398.09 30.51 398.35 29.61ZM81.38 57.82 89.79 57.62 89.82 48.94 75.59 48.96 75.65 71.92 101.99 71.92C101.99 71.92 101.95 34.78 101.95 34.78L63.6 34.82 63.73 86.05 115.09 86.05C115.09 86.05 115.04 20.92 115.04 20.92L100.84 20.89 78.6 20.82 51.15 20.99 51.13 100.15 115.01 100.06 115.01 91.43C115.01 91.43 58.56 91.39 58.56 91.39L58.54 29.6 107.19 29.6C107.19 29.6 107.21 77.28 107.21 77.28L70.35 77.24 70.43 43.66 95.04 43.66C95.04 43.66 95.13 63.04 95.13 63.04L81.45 63.07 81.38 57.82ZM145.43 71.92 159.88 71.86 159.86 48.95 133.53 49.01 133.55 86.02 171.78 86.06 171.7 34.8 120.27 34.77 120.32 100.16 184.2 100.07 184.2 21.18C179.12 20.66 174.2 20.8 169.2 20.81L150.54 20.87 120.43 20.78 120.43 29.55C120.43 29.55 176.89 29.58 176.89 29.58L176.91 91.35 128.31 91.32 128.36 43.58 165.02 43.61 165.09 77.16 140.26 77.18 140.36 57.74 153.95 57.76 153.92 63 145.41 63.12 145.45 71.91ZM240.74 71.07 241.02 36.64C241.02 35.48 241.11 34.83 240.38 34.19 239.95 33.81 239.24 33.46 238.19 33.46L203.83 33.5C202.78 33.5 202.21 33.61 201.62 34.11 200.91 34.71 200.77 35.38 200.78 36.58L200.87 54.35 200.84 86.14C201.81 87.18 203.64 87.12 204.91 87.12L251.49 87.14C251.94 86.57 252.41 86.46 253.22 86.28L253.32 21.12C251.78 20.64 250.47 20.94 248.96 20.93L228.96 20.78 208.16 20.83 191.87 20.79 189.41 21.08 189.32 100.13 253.27 100.07 253.32 91.46 196.85 91.36 196.83 29.6 245.41 29.56 245.45 77.19 208.66 77.28 208.57 43.68 233.29 43.64 233.38 62.99 219.8 63.05 219.86 57.77 228.06 57.65 228.1 48.95 214 48.95C214 48.95 213.97 71.93 213.97 71.93L239.74 71.96C239.92 71.73 240.23 71.22 240.75 71.08ZM283.91 71.89 298 71.91 297.94 48.94 271.75 49.01 271.82 86.07 309.95 85.97 309.9 34.82 258.54 34.78 258.54 100.14C258.54 100.14 322.44 100.06 322.44 100.06L322.44 21.22C320.05 20.56 317.7 20.78 315.33 20.79L299.91 20.83 278.18 20.78 258.61 20.74 258.61 29.57C258.61 29.57 315.13 29.61 315.13 29.61L315.06 91.39 266.55 91.41 266.59 43.59 303.24 43.64 303.24 77.23C303.24 77.23 278.62 77.24 278.62 77.24L278.62 57.84C278.62 57.84 292.2 57.81 292.2 57.81L292.17 63.06 283.73 63.17 283.9 71.91ZM358.04 57.84 366.51 57.63 366.38 48.94 352.13 48.94C352.13 48.94 352.13 71.94 352.13 71.94L378.42 71.89 378.42 34.85C378.42 34.85 340.33 34.87 340.33 34.87L340.33 86.04C340.33 86.04 391.58 86.04 391.58 86.04L391.53 20.84 355.7 20.79 344.71 20.97C338.89 20.77 333.28 20.37 327.67 20.97L327.67 100.13C327.67 100.13 391.5 100.05 391.5 100.05L391.48 91.39 335.05 91.37 335.02 29.67 383.66 29.52 383.66 77.19C383.66 77.19 346.82 77.2 346.82 77.2L346.91 43.63 371.54 43.63C371.54 43.63 371.66 63 371.66 63L358.02 63.07 358.02 57.83Z" fill="#F5C55F"/><path d="M511.15 115.71C512.41 117.11 511.84 118.97 511.65 121.02L0.56 121.02C-0.19 119.35-0.21 117.32 0.61 115.71L317.78 115.75 511.15 115.71Z" fill="#F5C55F"/><path d="M511.63 5.36 0.57 5.36C-0.23 3.71-0.11 1.76 0.6 0L511.35 0C512.2 1.59 512.08 3.36 511.63 5.36Z" fill="#F5C55F"/><path d="M25.92 100.12C25.81 100.37 25.85 100.71 25.73 100.88 25.56 101.13 25.16 101.18 24.67 101.17L3.67 100.97C2.44 100.96 1.35 100.66 1.06 101.96 0.82 103.04 1.12 104.25 2.56 104.23L17.78 104.02 109.52 104.09 122.69 104.05 200.07 104.05C200.07 104.05 383.82 104.04 383.82 104.04L400.25 104.08 464.14 104.03 509.94 104.03C510.61 104.03 510.84 101.69 510.29 101.09L466.01 101.09C464.9 100.84 464.65 99.3 464.65 98.38L464.8 22.64C464.8 21.78 465.08 20.89 465.33 20.27 465.6 19.6 466.45 19.56 467.37 19.56L481.93 19.48 502.86 19.62 510.44 19.65C510.69 18.15 510.71 17.34 510.28 16.17L320.74 16.15C320.46 16.15 320.35 15.68 320.75 15.62L511.48 15.58C512.11 17.3 511.88 18.96 511.67 20.7L490.01 20.54 477.14 20.68C473.3 20.72 469.59 20.07 465.86 20.92L465.75 100.05 511.72 100.21 511.77 105.47 0.19 105.47C0.19 105.47 0.19 100.31 0.19 100.31L25.91 100.13Z" fill="#F5C55F"/><path d="M478.61 86.04 511.51 86.04C512.11 87.85 512.1 89.68 511.53 91.37L473.34 91.33 473.34 29.63C473.34 29.63 511.5 29.55 511.5 29.55 512.18 31.26 512.08 32.94 511.68 34.73L478.57 34.84 478.61 86.04Z" fill="#F5C55F"/><path d="M0.31 86.06 33.43 86.06C33.43 86.06 33.43 34.85 33.43 34.85L0.42 34.75C-0.04 33.31 0.04 31.98 0.32 29.63L38.6 29.59 38.62 91.35 0.37 91.42C-0.08 89.67 0.03 88.08 0.3 86.05Z" fill="#F5C55F"/><path d="M15.57 63.04 7.31 63.06 7.08 71.87 21.37 71.87C21.37 71.87 21.44 48.95 21.44 48.95L0.4 48.93C0.14 47.06 0.13 45.44 0.4 43.57L26.71 43.64 26.73 77.29 1.96 77.22 1.99 57.88 15.33 57.73 15.58 63.05Z" fill="#F5C55F"/><path d="M504.83 49.07 490.51 48.95 490.57 71.89 511.57 71.93C512.06 73.77 512.13 75.37 511.7 77.29L485.21 77.27 485.21 43.65C485.21 43.65 509.97 43.58 509.97 43.58L510.01 63.04 496.38 63.02 496.62 57.81 504.77 57.71 504.83 49.06Z" fill="#F5C55F"/><path d="M320.04 15.59C319.99 15.73 320.06 16.14 319.29 16.14L107.65 16.14C106.76 16.31 106.48 16.08 106.63 15.6L320.04 15.6Z" fill="#F5C55F"/><path d="M106.13 16.04 0.43 16.26 0.61 15.6 106.13 16.04Z" fill="#F5C55F"/><path d="M240.74 71.07 240.21 34.79 202.1 34.85 201.99 62.93 202.14 86.08 253.2 86.28C252.39 86.46 251.91 86.56 251.47 87.14L204.89 87.12C203.62 87.12 201.79 87.17 200.82 86.14L200.85 54.35 200.76 36.58C200.76 35.38 200.89 34.71 201.6 34.11 202.19 33.61 202.77 33.51 203.81 33.5L238.17 33.46C239.22 33.46 239.93 33.81 240.36 34.19 241.09 34.84 241.01 35.48 241 36.64L240.72 71.07Z" fill="#F5C55F"/><path d="M460.93 99.54 460.88 20.85 442.04 20.65 415.75 20.55C411.17 20.53 406.87 21.19 402.27 20.46 400.58 20.19 398.65 20.8 396.87 20.98L396.9 29.51C397.38 29.54 398.08 29.56 398.37 29.64 398.11 30.54 396.86 30.42 396.37 29.88 395.25 28.65 394.68 22.83 396.33 20.33 397.17 19.07 399.84 19.5 401.15 19.52L409.84 19.62C414.72 19.67 419.44 19.62 424.32 19.6L438.89 19.53 453.42 19.67 460.23 19.78C461.88 19.81 461.52 21.75 461.52 23.24L461.47 98.93C461.47 99.55 461.14 99.57 460.95 99.57Z" fill="#F5C55F"/></g></svg>