<?xml version="1.0" encoding="UTF-8"?>
<svg id="_レイヤー_1" data-name="レイヤー_1" xmlns="http://www.w3.org/2000/svg" version="1.1" viewBox="0 0 189.99 512">
  <!-- Generator: Adobe Illustrator 30.6.0, SVG Export Plug-In . SVG Version: 2.1.4 Build 109)  -->
  <defs>
    <style>
      .st0 {
        fill: #b85550;
      }

      .st1 {
        fill: #dd7b3b;
      }

      .st2 {
        fill: #ca8a33;
      }

      .st3 {
        fill: #9f1a08;
      }

      .st4 {
        fill: #d01211;
      }

      .st5 {
        fill: #c9983d;
      }

      .st6 {
        fill: #d7ae4d;
      }

      .st7 {
        fill: #e19c3e;
      }

      .st8 {
        fill: #b15b4d;
      }

      .st9 {
        fill: #b35853;
      }

      .st10 {
        fill: #f3d771;
      }

      .st11 {
        fill: #b75451;
      }

      .st12 {
        fill: #f2d9b0;
      }

      .st13 {
        fill: #be574f;
      }

      .st14 {
        fill: #a26e18;
      }

      .st15 {
        fill: #e7c160;
      }

      .st16 {
        fill: #ca942d;
      }

      .st17 {
        fill: #c0544b;
      }

      .st18 {
        fill: #cc9b42;
      }

      .st19 {
        fill: #a7300b;
      }

      .st20 {
        fill: #c2661b;
      }

      .st21 {
        fill: #f1d9b0;
      }

      .st22 {
        fill: #9f6915;
      }

      .st23 {
        fill: #ba5954;
      }

      .st24 {
        fill: #fae78e;
      }

      .st25 {
        fill: #bf601e;
      }

      .st26 {
        fill: #bc7524;
      }

      .st27 {
        fill: #bf872e;
      }

      .st28 {
        fill: #f4d672;
      }

      .st29 {
        fill: #b15754;
      }

      .st30 {
        fill: #cc812f;
      }

      .st31 {
        fill: #e38342;
      }

      .st32 {
        fill: #d4933f;
      }

      .st33 {
        fill: #f1d67b;
      }

      .st34 {
        fill: #e99652;
      }

      .st35 {
        fill: #ac6517;
      }

      .st36 {
        fill: #b05957;
      }

      .st37 {
        fill: #ba604c;
      }

      .st38 {
        fill: #945e10;
      }

      .st39 {
        fill: #b15e52;
      }

      .st40 {
        fill: #b85f51;
      }

      .st41 {
        fill: #e4bc56;
      }

      .st42 {
        fill: #efd172;
      }

      .st43 {
        fill: #d66f33;
      }

      .st44 {
        fill: #b15d4e;
      }

      .st45 {
        fill: #c4150e;
      }

      .st46 {
        fill: #b85652;
      }

      .st47 {
        fill: #f1d8af;
      }

      .st48 {
        fill: #d4a64d;
      }

      .st49 {
        fill: #af5855;
      }

      .st50 {
        fill: #cb7f32;
      }

      .st51 {
        fill: #e1c057;
      }

      .st52 {
        fill: #b25d50;
      }

      .st53 {
        fill: #ba5d4d;
      }

      .st54 {
        fill: #f6d977;
      }

      .st55 {
        fill: #b65c4f;
      }

      .st56 {
        fill: #9d2b0d;
      }

      .st57 {
        fill: #8d3400;
      }

      .st58 {
        fill: #ad340e;
      }

      .st59 {
        fill: #f1d9af;
      }

      .st60 {
        fill: #b85b4e;
      }

      .st61 {
        fill: #b17b24;
      }

      .st62 {
        fill: #d08837;
      }

      .st63 {
        fill: #a44c0d;
      }

      .st64 {
        fill: #945f10;
      }
    </style>
  </defs>
  <g id="_生成オブジェクト" data-name="生成オブジェクト">
    <path class="st36" d="M109.49,226.3c.2,1.63-.96,3.3-1.87,4.02-1.08.85-2.82.97-4.34.54-6.91-1.99-13.97-1.18-20.73.05-4.21.77-4.14-3.67-4.78-6.4-3.9-16.72-12.62-31.3-23.22-44.59-.73-.92-1.13-1.52-.47-2.49.32-.47,1.23-.59,2.08.23,10.12,9.73,17.31,21.58,23.26,34.4l1.74-25.47v-27.49c.02-13.2-1.86-25.86-3.14-38.47-.3-2.98,3.81-4.47,5.69-3.91,6.17,1.84,12.41,1.89,18.25.19.15-.85.39-1.69.84-2.56-6.59-1.99-13.22-1.58-19.83-.15-1.85.4-3.27-.8-4.09-1.84-1.36-1.72-.91-3.19-.63-5.36,4.17-33.02,4.28-66.32.08-99.39-.28-2.2-.86-3.33.23-5.08.63-1.01,2.04-2.93,4.02-2.47,7.4,1.73,14.52,1.77,22.07.06,2.76-.63,5.25,2.85,4.83,5.56-1.48,9.73-2.21,18.84-2.64,28.78-.99,22.88-.83,45.29,1.78,68.15,5.78-8.49,12.13-17.26,20.41-22.51.67-.42,1.32-.04,1.46.45s.09.81-.47,1.38c-9.78,10.14-17.62,21.95-21.82,35.55,1.19,2.42,1.36,5,.95,7.61-1.66,10.49-2.56,20.81-2.55,31.6l.03,38.42c0,10.6,1.61,20.69,2.87,31.19ZM82.22,229.4c7.69-1.44,14.97-1.87,22.38.1,1.95.52,3.73-1.86,3.44-3.72-2-12.86-3.01-25.47-3.02-38.52v-21.48c-.02-14.83.61-29.25,2.98-43.93.22-1.39-.96-2.71-1.62-3.75,2.39-9.61,7.62-17.69,12.95-26.42-4.25,3.2-6.52,7.98-9.57,12.09l-2.14,2.89c-2.54-19.71-3.22-41.47-2.6-61.27.42-13.41.77-26.3,2.97-39.48.27-1.6-.8-4.63-2.77-4.26-7.69,1.44-15.03,1.92-22.72-.12-1.01-.27-3.24,1.61-3.04,3.03,2.53,17.7,3.23,35.04,3.14,53.08-.08,17-.34,33.42-2.96,50.12-.28,1.78-.26,3.06.86,4.12s2.24.88,3.73.55c6.55-1.46,13.3-1.38,19.88.61l-.37,5.12c-6.92,1.92-13.94,1.57-21.27.05-1.09-.23-3.29,1.65-3.08,3.03,2.51,16.77,3.26,33.09,3.21,50.1-.05,15.81-.13,31.06-2.18,46.84-4.76-9.93-8.16-19.36-15.47-27.29,5.87,10.8,11.88,21.25,14.45,33.59.3,1.42-.18,5.48,2.82,4.91Z"/>
    <path class="st9" d="M64.42,438.01c-3.19-.03-6.22-1.02-8.8-2.62-8.68-5.39-16.21-12.15-22.65-20.06-.53-.65-.41-1.13-.28-1.46.95-2.35,17.97,4.11,24.59,7.08,3.48,1.56,6.13,3.66,9.5,6.23-1.16-6.69-7.48-15.97-5.91-17.45.46-.44,1.53-.18,2.13.74,7.48,11.58,11.58,24.53,16.35,37.55,2.93-30.82,2.79-60.71-1.18-90.71-.3-2.28-.47-4,.72-5.45,3.5-4.26,10.77,2.57,24.5-1.63,2.42-.74,6.46,1.31,6.03,4.6-2.3,17.9-3.22,35.44-3.15,53.67s.62,34.14,3.23,51.31c.39,2.55-2.5,5.55-4.92,4.85-7.55-2.2-14.49-1.82-22.13-.05-2.53.58-4.59-2.87-5.2-4.89l-7.7-25.77c-.88,2.41-2.07,4.09-5.13,4.06ZM103.29,462.9c1.48.41,2.85.21,3.74-.77.51-.57,1.19-1.55.99-2.85-2.3-14.42-3.04-28.72-3.02-43.37v-16.01c.02-15.36.8-30.32,3.05-45.29.18-1.2-1.17-2.22-1.76-2.7-.68-.55-1.94-.32-2.8-.08-6.92,1.93-13.88,1.3-20.95-.07-1.64-.32-3.44,2.04-3.2,3.58,2.44,15.59,3.21,30.67,3.26,46.47.05,17.67-.27,34.71-2.22,52.16-1.12-.83-1.29-2.07-1.68-3.16-4.06-11.19-7.42-22.45-13.17-32.73,3.75,10.87,7.24,21.22,10.64,32.17l3.2,10.32c1.85,5.98,8.75-1.87,23.96,2.33ZM61.25,435.44c.93,1.23,5.43,1.09,5.69-.87,1.29-9.61-16.89-15.05-26.63-18.09-1.01-.32-3.57-1.37-3.49.69,1.11,1.94,3.79,4.13,5.55,5.67l4.73,4.11c3.45,3,6.92,6.29,11.5,7.78.45-.52,1-.98,1.34-.83.4.18,1.04,1.19,1.3,1.54Z"/>
    <path class="st60" d="M126.8,193.48c.46,2.39,1.1,4.6,1.08,7.2l-.11,11.63-3.71,29.15c-.07.57-1.17.92-1.45.75-.38-.23-1.14-.66-1.45-1.37-5.51-12.72-14.05-33.42-13.55-45.66.19-4.57,3.18-9,7.52-10.07,3.44-.85,6.33,1.36,8.98,3.49-.22-3.09-.88-5.85.27-8.51,2.31-5.37,8.35-6.49,14.04-3.32-1.7-2.66-2.64-5.41-1.87-8.14,1.83-6.54,10.88-8.77,17.56-5.75,12.95,5.86,24.49,13.98,35.57,22.87l.31,1.18c.08.29-.64,1.29-1.12,1.24l-30.07-3.18c-5.16-.55-9.87-2.04-14.7-3.63,6.28,10.52,10.65,20.78,14.7,31.66l2.68,7.2c.28.75.4,1.54.18,1.95-.27.49-1.38.98-2.13.45-10.09-7.22-19.25-15.09-28.15-23.7l-4.59-5.45ZM183.17,185.89c.84.06,1.7-.61,2.18-.28.36.25,1.05.67,1.9.13-8.31-6.5-16.91-12.53-26.39-17.71-5.25-2.87-10.19-5.83-16.41-4.38-3.23.75-6.78,3.31-6.61,7.09.4,8.8,12.18,11.17,20.88,12.48l12.24,1.85,12.23.83ZM149.19,212.65l10.6,8.08c-3.9-12.05-8.21-22.75-14.01-33.15-2.72-4.88-5.98-9.72-11.81-10.77-2.34-.42-4.64-.12-6.36,1.33-3,2.51-2.85,8.83-1.65,10.96,3.06,5.39,7.37,9.71,11.97,13.71l11.27,9.83ZM122.72,239.49l2.77-19.86c1.7-12.19,3.35-31.99-8.75-32.88-3.63-.27-6.7,3.17-7.17,6.64-1.37,10.02,2.98,20.72,6.38,29.9,2.04,5.51,3.7,10.62,6.77,16.19Z"/>
    <path class="st49" d="M108.04,331.77c3.72-7.94,17.51-30.06,20.6-29.17.62.18,1.07.99.36,2.05-7.82,11.72-14.75,23.7-19.13,37.18-.74,2.27-1.06,6.8-4.68,6.06-7.61-1.56-15.06-2.14-22.65-.02-1.79.5-3.34-1.38-4.01-2.36-.95-1.4-.52-3.17-.3-4.97,4.21-33.26,4.22-66.7,0-99.97-.26-2.05-.68-3.27.38-5.01,3.27-5.39,9.71,2.09,25.62-2.19,2.17-.58,5.58,1.9,5.22,4.7-3.95,30.82-4.07,63.03-1.42,93.71ZM120.75,314.41c-2.39,2-3.86,4.54-5.29,7.19l-8.36,15.51c-1.61-13.1-2.09-25.61-2.09-38.58v-15.99c0-14.73.66-29.02,3-43.54.25-1.55-.88-4.46-2.79-4.12-6.98,1.24-13.76,2-20.61.27-1.51-.38-2.87-.6-4.12.53-.77.7-1.19,2.07-.97,3.56,2.5,16.93,3.11,33.49,3.07,50.69s-.42,34.22-2.93,51.34c-.19,1.29-.32,2.56.18,3.43.4.7,1.31,2.07,2.74,1.71,15.2-3.85,22.32,1.55,24.69-.8.67-.66.4-1.99.75-3.15,2.98-10.04,7.93-18.74,12.73-28.05Z"/>
    <path class="st17" d="M184.91,282.89l-12.29,9.75c-6.63,5.25-13.41,9.86-20.96,13.86s-16.3,5.04-19.22-.87c-1.23-2.49-.95-5.05.08-8.19-2.48,3.11-6.05,4.47-9.86,3.36s-6.11-4.74-6.2-9.06c-.11-5.52,2.11-10.23,4.97-14.89,6.1-9.94,13.48-18.81,21.37-27.46.39-.43.91-.59,1.2-.59.56-.01,1.33.55,1.2,1.41l-2.56,17.13c-1.3,8.71-3.52,16.67-6.34,25.19,5-3.33,10.11-4.99,15.63-6.56,10.61-3.02,21.5-4.49,32.46-5.84l1.2,1.24c.28.29-.2,1.16-.68,1.54ZM133.89,262.96c-.56-.03-1.08.78-1.26,1.28l-.44,1.2c-1.54.63-2.33,2.48-3.29,3.55-.54.61-1.75,1.61-1.36,2.75l.85.75c.12.11-.15.52-.55.71-.29.14-.83-.23-1.14-.35-1.35,2.9-4.38,4.31-5.01,7.3,1.16.65.33,1.68-.55.58-3.55,6.54-4.84,13.63.74,18.16.58.47,6.51.99,6.7-1.39.46-.09.95-.52,1.24-.77.97-.86,2.8-1.15,2.89-3.29-1.1-.14-1.82,1.01-2.43,1.39-.96,0-.8-1.08-.39-1.32.7-.41,1.08-.56,2.27-.8-.43,0-.87-.51-.73-.71.33-.44.76-.28,1-.29.72-.02,1.14.37,1.14,1.23l1.92-3.54c-1.63.2-.98-1.82.26-.75,1.7-2.93.61-6.8,2.71-9.39.39-1.23-1.09-1.45-1.22.29-.15-1.12.09-2.07.57-3.1.16.83,1.28.66,1.26.4l-.07-1.18c1.48-3.93,2.57-9.31.9-10.95.59-.78,1.84-1.69,2.03-2.79l1.62-9.39c-2.73.67-4.47,2.7-5.98,4.86l-2.36,3.36c-.25.36-1.3.37-1.34.72-.04.38-.03,1.16.02,1.45ZM153.68,289.76c-.24-.16-.56-.54-.47-.85.1-.37.9-.63.9-1.79-5.43,1.09-10.79,2.91-16.14,5.95l2.37,6.9c.13.37.22.86,0,1.11-.16.18-.6.07-.84-.15l-1.08-3.61c-.73,1.27-1.99-.02-.61-.62l-.39-2.65c-1.46,1.41-1.65,3.11-2.19,5.05-.06.2-.94-.54-1.07-.7-.2-.24-.82,1.06-.72,1.38l.91,2.97c-.3.9-.48,1.58-.13,2.4.39.9,1.04,1.52,2.37,1.79.22.04.49-.48.39-.83-.09-.27.62-.38.78-.17.13.18.22,1.03.4,1.15,1.09.73,2.5.99,3.55.83.96-.15,2.47-.15,3.43-.73.32-.19.24-1.35.48-1.6.75-.77,2.3,1.81,3.78.16.41-.46,1.37-.42,2.04-.82,11.16-6.63,21.46-13.81,31.65-22.81-9.62.56-19.02,2.29-28.32,4.76.07.35.52,1.62.22,1.86l-1.3,1Z"/>
    <path class="st55" d="M45.68,258.27c.63-12.72,2.07-24.85,4.82-36.95.78-3.45,1.95-6.32,3.41-9.85-9.56,5.62-19.17,9.96-29.55,13.51l-11.49,3.94c-.8.27-1.59-.1-1.83-.46-.29-.44-.35-1.43.14-2.03,7.75-9.55,15.64-18.76,24.49-27.29l6.61-5.1c3.9-3.01,9.86-3.96,14.31-1.5,4.77,2.64,4.77,9.08,2.12,13.75,3.32-1.41,7.14-2.88,10.21-.46,3.87,3.06,5.16,8.94,3.64,13.72-3.87,12.21-16.12,27.92-24.54,38.87-.36.47-2.39.64-2.35-.15ZM29.6,221.16c8.16-3.16,16.27-6.26,23.39-11.42l3.74-3.79c2.6-2.64,2.24-6.82.62-10.31-1.35-2.9-8.52-3.55-11.22-1.94l-4.52,2.7c-4.95,2.96-16.53,15.61-21.25,21.53-2.25,2.83-4.86,5.07-6.66,8.84,5.79-1.28,10.65-3.57,15.9-5.6ZM51.4,224.52l-1.48,8.33c-1.38,7.77-2.37,15.3-2.69,23.83,7.78-9.72,14.88-19.44,20.66-30.25,3.5-6.55,5.9-14.07.44-19.15-1.76-1.64-5.28-1.66-7.3-.02-1.34,1.09-3.31,1.71-4.23,3.02-3.04,4.35-4.15,9.39-5.41,14.24Z"/>
    <path class="st40" d="M47.81,180.04c-2.86,4.32-13.51,1.48-20.32-1.99-9.95-5.06-18.67-11.51-27.32-18.37-.33-.26-.11-1.21.05-1.42,1.48-1.97,24.31,2.79,32.61,5.32,4.59,1.4,8.28,3.31,12.6,6.07-7.03-12.45-9.54-26.73-11.68-40.43.07-.58.29-.87.46-1.04.29-.3,1.15-.44,1.62.08,7.47,8.14,14.31,16.81,19.85,26.5s4.93,19.98-1.21,20.16c-3.39.1-5.42-2.26-8.01-4.08,2.02,2.85,3.44,6.06,1.35,9.2ZM57.73,169.65c.38-6.03-1.99-11.51-5.18-16.66l-2.79-4.52c-4.07-6.58-8.83-11.36-14.04-17.81l3.31,17.61c1.83,9.74,9.17,27.49,16.16,24.83,1.07-.41,2.45-1.86,2.55-3.45ZM47.01,177.61c2.26-11.29-31.34-17.28-43.67-17.86l10.9,8.41,7.15,4.48c6.02,3.78,12.26,7.25,19.45,7.7,2.23.14,5.56.31,6.17-2.72Z"/>
    <path class="st29" d="M109.28,474.13c-2.03,12.67-2.43,24.98-2.99,37.74l-25.06.13c-.23-13.92-1.56-27.04-3.36-40.36-.39-2.86,2.86-5.2,5.24-4.54,7.26,2.01,14.27,1.71,21.44-.11,1.77-.45,3.35,1.12,4.07,2.08.9,1.2.97,3.16.66,5.06ZM101.07,510.14c1.31.43,2.8.46,3.96-.12.26-12.95,1.09-25.27,2.94-37.88.19-1.33-.58-2.59-1.23-3.18-.83-.76-2.09-.78-3.24-.4-6.9,2.31-13.91,1.41-20.97,0-2.51-.5-3.47,2.85-3.13,4.75,2.19,12.28,2.55,24.17,3.24,36.91,5.28.56,10.73.48,15.77.07,1.34-11.92.56-23.14,3.73-34.99l-1.06,34.83Z"/>
    <path class="st13" d="M169.87,313.75c-12.05,6.85-31.1,17.2-43.68,15.06-2.42-.41-4.6-1.6-5.28-3.73-1.7-5.37,3.62-9.66,9.76-11.53,6.81-2.07,13.69-2.65,20.76-2.47l17.11.42c.53.01.86.39,1.1.47.36.14.75,1.46.22,1.77ZM137.74,314.9c-1.79-.84-3.87-1.32-5.76.06-1.13.82-2.72,1.44-4.08,1.79-.89-.05-1.57,0-2.18,1.49-.42.01.71,1.07.27,1.74.22,1.13.34,1.9-.12,2.89-.73-.78-1.49-1.08-2.73-1.66-.65.55-.97,1.48-.7,2.57.2.79.6,2.42,1.81,2.26.98-.13,1.89.75,2.86.99.45-.19,1.07-1.63,1.72-1.3-.05,1.72,1.31,1.78,2.17,1.51,1.65,1.67,2.56-4.13,3.59-3.46.89.58.14,2.18,1.46,2.81.71.34,1.93-.26,1.9-.99-.05-.2-.52-.73-.37-1.06.1-.21.42-.5.76-.43.31.07.39.55,1.51.19-.04-.6-.88-1.3-.76-1.69.15-.51,1.13-1.28,1.64-1.51.76.75,1,2.27,1.16,3.76,2.24-.15,4.14-.87,6.14-1.85l19.5-9.57c-7.24-1.1-14.61-.99-22-.9-4.61.05-8.8.4-7.79,2.35Z"/>
    <path class="st53" d="M52.51,411.98c-9.61,1.32-24.93-9.08-34.04-15.08-.57-.38-.49-1.15-.47-1.47.02-.51.65-1.28,1.62-1.23,10.31.54,20.52.89,30.43,3.25,4.36,1.04,7.45,4.52,7.79,8.62.27,3.23-1.98,5.45-5.33,5.91ZM36.39,405.57c5.21,2.51,12.62,6.98,18.55,3.35,1.22-.75,1.6-1.69,1.33-3.14-.96-5.27-6.87-7.03-12.56-7.88l-6.03-.91-2.14-.34c-1.71-.27-3.29-.34-4.53,1.56l-3.64-1.87c-.25.77-.06,1.35-.25,1.5-.28.22-1.27-.05-1.45,1.25l3.52-.3c-.12.89-1.15,1.37-.98,1.58.26.33,1.45.17,1.59.21.34.53-.13.76-.21.94-.11.28.38.96.8,1.16l6,2.9Z"/>
    <path class="st39" d="M143.1,64.95c11.23-5.54,22.97-8.81,35.43-11.11,1.07-.2,2.82-.62,3.29.89-8.19,8.45-17.08,15.87-27.07,21.91-6.13,3.7-15.33,7.08-18.73,2.89-2.92-3.59-.09-9.67,4.83-12.45,1.04-.59,1.65-1.63,2.25-2.13ZM179,55.3c-11.13,2.08-21.84,5.01-32.1,9.79-7.13,3.32-13.13,9.53-9.65,13.38,6.77,7.5,33.77-14.41,41.76-23.17Z"/>
    <path class="st37" d="M70.47,395.64c1.56,7.19-.82,13.92-5.38,14.03-7.11.18-8.82-11.15-9.32-19.49l.9-20.78c.03-.76.2-1.52.55-1.8.65-.5,1.73-.37,2.21.52,4.71,8.87,8.91,17.67,11.04,27.51ZM67.07,406.68c1.85-2.39,2.11-5.65,1.9-8.58-.83.7-1.48.4-2.34-.19-.74-.51.1-1.26.47-1.76-.28-1.13-.25-2.21.77-3.17-1.62-7.35-4.59-14.69-8.89-21.24l-.82,5.66-.63.92.3,1.05c-.29,1.56-1.02,3.78.62,5.43-1.32,2.48-1.23,5.47-.4,8.47-.16,5.53,1.43,12.19,5.28,14.08,1,.49,2.64.75,3.74-.68Z"/>
    <path class="st44" d="M130.23,61.26c1.73,7.96,1.07,17.63-4.72,18.82s-9.71-7.66-10.43-15.14c-1.08-11.21-.48-22.22,1.3-33.18.14-.89.44-1.69,1.28-1.77.66-.06,1.2.49,1.59,1.37,4.4,9.8,8.67,19.33,10.96,29.9ZM128.22,75.9c2.33-5.71,1.36-11.75-.32-17.67-2.52-8.88-5.72-17.06-9.98-25.72-1.78,10.84-2.36,21.1-1.42,31.46.41,4.55,1.65,9.02,4.6,12.52,1.02,1.38,2.25,2.26,3.91,2.03,1.02-.14,2.01-1.37,3.21-2.62Z"/>
    <path class="st52" d="M168.34,87.26c-10.97,7.48-31.6,19.84-43.56,17.57-2.14-.41-3.98-1.54-4.6-2.84-3.18-6.69,6.13-12.06,14.78-14.03s29.8-4.12,33.41-2.18c.28.15.33,1.23-.03,1.47ZM138.19,101.59c10.14-3.68,19.35-8.97,28.19-14.9-13.01-.03-27.26.63-38.58,5.31-3.37,1.39-7.76,5.58-6.3,8.83,1.76,3.94,10.38,3.05,16.7.76Z"/>
    <path class="st8" d="M143.1,64.95c-1.79.14-3.12,2.23-6.49.8-4.57-1.94-3.46-12.09.29-19.78,4.71-9.67,10.73-18.24,17.41-26.59.54-.68,1.04-1.2,1.89-.94.63.19.96.99.87,1.92-1.05,11.09-2.75,21.75-6.21,32.19-1.67,5.04-3.94,9.22-7.75,12.39ZM147.82,56.2c4.41-11.18,6.85-22.94,7.31-35.01-7.15,8.44-12.57,16.72-17.06,25.97-2.16,4.47-3.4,9.16-2.78,13.92.33,1.43.92,2.63,1.98,3.27,3.08,1.88,8.42-2.75,10.55-8.16Z"/>
    <path class="st12" d="M82.22,229.4c-3.01.56-2.52-3.49-2.82-4.91-2.57-12.35-8.58-22.8-14.45-33.59,7.31,7.92,10.7,17.35,15.47,27.29,2.05-15.78,2.13-31.03,2.18-46.84.05-17.01-.69-33.32-3.21-50.1-.21-1.38,1.99-3.26,3.08-3.03,7.33,1.52,14.35,1.86,21.27-.05l.37-5.12c-6.57-1.98-13.33-2.07-19.88-.61-1.49.33-2.66.46-3.73-.55-1.13-1.06-1.14-2.34-.86-4.12,2.61-16.7,2.87-33.12,2.96-50.12.09-18.03-.62-35.37-3.14-53.08-.2-1.43,2.03-3.3,3.04-3.03,7.69,2.04,15.02,1.57,22.72.12,1.97-.37,3.04,2.66,2.77,4.26-2.2,13.18-2.55,26.07-2.97,39.48-.62,19.8.06,41.56,2.6,61.27l2.14-2.89c3.05-4.11,5.32-8.89,9.57-12.09-5.33,8.73-10.56,16.81-12.95,26.42.66,1.04,1.85,2.36,1.62,3.75-2.37,14.68-3,29.1-2.99,43.93v21.48c.02,13.05,1.04,25.66,3.03,38.52.29,1.86-1.48,4.24-3.44,3.72-7.4-1.98-14.68-1.55-22.38-.1ZM102.21,102.8l-1.51-40.89,1.52-52.92c-5.26,29.45-4.83,59.29-1.37,88.92.24,2.02-.55,3.91,1.35,4.89ZM101.4,199.71c-.64-17.83-1.04-34.72.07-52.18-.16-7.62,1.92-14.71.54-22.34-5.06,30.14-4.6,60.1-1.03,90.05.19,1.58-.4,2.8,1.11,3.84l-.69-19.38Z"/>
    <path class="st47" d="M103.29,462.9c-15.21-4.21-22.11,3.65-23.96-2.33l-3.2-10.32c-3.39-10.95-6.88-21.3-10.64-32.17,5.76,10.28,9.12,21.54,13.17,32.73.39,1.08.57,2.33,1.68,3.16,1.96-17.45,2.27-34.49,2.22-52.16-.05-15.8-.82-30.88-3.26-46.47-.24-1.54,1.55-3.9,3.2-3.58,7.08,1.38,14.03,2,20.95.07.87-.24,2.13-.47,2.8.08.59.48,1.94,1.5,1.76,2.7-2.25,14.97-3.03,29.93-3.04,45.29v16.01c-.02,14.64.71,28.94,3.01,43.37.21,1.3-.47,2.28-.99,2.85-.88.99-2.26,1.18-3.74.77ZM101.24,429.63c-.72-17.98-.74-35.13.41-52.69.39-5.93,1.49-11.56.26-17.86-4.98,30.32-4.44,60.57-.87,90.91.14,1.19-.54,2.14,1.13,2.55l-.92-22.91Z"/>
    <path class="st64" d="M61.25,435.44c-.26-.35-.9-1.36-1.3-1.54-.33-.15-.89.31-1.34.83-4.58-1.49-8.05-4.78-11.5-7.78l-4.73-4.11c-1.77-1.54-4.44-3.73-5.55-5.67-.09-2.06,2.48-1,3.49-.69,9.74,3.04,27.91,8.47,26.63,18.09-.26,1.96-4.76,2.11-5.69.87ZM51.37,425.08c-.85.27-.67.98-.34,1.17.26.16.98.67,1.27.52.44-.23.17-1,.01-1.27-.12-.2-.37-.61-.94-.43ZM60.74,432.09c1.17-.09.69-.9.5-1.37-.32-.79-.91-1.39-1.85-.53-.37.34-.79,1.21-.15,1.8.3.27.94.14,1.5.09Z"/>
    <path class="st41" d="M149.19,212.65l-11.27-9.83c-4.59-4-8.9-8.32-11.97-13.71-1.21-2.12-1.35-8.45,1.65-10.96,1.72-1.44,4.02-1.75,6.36-1.33,5.84,1.05,9.09,5.88,11.81,10.77,5.8,10.4,10.12,21.1,14.01,33.15l-10.6-8.08Z"/>
    <path class="st6" d="M122.72,239.49c-3.07-5.57-4.73-10.69-6.77-16.19-3.4-9.18-7.75-19.89-6.38-29.9.48-3.47,3.54-6.91,7.17-6.64,12.1.89,10.45,20.69,8.75,32.88l-2.77,19.86Z"/>
    <path class="st48" d="M183.17,185.89l-12.23-.83-12.24-1.85c-8.69-1.31-20.48-3.68-20.88-12.48-.17-3.78,3.38-6.34,6.61-7.09,6.22-1.45,11.16,1.51,16.41,4.38,9.49,5.18,18.09,11.2,26.39,17.71-.85.55-1.54.12-1.9-.13-.48-.33-1.34.34-2.18.28Z"/>
    <path class="st21" d="M120.75,314.41c-4.8,9.31-9.75,18.01-12.73,28.05-.34,1.16-.08,2.49-.75,3.15-2.37,2.35-9.49-3.04-24.69.8-1.43.36-2.34-1.01-2.74-1.71-.5-.87-.37-2.15-.18-3.43,2.51-17.12,2.89-33.94,2.93-51.34s-.57-33.76-3.07-50.69c-.22-1.49.2-2.86.97-3.56,1.25-1.13,2.61-.91,4.12-.53,6.84,1.74,13.63.97,20.61-.27,1.91-.34,3.04,2.57,2.79,4.12-2.34,14.52-3,28.81-3,43.54v15.99c0,12.97.49,25.48,2.09,38.58l8.36-15.51c1.43-2.65,2.9-5.19,5.29-7.19ZM101.03,308.56c-.6-13.99-.34-27.03.23-40.62.37-8.78,1.79-16.97.83-26.03-5.08,30.15-4.74,60.46-1.1,90.7.17,1.43-.7,2.68,1.22,3.2l-1.18-27.25Z"/>
    <path class="st58" d="M139.9,264.74c1.67,1.64.58,7.02-.9,10.95l.07,1.18c.02.26-1.1.43-1.26-.4-.48,1.03-.72,1.98-.57,3.1.12-1.74,1.61-1.52,1.22-.29-2.1,2.59-1.01,6.46-2.71,9.39-1.24-1.07-1.89.95-.26.75l-1.92,3.54c0-.86-.41-1.25-1.14-1.23-.24,0-.67-.15-1,.29-.15.2.3.71.73.71-1.19.23-1.56.38-2.27.8-.41.24-.58,1.31.39,1.32.61-.39,1.33-1.53,2.43-1.39-.1,2.15-1.92,2.43-2.89,3.29-.13-.8-.59-.64-.86-.41-.56.5-.6.72-.38,1.18-.19,2.38-6.12,1.85-6.7,1.39-5.59-4.52-4.3-11.61-.74-18.16.88,1.1,1.71.07.55-.58.63-2.99,3.66-4.4,5.01-7.3.31.12.86.49,1.14.35.4-.19.67-.61.55-.71l-.85-.75c-.39-1.14.82-2.14,1.36-2.75.46.15.84.24,1.06.13.25-.12.37-.61.31-1.35.77.76,1.18,1.03,1.68,1.02.81-.02,1.55-.67,1.11-1.22-1.26-.51-.73-1.43-.88-2.13l.44-1.2c.65.73,1.13.99,2.87.96-.63,1.46-1.35.98-2.29,1.14.78.98,2.96-.11,3.03-1.31l-1.85-.38c-.41-.09-.23-.92-.49-1.69,1.91-.72,3.77-.8,6.16-1.15l-1.1,1.17.16,1.28c-.9.21-1.49.43-1.86.67-.34.22-.17.68.18.93,1.15.81,1.18-1.15,2.46-1.12ZM131.62,272.96c-.71.23-.77,1.02-.49,1.07.35.07.82.05,1.2,0,.29-.03.38-.41.06-.63-.16-.11-.37-.58-.78-.45ZM133.55,278.62c.43-1.27-1.14-1.52-1.65-1.24-.74.4-1.78.03-1.59,1.71.94-.87,2.47-.32,3.24-.46ZM128.26,285.53c-1.7.55-3.32,2.59-2.7,4.4-.5.12-.93-.68-1.19-.53-.38.21-.36,1.32-.27,1.83.15.88,1.14.68,1.22.21l.25-1.51c.81-.1,1.16-.18,1.59-.92s.26-.87.11-2.26c.99.66,2.15-.18.99-1.22.41.06,1.06.08,1.29-.18.28-.3,1-1.47-.16-1.67-.23.29-.48,1.64-1.13,1.85Z"/>
    <path class="st4" d="M149.39,305.77c.04-.65-.59-2.44-1.28-2.19-1.18.42-.74-.78-.41-.98.64-.39,1.6-.05,1.93.14.94-.51,1.25-2.08.61-3.21.83.3,1.71.43,2.25.39.39-.03.42-1.16-.35-1.33-.44-.1-1.79.69-1.72.11.05-.48.71-1.31.78-1.3-1.3-.61-2.17-1.47-1.86-2.55.38-1.32,1.5-.66,2.08-1.09,1-.73,1.79-2.05.76-3.41.75.24,1.33.1,1.51-.58l1.3-1c.3-.24-.15-1.51-.22-1.86,9.3-2.47,18.7-4.2,28.32-4.76-10.19,8.99-20.49,16.18-31.65,22.81-.67.4-1.62.36-2.04.82Z"/>
    <path class="st19" d="M153.68,289.76c-.17.68-.76.83-1.51.58,1.04,1.36.25,2.68-.76,3.41-.58.43-1.7-.23-2.08,1.09-.31,1.08.57,1.94,1.86,2.55-.07,0-.73.82-.78,1.3-.06.59,1.28-.2,1.72-.11.77.17.74,1.3.35,1.33-.55.04-1.42-.09-2.25-.39.64,1.13.33,2.7-.61,3.21-.33-.19-1.29-.53-1.93-.14-.33.2-.77,1.4.41.98.69-.25,1.32,1.54,1.28,2.19-1.48,1.65-3.03-.92-3.78-.16-.24.25-.16,1.41-.48,1.6-.96.58-2.47.58-3.43.73-.18-1.41-.66-3.21-2.09-3.24-.48,1.4-1.41,1.22-.86.04-.43-.81-1.94-1.51-2.86-1.92-.08.4-.22,1.02-.6,1.1-.31.15-.68.07-.89-.19s-.22-.64-.05-.97l-.91-2.97c-.1-.32.53-1.63.72-1.38.13.16,1,.91,1.07.7.54-1.94.73-3.64,2.19-5.05l.39,2.65c-1.37.6-.12,1.89.61.62l1.08,3.61c-.48-.21-1.01.12-1.11.45-.18.62-.18,1.01.11,1.33.45.51,1.15.49,1.32-.34.1-.45-.12-.76-.32-1.44.25.22.68.33.84.15.22-.25.13-.74,0-1.11l-2.37-6.9c5.35-3.04,10.71-4.86,16.14-5.95,0,1.16-.8,1.42-.9,1.79-.09.31.23.68.47.85ZM143.9,305.22c.42.15.79.03,1.03-.33-.14-.75-.61-1.44-.92-2.12l-.8.03.7,2.42Z"/>
    <path class="st7" d="M139.9,264.74c-1.28-.03-1.31,1.93-2.46,1.12-.35-.25-.52-.71-.18-.93.37-.25.97-.47,1.86-.67l-.16-1.28,1.1-1.17c-2.39.35-4.25.43-6.16,1.15-.05-.29-.07-1.07-.02-1.45.04-.35,1.09-.36,1.34-.72l2.36-3.36c1.52-2.16,3.25-4.19,5.98-4.86l-1.62,9.39c-.19,1.1-1.44,2.01-2.03,2.79Z"/>
    <path class="st26" d="M141.7,307.94c-1.04.16-2.45-.1-3.55-.83-.18-.12-.27-.97-.4-1.15-.16-.22-.86-.11-.78.17.11.35-.17.87-.39.83-1.34-.28-1.98-.89-2.37-1.79-.36-.82-.18-1.5.13-2.4-.17.33-.16.71.05.97s.58.34.89.19c.38-.09.52-.71.6-1.1.93.41,2.44,1.11,2.86,1.92-.56,1.18.38,1.36.86-.04,1.43.04,1.91,1.83,2.09,3.24Z"/>
    <path class="st62" d="M128.9,269c.96-1.07,1.74-2.92,3.29-3.55.15.71-.38,1.62.88,2.13.44.55-.3,1.2-1.11,1.22-.49.01-.91-.26-1.68-1.02.06.74-.07,1.23-.31,1.35-.22.11-.6.02-1.06-.13Z"/>
    <path class="st7" d="M132.63,264.24c.18-.51.7-1.31,1.26-1.28.27.76.08,1.6.49,1.69l1.85.38c-.07,1.2-2.25,2.29-3.03,1.31.95-.16,1.66.32,2.29-1.14-1.74.03-2.23-.22-2.87-.96Z"/>
    <path class="st34" d="M129.82,296.74c-.29.26-.79.69-1.24.77-.22-.46-.18-.68.38-1.18.27-.24.74-.4.86.41Z"/>
    <path class="st15" d="M29.6,221.16c-5.26,2.03-10.12,4.32-15.9,5.6,1.8-3.78,4.41-6.02,6.66-8.84,4.72-5.93,16.3-18.58,21.25-21.53l4.52-2.7c2.69-1.61,9.86-.96,11.22,1.94,1.62,3.49,1.99,7.67-.62,10.31l-3.74,3.79c-7.12,5.16-15.23,8.27-23.39,11.42Z"/>
    <path class="st42" d="M49.92,232.86c1.34-.39,3.16.03,4.1,0-.11-1.96,2.9-.36,4.99-3.38l1.64-4.39c.3-.79-.31-1.63-1.01-1.5-.3.05-.79.12-1.49-.01.05-1.11-.99-.8-.69.2.47.99-.02,2.88-.68,3-1-.56-1.96-.08-2.65-.21-.89-.19-2.16-1.59-2.72-2.04,1.26-4.85,2.37-9.89,5.41-14.24.91-1.31,2.88-1.93,4.23-3.02,2.02-1.64,5.53-1.62,7.3.02,5.46,5.08,3.06,12.6-.44,19.15-5.78,10.81-12.88,20.53-20.66,30.25.32-8.53,1.31-16.06,2.69-23.83Z"/>
    <path class="st24" d="M49.92,232.86l1.48-8.33c.56.45,1.83,1.85,2.72,2.04.69.13,1.65-.35,2.65.21.67-.12,1.15-2,.68-3-.3-1,.74-1.31.69-.2.7.13,1.2.06,1.49.01.7-.13,1.31.71,1.01,1.5l-1.64,4.39c-2.09,3.02-5.1,1.42-4.99,3.38-.93.04-2.75-.39-4.1,0Z"/>
    <path class="st18" d="M47.01,177.61c-.61,3.04-3.94,2.86-6.17,2.72-7.19-.44-13.43-3.92-19.45-7.7l-7.15-4.48-10.9-8.41c12.33.58,45.93,6.57,43.67,17.86Z"/>
    <path class="st5" d="M57.73,169.65c-.1,1.59-1.47,3.04-2.55,3.45-6.99,2.66-14.33-15.09-16.16-24.83l-3.31-17.61c5.21,6.45,9.97,11.23,14.04,17.81l2.79,4.52c3.19,5.16,5.56,10.64,5.18,16.66Z"/>
    <path class="st59" d="M101.07,510.14l1.06-34.83c-3.17,11.85-2.39,23.07-3.73,34.99-5.04.41-10.49.49-15.77-.07-.69-12.74-1.05-24.63-3.24-36.91-.34-1.9.61-5.25,3.13-4.75,7.06,1.41,14.07,2.31,20.97,0,1.14-.38,2.4-.36,3.24.4.65.59,1.43,1.86,1.23,3.18-1.85,12.61-2.67,24.93-2.94,37.88-1.15.58-2.65.55-3.96.12Z"/>
    <path class="st45" d="M140.73,321.11c-.15-1.64-1.29-.98-1.66-2.46-.07-.28-.21-.8.19-.92.58-.18,1.29.02,2,.46.31-.94-.1-1.33-.16-1.72.52-.92.78-1.78,1.99-2.44.19,1.46,1.19,1.61,1.42.69.54-.82,1.07-1.42,1.01-2.18,7.39-.09,14.76-.2,22,.9l-19.5,9.57c-2,.98-3.9,1.7-6.14,1.85-.15-1.49-.4-3.01-1.16-3.76Z"/>
    <path class="st63" d="M137.74,314.9l3.36,1.58c.06.38.47.78.16,1.72-.71-.44-1.42-.64-2-.46-.4.12-.26.64-.19.92.37,1.48,1.51.81,1.66,2.46-.51.23-1.48.99-1.64,1.51-.12.39.72,1.09.76,1.69-1.12.36-1.2-.12-1.51-.19-.33-.08-.66.22-.76.43-.15.33.32.87.37,1.06.03.73-1.19,1.33-1.9.99-1.32-.63-.57-2.24-1.46-2.81-1.03-.67-1.94,5.12-3.59,3.46.67-1.4,1.18-2.79,1.57-4.35.55.08,1.12.26,2.02-.22-.88-.58-1.41-1.23-1.21-2.18-.23-.41.14-.73.51-.61-.32.77.46,1.11.57,1.54.2.8,1.25,1.31,1.62.36l-.35-1.49c-.05-.21.24-.35.55-.35.62.61,1.06,1.2,1.11,2.28-1.64-.37-1.34,1.43.08.89.94-.36,1.26-1.53,1.03-2.06-.35-.79-.73-1.67-2.22-1.11-.44-.7-.75-1.28-.36-2.1.3-.63.68-1.22,1.64-1.79-.9-.89-1.22-.06-1.63.06-.72.22-.51.91-.94,1.52l-1.14,1.58c-.48.04-.75-.44-1.03-.69l.83-.44c1.36-.51-1.31-1.26-1.66-3.13,1.89-1.37,3.97-.89,5.76-.06Z"/>
    <path class="st35" d="M127.9,316.74c.47.83.11,2.11-.02,3.04-.04.19.77.59.84.78.18.57-.98.27-.91,1.61-.01.08,1.33-.98,1.43.64.69-.86.62-2.45-.35-3.73.12-1.16,1.07-.99,1.45.34.4-.16.5-1.38.76-1.26l1.07.48c.11.52.33,1.31.25,1.78-.76.85.22,1.71.14,2.47-.39,1.56-.9,2.95-1.57,4.35-.86.28-2.22.22-2.17-1.51-.65-.33-1.27,1.11-1.72,1.3-.97-.24-1.88-1.12-2.86-.99,0-.48.14-.85.39-1.11.16-.17.86-.23,1.3-.2.79.07.77-1.05.35-1.21-.2-.08-.65-.16-.42-.65.46-.99.34-1.77.12-2.89.45-.67-.69-1.73-.27-1.74.61-1.49,1.29-1.54,2.18-1.49ZM128.42,323.57c-.08-.78-.91-.54-.73.13-.22,1.38,1.25,1.01.73-.13Z"/>
    <path class="st2" d="M132.82,318.53c-.25.1-.46.18-.63.11l-1.07-.48c-.26-.12-.36,1.1-.76,1.26-.37-1.33-1.33-1.49-1.45-.34.97,1.28,1.04,2.87.35,3.73-.1-1.62-1.44-.56-1.43-.64-.08-1.34,1.09-1.04.91-1.61-.06-.19-.87-.58-.84-.78.13-.93.49-2.2.02-3.04,1.36-.35,2.95-.97,4.08-1.79.35,1.87,3.02,2.63,1.66,3.13l-.83.44Z"/>
    <path class="st3" d="M145.53,312.55c.07.76-.46,1.37-1.01,2.18-.23.92-1.23.78-1.42-.69-1.21.66-1.47,1.52-1.99,2.44l-3.36-1.58c-1.02-1.95,3.17-2.29,7.79-2.35Z"/>
    <path class="st56" d="M125.87,322.87c-.23.49.22.57.42.65.42.17.44,1.28-.35,1.21-.44-.04-1.14.03-1.3.2-.25.26-.39.63-.39,1.11-1.2.16-1.61-1.47-1.81-2.26-.27-1.09.04-2.02.7-2.57,1.24.58,2,.88,2.73,1.66Z"/>
    <path class="st38" d="M36.39,405.57c-.34-.83-.23-2.21.87-2.59.72-.25.61-.53.78-.86.24-.46.06-.9-.45-.92-.36-.01-.94.24-1.77.89l-.19-1.99c.29-.93,1.18-2.21,2.05-3.12l6.03.91c5.69.86,11.6,2.61,12.56,7.88.26,1.45-.11,2.4-1.33,3.14-5.93,3.62-13.35-.84-18.55-3.35ZM39.26,399.59c1.13-.55.38-1.99-.49-.93-.72.03-1.32.72-1.4,1.01,0,.02,2.06,1.55,1.89-.08Z"/>
    <path class="st16" d="M37.68,396.99c-.87.91-1.76,2.19-2.05,3.12l.19,1.99c.83-.66,1.41-.91,1.77-.89.51.02.69.46.45.92-.17.33-.06.61-.78.86-1.1.38-1.21,1.76-.87,2.59l-6-2.9c-.42-.2-.91-.88-.8-1.16.07-.18.55-.42.21-.94-.14-.03-1.32.12-1.59-.21-.17-.21.86-.68.98-1.58l-3.52.3c.18-1.3,1.16-1.03,1.45-1.25.19-.14,0-.73.25-1.5l3.64,1.87c1.24-1.9,2.82-1.83,4.53-1.56l2.14.34Z"/>
    <path class="st54" d="M179,55.3c-7.98,8.76-34.99,30.66-41.76,23.17-3.48-3.85,2.52-10.06,9.65-13.38,10.26-4.78,20.98-7.71,32.1-9.79ZM150.47,74.23c0-.33-.27-.6-.6-.6s-.6.27-.6.6.27.6.6.6.6-.27.6-.6Z"/>
    <path class="st22" d="M67.07,406.68c-1.1,1.42-2.74,1.17-3.74.68-3.85-1.89-5.44-8.55-5.28-14.08-.83-3.01-.92-5.99.4-8.47-1.64-1.65-.91-3.87-.62-5.43l-.3-1.05.63-.92.82-5.66c4.3,6.55,7.27,13.89,8.89,21.24-1.02.96-1.05,2.03-.77,3.17-.38.51-1.21,1.25-.47,1.76.86.59,1.51.89,2.34.19.21,2.93-.05,6.18-1.9,8.58Z"/>
    <path class="st28" d="M128.22,75.9c-1.2,1.25-2.19,2.48-3.21,2.62-1.66.23-2.89-.65-3.91-2.03-2.95-3.5-4.19-7.97-4.6-12.52-.94-10.36-.36-20.62,1.42-31.46,4.26,8.66,7.47,16.84,9.98,25.72,1.68,5.93,2.64,11.96.32,17.67Z"/>
    <path class="st33" d="M138.19,101.59c-6.32,2.29-14.94,3.18-16.7-.76-1.45-3.24,2.94-7.43,6.3-8.83,11.33-4.68,25.58-5.35,38.58-5.31-8.84,5.93-18.05,11.21-28.19,14.9Z"/>
    <path class="st10" d="M147.82,56.2c-2.13,5.4-7.47,10.04-10.55,8.16-1.06-.65-1.64-1.84-1.98-3.27-.63-4.75.61-9.45,2.78-13.92,4.48-9.25,9.91-17.54,17.06-25.97-.45,12.06-2.89,23.83-7.31,35.01Z"/>
    <path class="st23" d="M102.21,102.8c-1.9-.98-1.12-2.87-1.35-4.89-3.47-29.63-3.89-59.47,1.37-88.92l-1.52,52.92,1.51,40.89Z"/>
    <path class="st46" d="M101.4,199.71l.69,19.38c-1.51-1.04-.92-2.26-1.11-3.84-3.57-29.95-4.03-59.91,1.03-90.05,1.37,7.63-.7,14.72-.54,22.34-1.11,17.46-.71,34.34-.07,52.18Z"/>
    <path class="st11" d="M101.24,429.63l.92,22.91c-1.66-.42-.99-1.37-1.13-2.55-3.58-30.33-4.11-60.59.87-90.91,1.24,6.3.13,11.93-.26,17.86-1.15,17.56-1.13,34.71-.41,52.69Z"/>
    <path class="st14" d="M60.74,432.09c-.56.05-1.21.18-1.5-.09-.64-.59-.22-1.46.15-1.8.94-.86,1.53-.26,1.85.53.19.47.67,1.27-.5,1.37Z"/>
    <path class="st61" d="M51.37,425.08c.57-.18.82.23.94.43.16.27.43,1.04-.01,1.27-.29.15-1.01-.37-1.27-.52-.32-.19-.5-.91.34-1.17Z"/>
    <path class="st0" d="M101.03,308.56l1.18,27.25c-1.92-.52-1.05-1.77-1.22-3.2-3.64-30.24-3.98-60.55,1.1-90.7.96,9.06-.46,17.25-.83,26.03-.57,13.59-.83,26.63-.23,40.62Z"/>
    <path class="st20" d="M128.26,285.53c1.15,1.04,0,1.88-.99,1.22.15,1.39.31,1.55-.11,2.26s-.78.82-1.59.92c-.62-1.81,1-3.85,2.7-4.4Z"/>
    <path class="st1" d="M133.55,278.62c-.77.15-2.3-.41-3.24.46-.19-1.68.85-1.3,1.59-1.71.51-.28,2.08-.03,1.65,1.24Z"/>
    <path class="st20" d="M125.57,289.93l-.25,1.51c-.08.47-1.07.67-1.22-.21-.09-.51-.11-1.62.27-1.83.27-.15.7.65,1.19.53Z"/>
    <path class="st20" d="M128.26,285.53c.65-.21.9-1.56,1.13-1.85,1.17.2.44,1.37.16,1.67-.23.25-.88.23-1.29.18Z"/>
    <path class="st31" d="M131.62,272.96c.4-.13.62.34.78.45.32.21.23.59-.06.63-.39.04-.85.06-1.2,0-.28-.06-.23-.84.49-1.07Z"/>
    <path class="st25" d="M139.49,300.94c.2.68.42.99.32,1.44-.17.82-.87.85-1.32.34-.29-.33-.29-.71-.11-1.33.1-.33.63-.66,1.11-.45Z"/>
    <path class="st43" d="M143.9,305.22l-.7-2.42.8-.03c.32.69.78,1.37.92,2.12-.23.36-.61.48-1.03.33Z"/>
    <path class="st30" d="M136.29,319.95c-.31,0-.6.15-.55.35l.35,1.49c-.37.95-1.42.44-1.62-.36-.11-.43-.89-.77-.57-1.54.01-.19-.13-.54-.04-.66l1.14-1.58c.44-.61.22-1.29.94-1.52.42-.13.73-.95,1.63-.06-.96.57-1.34,1.16-1.64,1.79-.39.82-.08,1.4.36,2.1Z"/>
    <path class="st30" d="M136.29,319.95c1.49-.57,1.87.31,2.22,1.11.23.53-.09,1.7-1.03,2.06-1.42.54-1.72-1.26-.08-.89-.05-1.07-.49-1.67-1.11-2.28Z"/>
    <path class="st50" d="M133.38,320.49c-.2.95.33,1.6,1.21,2.18-.9.48-1.47.3-2.02.22.09-.76-.9-1.62-.14-2.47l.95.07Z"/>
    <path class="st57" d="M133.85,319.22c-.09.12.05.47.04.66-.37-.12-.74.19-.51.61l-.95-.07c.07-.47-.14-1.26-.25-1.78.17.08.39,0,.63-.11.29.25.55.73,1.03.69Z"/>
    <path class="st32" d="M128.42,323.57c.51,1.14-.95,1.51-.73.13-.18-.67.65-.91.73-.13Z"/>
    <path class="st27" d="M39.26,399.59c.17,1.63-1.89.1-1.89.08.08-.3.67-.99,1.4-1.01.87-1.06,1.62.39.49.93Z"/>
    <circle class="st51" cx="149.87" cy="74.23" r=".6"/>
  </g>
</svg>