<svg viewBox="0 0 467.63 288.57" xmlns="http://www.w3.org/2000/svg" xmlns:xlink="http://www.w3.org/1999/xlink" id="_レイヤー_1" overflow="hidden"><defs></defs><g id="_生成オブジェクト"><path d="M318.89 167.49C319.39 167.46 319.64 167.74 319.56 168.07 310.86 171.86 303.82 181.22 300.3 190.7 318.35 173.38 336.77 157.86 361.3 151.82 364.99 147.42 369.94 144.64 375.68 143.71 393.14 140.9 409.16 148.5 421.06 161.63L409.55 158.56C405.38 157.45 401.41 156.34 397.26 156.48 398.74 157.64 400.1 158 401.15 159.5 398.5 159.64 396.34 160.13 394.02 161.01 384.21 164.74 374 164 364.61 159.21 347.1 164.27 331.9 174.4 318.41 186.74 322.19 185.44 326.1 185.57 329.24 183.62 356.84 166.46 391.09 161.9 420.57 175.73 426.77 174.05 432.53 175.8 437.88 178.35 444.88 181.93 450.58 187.17 453.89 194.3 459.56 197.97 463.75 202.77 466.35 208.74 467.43 212.19 468.4 215.57 466.75 219.3 465.03 213.41 461.33 209.2 456.44 205.84L452.02 202.8C452.83 204.15 453.48 205.04 453.51 206.57 451.74 205.91 450.06 205.61 448.14 205.68 433.45 206.19 419.62 197.2 416.76 182.96 398.25 174 374.98 173.22 355.31 180.43 368.17 180.67 379.8 182.2 391.01 187.15 403.87 192.83 415.23 201.99 418.17 216.35 408.08 195.61 382.49 190.37 360.31 190.54 350.17 190.82 340.61 192.26 330.79 194.69 324.48 199.26 318.3 203.44 312.9 209.54 324.38 204.83 335.34 201.53 347.43 201.86 355.84 202.09 364 203.68 370.71 208.68 362.12 206.37 354.19 206.41 345.76 208.71 328.7 213.36 313.71 221.2 297.77 228.15 287.56 235.99 277.63 243.49 265.72 248.72 272.91 247.57 279.03 245.19 285.43 242.6L293.9 237.09C310.8 228.03 339.67 217.51 356.69 227.33 339.43 223.84 323.99 232 309.53 240.42 309.05 242.24 307.8 243.28 306.34 244.31 297.28 250.64 287.55 255.22 277.18 259 268.26 262.25 259.63 263.97 249.88 266.12 256.84 267.52 262.23 269.72 268.25 272.43 278.94 277.25 290.7 275.66 301.42 271.61 295.62 276 288.44 278.11 280.96 278.69 259.2 280.37 238.14 278.12 216.35 272.79 221.96 278.2 227.88 282.31 232.22 288.14 232.44 288.43 232.09 288.72 231.85 288.5L204.05 275.59C195.06 271.42 186.43 267.52 177.74 262.51 181.68 272 180.95 282.39 172.71 288.17 179.12 274.22 168.92 261.3 157.12 252.49 159.81 259.77 160.11 267.3 154.82 273.12 155.74 265.34 152.92 258.02 147.18 252.4 150.11 261.35 149.17 270.79 140.24 274.49 142.79 268.88 143.45 263.1 140.68 257.5 139.21 254.52 137.58 250.81 134.66 249.42 126.19 245.37 117.33 244.24 108.05 244.19 86.17 244.07 66.35 241.5 49.99 226.93 51.25 232.82 54.85 236.35 58.17 240.45 43.87 234.78 36.41 222.9 33.99 207.4 32.28 213.45 33.16 219.63 34.68 225.98 25.86 216.53 24.29 205.35 27.33 192.52 24.17 195.9 22.77 199.83 21.98 204.07 19.68 197.84 21.19 191.74 24.64 186.13 20.76 186.42 17.23 185.48 15.65 182.09 19.84 182.89 23.33 181.66 26.08 179.36L27.26 180.52C25.58 181.88 23.75 182.9 21.01 183.85 26.03 185.69 33.16 178.23 36.02 172.93 34.83 180.73 24.79 184.2 23.48 194.52 28.88 186 37.42 182.32 40.95 173.32L37.93 185.26C36.68 190.19 38.02 195.2 39.82 199.69 39.32 193.53 40.48 187.7 42.5 181.95L45.31 173.96C45.78 173.96 46.05 174.36 46.36 174.54 46.34 183.22 47.93 190 53.15 196.41 50.89 189.37 51.99 181.06 50.41 174.56 50.7 174.43 50.93 174.37 51.22 174.31 51.21 175.44 52.03 176.35 52.61 177.4 54.99 181.73 59.64 184.47 64.92 183.02 59.85 180.8 56.76 176.85 54.95 171.85 54.27 169.97 53.43 168.4 53.18 166.62 53.26 166.21 53.53 165.87 53.86 165.97 55.04 169.99 58.83 173.34 63.32 172.02 59.1 170.71 56.41 168.22 55.32 164.46L53.18 157.07C52.5 154.74 50.1 153.26 49.11 150.94 47.81 147.91 45.41 146 43.29 143.45 50.53 145.98 51.86 156.97 59.95 157.89 56.81 155.57 54.59 152.8 52.74 149.44 49.95 144.37 45.44 139.17 40.53 139.44 37.86 142.83 42.91 144.14 43.71 148.37 43.77 148.69 43.91 149.08 43.58 149.48 42.59 148.6 41.61 147.72 39.69 147.37 41.58 150.08 42.73 152.68 43.62 155.63L42.61 156.81C42.1 155.61 40.81 154.4 39.31 153.61 41.53 159.48 41.48 165.79 38.01 171.05 37.48 167.33 37.38 164.4 36.35 161.43 35.1 157.82 35.67 155.55 33.82 157.33 33.55 157.59 33.31 157.22 33.1 156.84 34.37 155.59 32.06 153.47 29.88 151.49 34.98 153.01 37.67 157.84 38.65 162.79 39.53 160.1 38.18 157.72 37.74 155.22 37.11 151.67 34.76 149.63 31.68 147.82 35.2 147.72 37.46 149.66 40.1 151.54 38.94 148 36.42 145.49 33.24 144.11 36 143.53 37.67 145.06 40.37 145.87 39.84 143.52 37.83 142.41 35.61 141.12L38.62 139.79C36.94 139.23 35.76 139.34 34.59 138.38 41.29 136.2 48.07 133.47 52.77 127.86 46.46 131.93 39.57 133.96 31.93 134.32 26.58 134.57 21.47 135.25 16.86 137.95 14.34 140.06 12.59 141.97 14.13 143.15 15.78 144.42 18.29 139.07 25.53 139.49 28.13 139.64 30.39 139.22 33.31 138.99 31.06 141.67 28.24 142.67 25.18 142.89 25.33 144.29 24.79 145.46 24.09 145.97 22.04 147.47 17.78 146.44 18.1 144.33 19.13 145.41 20.41 145.69 21.85 145.33 22.82 145.08 23.95 143.63 23.6 142.25 23.46 141.7 22.87 141.74 22.7 142.01 22.28 142.68 23.01 144.67 20.95 144.97 20.1 145.09 19.21 144.24 19 142.77 17.7 144.55 15.86 145.01 13.47 144.3 13.02 146.29 16.72 146.45 18.67 149.16L17.22 150.38C16.92 150.64 17.22 151.11 17.54 151.4 16.43 152.66 16.9 150.24 15.94 149.3L16.45 148.23C14.2 148.06 12.66 145.99 11.4 144.49 8.1 144.6 4.41 147.18 2.88 150.29 6.79 148.94 10.57 147.8 14.7 148.75 11.68 150 9.04 149.51 6.46 150.79L14.84 151.44C14.72 151.75 14.75 152.06 14.86 152.27 15.11 152.77 15.8 152.96 16.26 152.45 16.55 153.05 16.42 153.25 16.43 153.47 12.08 152.68 7.77 152.26 2.97 152.53L-0.01 153.82C0.23 148.81 4.03 144.42 9.04 143.09 10.79 142.62 11.15 141.85 11.68 140.29 12.98 136.48 17.17 135.73 20.06 133.58L30.12 126.09C33.1 123.87 35.13 120.82 36.15 116.94 33.9 117.99 31.95 118.38 30.02 116.8 28.64 115.67 27.86 113.42 28.6 111.2 29.57 108.28 32.34 106.82 35.28 107.15 37.83 107.44 39.9 109.26 40.93 111.98 41.96 114.7 40.9 116.97 40.4 119.95 44.44 116.4 46.37 112.03 48.57 106.98 53.05 118.43 42.69 125.68 33.2 131.75 43.03 131.63 51.38 127.62 57.99 120.78 57.16 128.56 50.6 133.78 43.53 137.22 47.07 138.68 50.16 140.76 52.16 144.1L56.96 152.11C59.17 155.8 62.8 157.96 67.41 157.98 64.39 160.85 60.43 161.01 56.25 159.02 56.3 163.01 58.01 166.95 61.38 169.07 62.81 169.97 64.56 169.87 65.96 169.27 67.09 168.78 67.77 167.8 68.17 166.31 69.17 169.33 67.7 171.7 65.73 173.2 63.59 174.82 61.02 174.51 58.11 173.82 59.07 175.75 60.24 177.35 61.87 178.65L74.08 174.79C77.57 164.4 75.68 153.17 68.1 145.28 64.48 141.51 62.24 137.24 62.17 131.96 62.09 125.92 63.12 120.26 65.01 114.41 69.39 100.84 72.65 87.44 74.94 73.26 78.75 49.65 78.23 25.67 70.46 3.31 76.74 5.47 80.23 10.05 83.28 14.99 87.71 22.18 89.52 30.27 90.62 38.52 92.65 25.58 92.12 13.22 91.54-0.01 105.83 11.24 106.47 29.22 105.97 46.01 108.43 38.12 109.9 30.22 111.2 21.42 122.27 33.93 119.36 51.68 114.48 67.08L127.71 47.21C130.56 54.95 130.22 62.76 127.27 70.01L123.97 78.12 131.2 72.78C131.83 80.45 128.77 86.52 124.48 92.55 126.03 92.46 126.94 91.33 128.61 90.52 129.2 95.99 127.32 100.58 124.53 105.6 128.31 104.31 131.47 102.52 134.66 100.36 143.01 94.73 151.34 89.53 159.2 83.08 180.35 65.73 197.36 44.6 211.31 20.96 212.55 37.78 205.51 50.88 196.73 64.16L205.66 56.23C211.2 51.31 216.3 46.41 221.66 40.82 220.55 53.27 213.07 64.16 205.85 73.78 212.62 69.85 217.8 64.83 224.39 60.51 222.99 69.15 218.42 75.87 213.29 82.08 209.66 86.48 205.38 89.65 201.05 93.74 208.63 90.84 215.02 87.07 222.39 83.51 217.76 94.9 208 102.1 197.71 108.59L209.56 106.98C206.77 112.26 202.58 116.13 197.58 118.9L190.32 122.93 201.5 123.18C196.26 130.36 187.69 134.74 179.46 137.86 182.09 139.02 184.31 138.55 186.92 139.2 182.23 144.81 176.05 148.2 168.97 150.54 169.5 151.51 170.63 151.85 171.67 152.31 168.74 156.89 164.39 158.65 159.54 160.4 161.94 161.94 163.89 162.85 165.35 164.63 162.8 167.53 159.8 169.15 156.19 170.38 158.09 171.76 159.54 174.06 160.7 175.79 167.42 174.87 171.78 175.85 175.34 181.48 178.72 180.5 182.21 179.9 185.42 181.78 187.88 183.22 189.76 185.64 190.12 189.04 191.96 188.29 193.27 187.41 194.09 186.11 200.28 176.31 211.54 175.87 221.84 180.2 212.4 181.12 206.15 181.67 202.92 190.67 199.08 201.35 187.61 207.12 180.31 202.68 178.54 201.6 174.13 201.52 173.82 204.08 173.3 208.37 171.62 211.76 167.26 213.5 158.36 217.06 152.01 211.45 145.2 213.34 160.17 219 180.12 216.16 194.25 208.66 188.88 216.3 180.79 219.55 172.39 222.75 196.9 223.76 225.59 217.71 241.93 199.38 241.18 204.48 238.2 208.11 235.25 211.79 231.57 216.38 226.63 219.1 221.96 222.67 238.86 217.14 256.16 205.65 265.46 190.56 267.98 186.46 269.15 182.38 270.47 177.35 272.45 185.07 269.55 191.95 266.53 199.61 273.25 193.13 279.23 186 284.84 178.34L292.32 168.11C290.28 156.49 298.21 146.94 307.42 140.34 316.82 133.6 326.95 132.63 332.88 122.82 333.44 128.64 330.19 133.1 326.21 136.64 323.91 138.69 321.6 140.72 321.13 144.28 323.09 143.25 324.28 141.78 326.85 141.77 324.87 145.03 323.96 148.21 322.98 151.58 321.12 157.91 317.23 163.08 311.8 166.69 307.82 169.34 303.77 171.71 298.58 172.02 289.17 186.24 277.88 198.83 265.28 210.8L275.63 205.37C281.64 201.19 286.39 195.56 291.31 190.15L303.58 176.64C307.68 172.13 313.45 169 318.89 167.48ZM94.53 61.83C95.33 62.14 95.24 62.9 95.58 63.25 94.62 68.19 93.52 73.19 91.31 77.96 91.73 81.62 90.91 84.67 91.06 88.47L94.82 80.87C97.69 72.9 100.89 65.06 102.36 56.59 104.96 41.54 104.76 18.84 94.59 6.9 95.43 28.09 92.73 47.46 88.32 67.05 89.8 69.6 90.39 72.02 91.11 75.03 92.48 70.72 93.74 66.44 94.55 61.83ZM82.33 59.71 83.51 60.01C83.13 67.63 81.72 74.04 81.71 80.53 85.5 70.35 87.43 60.29 89.34 49.69 88.86 41.83 87.84 34.44 85.72 27.04 83.46 20.46 80.75 14.12 74.98 9.09 78.52 21.23 80.05 33.27 79.98 45.91L78.74 68.38 80.49 73.55C81.79 68.63 82.07 64.25 82.35 59.72ZM102.99 74.64C103.5 74.86 103.79 75.07 103.96 75.63L97.82 90.43C97.19 91.95 97.72 94.07 97.61 95.93 102.07 88.7 106.47 81.4 109.5 73.23 114.85 58.79 119.93 43 112.68 28.25 111.35 38.13 108.2 47.3 105.15 56.86 102.1 66.42 100.18 75.12 96.2 83.87L97.55 87.4 102.99 74.64ZM167.42 82.16C167.93 82.29 168.09 82.58 168.09 83.12L158.67 91.21C156.4 93.16 154.06 95 152.87 98.13 160.75 93.54 167.57 88.55 174.39 82.88L185.54 73.61C195.59 63.11 206.57 46.07 208.16 31.34 194.76 51.86 179.03 70.44 160.05 86.06 158.45 87.38 156.99 88.2 157.35 90.6L167.42 82.17ZM184.57 81.21C185.05 81.29 185.19 81.63 185.22 82 178.04 87.94 170.52 93.49 162.9 99.2 160.45 101.04 159.46 104.56 156.77 106.25 158.75 105.67 160.31 104.84 162.16 103.76 172.89 97.52 182.69 90.42 192.64 82.94 197 79.67 200.16 75.91 203.57 71.83 209.15 65.15 214.09 58.13 216.84 49.45 207.07 59 197.21 67.17 187.02 75.6 180.63 80.88 174.8 86.17 168.05 90.97 166.35 92.18 164.78 93.51 164.84 95.89 172 91.38 178.36 86.36 184.57 81.21ZM111.1 85.33C111.46 85.59 111.75 85.72 111.78 86.2L102.57 100.02C101.56 101.54 100.35 102.82 101.65 104.83 113.29 90.91 128.93 72.25 126.6 53.61L112.57 74.63C111.25 76.61 109.77 78.32 108.91 80.61 105.36 87.83 101.47 94.49 96.44 101 98.51 100.64 98.8 98.53 100.24 97.78 100.48 98.71 100.9 99.37 101.43 99.44L111.11 85.34ZM182.97 96.14C183.33 96.32 183.42 96.57 183.58 97.03 177.09 101.47 170.25 105.54 163.14 109.63 161.15 110.86 160.02 113.37 158.39 115.17 177.47 106.72 195.37 97.32 209.75 81.82 213.67 77.59 217.03 73.26 219.09 67.73 211 73.52 203.72 78.82 195.55 83.5 186.04 91.7 175.71 98.05 165.38 104.77 164.94 105.27 164.69 106.46 164.88 107.01 171.32 103.69 177.34 100.16 182.99 96.15ZM80.11 100.66C80.55 100.74 80.8 100.9 81.1 101.11L77.74 111.27C77.92 111.7 78.62 112.33 79.12 112.42 85.29 99.56 92.02 84.54 87.46 70.45L74.65 110.62C74.21 112 74.61 113.46 74.99 115.11L80.11 100.66ZM73.29 108.91 79.37 87.65C80.76 82.78 79.01 77.66 77.81 72.66 75.85 83.39 73.88 94.06 70.66 104.72 72.33 106 72.23 107.3 73.29 108.91ZM106.31 104.56C106.81 104.76 107.02 105.03 107 105.56L98.54 114.95 102.62 112.29C104.38 111.14 105.78 109.73 107.22 108.26 113.98 101.39 120.62 94.49 125.62 86.13 127.06 83.71 128.3 81.31 127.94 78.31L118.85 86.29C113.05 94.59 106.75 101.92 99.75 110.26 102.57 109.07 104.39 106.64 106.3 104.55ZM85.41 108.97C85.86 109.01 86.18 109.32 86.1 109.74L81.71 118.23C81.1 119.4 80.39 120.77 81.41 122.2 88.63 111.09 97.45 100.81 94.67 86.89 90.08 93.67 87.03 100.71 83.67 107.85L80.54 114.5C80.26 115.09 80.78 116.39 81.07 116.78L85.42 108.97ZM135.38 105.67C135.82 105.87 135.86 106.1 135.87 106.46L131.67 109.69 132.28 111.86 139.64 106.95C146.03 102.69 151.31 97.18 154.43 90.33L137.06 102.27 129.51 107.03C127.78 108.12 126.98 110.43 126.22 112.61L135.39 105.66ZM181.37 109.41C181.66 109.72 181.82 109.95 181.85 110.39 182.33 111.29 181.32 111.4 181.08 110.9L167.27 116.96C165.71 117.64 163.84 117.84 163.12 120.32 176.25 116.34 189.08 111.13 200.77 103.4 206.33 99.72 211.2 95.82 215.24 90.32L207.31 93.83C202 96.47 196.84 98.81 191.11 100.63 182.48 106.69 173.2 111.04 163.62 115.41 163.43 115.69 164.25 116.64 164.64 116.5L165.87 116.08 181.38 109.41ZM108.04 114.27C108.35 114.45 108.62 114.66 108.71 115.16L102.76 120.5C102.03 121.15 101.23 121.91 101.77 123.25 106.15 118.57 111.45 115.53 116.3 111.45 119.7 108.6 125.83 100.12 125.76 95.07L119.43 99.16 103.33 115.05 103.24 118.33 108.04 114.27ZM135.75 114.38C136.18 114.38 136.5 114.66 136.36 115.2 134.05 116.7 131.19 117.36 129.43 120.57L140.39 115.34C149.05 111.21 156.58 105.07 161.25 96L134.93 112.46C133.23 113.52 131.48 114.4 131.36 116.7L135.75 114.37ZM88.28 119.13C88.58 119.28 88.83 119.48 88.78 120L85.3 124.45C84.47 125.51 83.77 126.38 84.72 127.93L92.95 118.78C96.7 113.86 99.15 108.39 98.83 102.16L93.79 107.74 83.67 122.28C83.27 122.85 83.11 123.29 83.36 123.86 83.46 124.09 83.98 124.47 84.3 124.07L88.3 119.13ZM70.13 126.48C73.65 120.59 73.71 113.32 70.12 107.37 68.29 113.79 68.52 119.98 70.13 126.48ZM139.18 120.71C139.54 120.91 139.61 121.15 139.61 121.62L135.29 123.55C133.88 124.18 132.49 124.59 132.16 126.45L140.86 123.24C149.03 120.22 156.34 115.22 161.23 107.35L147.69 114.05C143.02 116.36 138.77 119.06 134.04 121.29 133.81 122.18 134.48 122.74 135.14 122.46L139.19 120.72ZM33 127.94 36.76 123.06C40.18 118.62 40.71 111 36.19 109.36 34.18 108.63 32.08 109 30.87 110.68 29.98 111.92 29.87 113.63 30.56 114.9 31.03 115.76 32.29 116.81 33.68 116.32 34.6 115.99 35.46 114.98 35.49 114.23 35.53 113.28 34.58 112.7 33.45 112.1 35.06 111.29 36.89 112.57 37.47 114.41 39.57 121.1 30.63 128.35 24.28 132.57 25.96 132.75 27.78 132.65 29.1 132 36.26 128.44 46.75 121.59 47.38 113.79 43.98 119.78 39.2 124.59 32.99 127.94ZM75.9 184.35C75.87 183.87 75.71 183.59 75.54 183.57 75.33 183.54 75.11 183.63 74.74 183.61L75.49 182.56C78.36 181.08 80.98 179.18 83.4 177.14 84.3 176.85 83.95 176.03 83.06 175.82 80.1 175.1 77.07 175.78 74.22 176.84 73.58 176.76 73.14 176.72 72.68 177.52 72.35 177.37 71.75 177.23 71.44 177.29 71.13 177.35 70.85 177.82 70.59 178.11 69.59 178.25 68.87 178.71 68.87 179.45 67.74 179.51 65.6 179.86 64.52 180.65 66.04 181.8 67.39 181.85 69.28 182.5 67.17 184.48 64.83 184.94 62.27 185.67 61.9 186.59 63.36 187.45 64.07 187.6 64.16 187.95 64.06 188.37 63.9 188.64 64.63 190.84 64.5 193.54 62.48 195.14 62.96 195.47 62.98 195.77 62.98 195.93 63.01 196.6 62.47 196.45 62.24 196.51 61.67 196.66 62.32 197.3 62.55 197.53 63.08 198.96 62.41 201.18 60.84 202.52 61.91 203.19 62.86 204.24 64.02 204.4 63.99 204.79 63.75 205.29 63.52 205.45 62.91 205.87 63.19 206.59 63.54 207.17 63.64 207.39 63.13 207.84 63.08 208.09 62.48 210.72 60.28 212.68 57.13 212.61 56.83 213.19 57.21 213.66 57.21 213.95L57.24 216.58C57.26 218.43 54.96 219.3 53.23 219.77 52.98 219.84 52.74 220.08 52.79 220.28L52.93 220.85C53.05 221.32 53.58 222.04 53.3 222.81 50.47 221.32 49.42 218.66 47.07 216.68 46.5 220.86 52.32 225.29 56.23 228.53 57.31 227.96 57.99 226.94 58.13 225.81 58.16 225.57 58.5 225.34 58.78 225.3 59.6 226.62 59.2 228.23 57.69 229.33 59.57 230.7 61.68 231.92 63.99 231.55 64.29 231.99 64.66 231.88 64.88 231.8 65.08 231.74 65.3 232.06 65.22 232.36 65.14 232.71 64.74 233.04 64.56 233.27 68.15 235.38 71.86 236.52 75.44 237.62L76.94 237.81C83.86 239.69 91 240.58 98.3 241.03L97.92 239.39C97.84 239.06 98 238.76 98.44 238.81 99.23 238.92 99.69 239.83 99.96 241.03L103.05 240.38C103.51 242.24 105.5 241.36 106.7 241.37 113.75 241.42 120.66 242.09 127.32 244.03 123.08 240.85 118.49 239.46 113.89 238.43 114.02 238.12 114.04 237.88 113.96 237.66 119.43 237.72 124.44 239.44 129.49 241.99 127.6 239.67 125.2 236.9 122.27 236.55L111.63 235.49C111.68 235.28 111.76 235.04 111.23 234.75 111.05 234.65 111.82 234.14 111.81 234.07 113.82 234.39 115.88 234.79 118.47 234.3 114.64 231.63 110.33 229.82 106 228.69 105.83 227.68 107.39 226.67 108.45 226.97 111.41 227.8 114.45 229.31 117.14 230.74 117.14 230.98 117.28 231.42 117.65 231.54 117.93 231.63 118.3 231.38 118.53 231.26 121.09 232.73 124.46 234.46 126.66 236.18 126.99 236.43 127.47 236.89 127.69 237.2 128.79 238.74 131.11 238.7 132.52 237.11 133.28 237.9 133.38 237.78 134.18 237.83 149.06 238.73 165.06 244.38 177.15 253.36 171.26 244.75 162.97 239.68 154.12 236 154.17 235.9 154.19 235.36 153.96 235.24 149.17 232.66 143.77 231.69 138.93 232.75 138.95 234.19 137.31 234.07 136.49 233.59 135.6 233.96 135.18 233.79 134.56 233.49 134.13 233.29 134.54 232.02 135.26 232.16 135.96 232.71 136.57 232.23 136.4 231.55 136.68 231.52 137.02 231.15 137.46 231.27 138.37 231.52 139.47 230.93 140.32 230.84 150.77 229.73 161.05 232.1 171.59 235.71 164.63 228.08 155.63 223.98 145.98 221.05 146.35 222.64 146.77 223.75 146.45 225.42 148.1 225.67 149.86 225.93 150.83 226.43L150.87 227.01C149.35 227.11 147.83 226.78 146.05 226.39 144.45 228.26 142.24 229.02 140.17 228.49 140.33 228.21 140.65 227.96 140.67 227.54 142.56 227.36 145.04 226.23 144.92 223.79 144.75 220.44 141.25 219.66 138.62 219.73 137.79 219.75 138.08 220.17 137.91 220.34 137.57 220.67 137.13 219.97 136.89 220 136.35 218.77 135.05 218.04 133.75 216.67 136.69 215.73 137.73 220.23 139.47 217.55L136.25 213.03C136.27 212.81 136.61 212.15 136.13 212.05 135.85 211.99 135.2 212.29 134.87 212.36 133.61 209.92 131.21 207.22 128.5 207.2L126.81 207.2C126.81 207.2 123.02 206.5 123.02 206.5 123.47 208.47 123.57 209.99 123.24 211.69 121.92 212.21 120.84 212.01 119.77 212.07 119.61 212.07 119.29 212.24 119.13 212.54 118.91 212.21 118.32 211.81 117.64 211.45 116.54 213.66 114.84 214.96 112.57 215.37 112.39 215.05 112.29 214.32 112.26 214.01 113.85 213.74 115.14 212.62 115.82 211.1L111.56 208.95 110.88 212.54 109.58 212.47 102.01 210.73C102.01 210.78 101.59 210.76 101.63 210.6 101.79 210.02 101.25 209.88 100.98 209.73 98.52 208.31 96.01 205.77 93.94 203.48 93.77 203.49 93.32 204.05 93.04 203.98 92.33 203.87 92.42 203.16 92.51 202.83 92.61 198.36 88.19 201.95 83.2 198.46L81.8 200.29C81.44 199.81 81.61 199.45 81.28 198.99 81.12 198.65 81.63 197.96 81.54 197.36 79.88 196.37 79.43 194.04 77.82 193.45L74.32 192.18 74.21 191.44C74.17 191.22 74.51 191 74.94 190.92 76.84 191.43 78.9 191.26 80.22 189.41 80.34 188.84 79.6 187.69 80.33 186.66 81.5 188.64 83.75 188.98 85.64 187.79 87.27 186.77 87.74 184.87 87.15 182.39 88.66 184.29 90.49 184.66 92.08 183.42 93.67 182.18 94.09 180.42 92.72 178.14 94.36 178.72 95.86 178.09 96.47 177.54 97.08 176.99 98 175.95 97.43 174.85 97.1 174.23 95.9 173.62 96.56 172.61 98.93 174.24 101.23 173.3 102.3 171.27 103.22 169.53 102.41 167.65 100.33 166.29 102.39 166.17 103.92 166.06 104.36 164.61 104.8 163.16 104.12 162.01 102.19 161.01 104.08 160.62 105.26 160.75 106.35 159.75 107.2 158.96 107.56 157.74 107.55 156.27 107.54 153.92 106.16 151.5 103.69 151.16 102.95 151.06 101.83 151.83 100.92 150.66 103.19 149.83 104.69 147.87 105.03 145.6 105.37 143.33 104.45 141.07 102.47 139.16 104.91 138.03 107.13 136.42 107.26 133.79 107.41 130.86 107.87 127.7 110.67 126.32 114.5 124.42 117.66 121.42 119.9 117.84L125.34 109.15 112.99 117.38C109.25 119.87 106.08 122.81 103.16 126.3 94.09 137.15 101.58 147.97 95.83 163.36 92.21 173.04 85.15 180.66 75.89 184.39ZM173.93 121.08C173.79 121.43 173.77 121.77 173.96 122.22L154.06 128.36C153.78 128.45 153.52 128.66 153.24 128.95 152.89 129.33 153.29 129.73 153.81 129.54L154.77 129.19 157.79 128.75C158.32 128.67 158.79 128.96 158.75 129.17 158.71 129.37 158.26 129.7 158.57 130.23 170.83 127.72 183.2 123.9 194.27 117.82 197.83 115.86 200.89 113.9 203.67 110.38L189.06 113.21C179.54 116.89 170.51 121.06 160.47 123.45 159.61 123.89 158.76 125.05 158.29 125.8L173.93 121.09ZM115.96 127.07C122.5 124.52 129.38 120.5 129.77 113.32 127.86 114.8 126.09 115.65 124.09 116.73 121.73 118 120.47 120.73 118.85 122.56L122.48 121C119.48 124.2 114.78 125.1 115.96 127.08ZM75.17 125.22C74.82 128.93 73.03 131.79 71.79 135.51 73.83 135.34 73.96 133.41 74.79 132.18 78.35 126.89 80.2 120.63 77.83 114.16L71.14 129.1C71.22 130.12 71.4 131.07 71.93 131.87L75.17 125.23ZM88.79 129.29C89.13 129.44 89.25 129.62 89.39 129.99L83.31 135.72C84.1 136.09 84.98 135.86 85.55 135.38L95.69 126.78C98.66 124.26 100.18 120.62 101.01 116.59 97.43 118.29 94.79 120.61 92.07 123.2L84.4 130.49C84.32 131.55 83.94 132.18 84.35 133.23L88.8 129.3ZM80.11 161.08C81.95 159.85 82.86 158.24 82.6 156.66 82.34 155.08 80.91 154.17 78.98 154.02 81.01 152.13 80.68 149.3 79.01 147.27 77.74 145.72 76.47 144.7 74.24 145.1 75.5 143.14 75.31 141.34 74.52 139.68 73.73 138.02 72.32 136.71 69.8 137.22 70.08 135.04 70.1 133.42 69.45 131.63 67.89 127.33 67.41 123.3 66.75 118.44 65.08 122.6 64.87 126.74 64.78 131.08 64.68 136.14 66.92 140.11 70.27 143.63 77.89 151.65 80.4 162.52 77.44 173.58 79.96 174.16 82.93 172.32 83.17 169.62 83.33 167.83 81.55 167.07 79.85 166.48 81.73 165.93 83.05 165.04 83.04 163.49 83.03 162.14 81.8 161.24 80.11 161.07ZM138.49 128.24C138.86 128.32 139.16 128.59 139.08 128.99 134.87 130.5 130.08 130.73 125.67 133.61 133.89 133.23 141.65 130.95 149.06 128.23 153.86 126.47 157.69 123.19 160.98 119.38L149.63 121.88C143.59 124.22 137.92 127.13 131.53 128.76 130.34 129.06 129.24 129.19 128.79 130.63L138.48 128.23ZM117.56 130.46C117.97 130.48 118.25 130.75 118.16 131.09 116.5 131.94 114.47 132.34 112.77 133.83 112.64 134.34 112.98 135.41 113.37 135.83 121.06 133.24 128.77 129.63 131.8 122.05 126.71 123.69 122.76 126.32 118.15 128.33 116.89 128.88 115.63 129.08 114.9 130.65 115.83 131.34 116.71 130.8 117.55 130.46ZM168.53 132.35C168.83 132.59 169.11 132.89 168.94 133.32L153.04 136.54 145.67 140.28C145.41 140.41 145.08 140.84 145.09 141.01 145.1 141.18 145.31 141.57 145.67 142.03 162.61 140.92 182.61 136.85 196.19 125.62 191.52 125.67 186.98 124.96 182.84 126.18 174.38 128.67 166.28 131.52 157.28 132.55 156.33 132.66 155.59 134.02 155.58 134.71L168.54 132.34ZM79.34 132.77C79.67 132.99 79.56 133.17 79.45 133.42L76.46 139.54C76.28 139.92 77.01 140.73 77.23 140.62 77.45 140.51 77.64 139.97 77.94 139.63 81.54 135.65 83.76 130.67 81.83 125.25L74.53 136.31 76.05 137.91 79.34 132.76ZM113.8 127.22C110.95 127.51 109.34 129.75 109.3 132.75 111.99 132.62 113.74 130.29 113.8 127.22ZM87.22 140.46C87.08 140.91 87.65 141.86 87.97 141.64L95.44 136.24C96.37 133.55 97.05 130.67 98.5 127.64 94.34 130.56 91.59 133.84 87.49 136.29 87.16 136.49 86.63 136.94 86.69 137.24 86.74 137.51 87.02 138.04 87.34 138.58L93.38 134.84C91.51 137.66 87.88 138.34 87.22 140.45ZM259.02 210.23C258.49 210.81 257.69 211.26 258.07 212.56 256.46 213.77 254.76 214.86 253.6 216.82 257.52 215.28 259.98 212.62 262.99 209.96 275.37 199.03 286.11 186.96 295.16 173.54 295.82 172.56 296.81 170.63 298.12 170.36 310.29 167.81 319.79 158.91 322.23 146.27 320.76 146.42 319.84 148 318.43 149.54 317.59 138.49 324.7 136.93 329.03 130.41L319.44 136.28C314.87 139.08 310.04 141.24 305.81 144.59 298.38 150.47 292.61 159.03 293.96 168.63L281.68 185.3C276.5 192.33 270.66 198.36 264.37 204.38L259.02 210.22ZM133.1 136.68C133.36 136.87 133.62 137.14 133.61 137.54L124.56 138.69C123.74 138.79 122.84 139.9 122.44 140.73 134.71 141.35 145.78 140.18 154.62 131.77 149.33 131.2 144.65 132.58 139.56 133.64L125.59 136.54C125.66 136.79 125.57 137.15 125.44 137.33L133.09 136.68ZM111.18 137.74C111.41 136.19 111.09 134.8 109.57 133.97 108.61 136.82 107.62 138.91 105.33 139.84 105.9 140.73 106.3 141.53 106.73 141.79 107.36 142.17 110.81 140.16 111.18 137.74ZM113.12 139.49C113.05 139.54 112.76 139.84 112.85 139.95 112.98 140.1 113.28 140.28 113.41 140.73 112.78 140.58 112.24 141.21 112.34 141.6L112.92 143.78C117.16 142.26 121.24 139.77 123.82 135.11 120.19 135.08 117.28 136.78 113.9 137.63 113.04 137.85 112.86 138.93 113.12 139.49ZM81.27 143.42 80.1 145.32C79.88 145.67 80.78 146.93 81.2 146.85 83.41 146.46 86.8 140.44 84.45 137.93 81.03 137.3 79.92 141.35 76.94 143.06 77.43 143.71 78.58 144.39 79.32 144.36 79.93 144.34 80.71 143.17 81.04 142.6 81.91 142.14 81.94 143.28 81.27 143.42ZM94.05 142.35C93.73 143.17 90.95 145.12 89.88 145.44 89.24 145.63 89.57 147.31 90.33 147.07 92.75 146.32 96.04 144.18 95.44 142.37 95.6 141.95 95.35 141.67 95.16 141.29 95.41 140.62 95.75 139.87 95.07 139.05 92.1 141.11 89.41 142.98 85.95 144.66 89.48 146.27 92.3 142.33 94.04 142.34ZM150.78 145.71 150.76 146.74 141.15 147.24C139.5 147.33 137.76 148.77 136.09 150.27 150.61 152.56 170.11 150.18 181.59 141.1 177.99 140.8 174.58 139.89 171.41 140.57 162.17 142.56 153.16 144.19 143.75 144.62 143.56 144.62 143.05 145.14 142.96 145.3 142.87 145.46 142.96 145.96 143.42 145.95L150.78 145.72ZM29.15 140.9C27.39 140.73 25.99 140.35 24.01 141.21 25.82 142.46 27.47 141.8 29.15 140.9ZM107.13 146.29C108.93 146.02 110.71 144.38 110.4 142.36L107.21 143.75C107.08 144.49 106.98 145.12 107.13 146.29ZM123.02 145.56 122.88 146.11C119.52 146.12 116.36 146.41 112.78 145.98 112.12 145.9 110.95 146.52 110.38 147.51 120.71 150.04 133.44 150.96 141.71 143.27L130.52 143.13 120.49 142.61C119.1 143.02 117.55 143.94 116.23 145.17L123.03 145.56ZM349.03 159.83C349.42 160 349.57 160.24 349.58 160.58 335.35 167.59 322.29 177.08 310.6 189.04 313.11 189.43 314.76 187.4 316.45 185.77 329.79 172.89 347.22 161.74 364.96 157.25 374.7 162.01 385.26 162.46 395.25 158.19 394.29 157.12 392.95 157.04 391.14 156.15 399.26 152.8 406.21 155.93 414.04 157.68 399.44 145.29 375.59 139.44 362.46 153.33 338.62 159.28 319.06 175.59 301.64 192.59 304.27 192.46 305.96 191.1 308.25 190.41 318.93 178.23 334.72 166.45 349.01 159.84ZM82.11 150.44 82.39 151.45C81.87 152.11 81.45 152.94 81.79 153.38 82.42 154.2 83.54 153.57 84.3 153.35 86.64 152.65 89.54 149.84 87.99 147.33 86.96 145.65 81.9 148.17 81.99 149.12L82.11 150.43ZM89.88 151.65 95.3 148.87C95.75 148.64 95.65 147.09 95.11 146.66L90.72 149.22C90.22 149.51 89.85 150.67 89.87 151.65ZM106.35 164.26C110.39 163.82 113.38 160.24 112.84 155.71 112.42 152.17 110 149.33 106.71 147.84 106.15 148.13 105.5 148.83 105.3 149.8 107.76 150.79 109.01 153.05 109.33 155.21 110.12 160.54 105.81 162.01 105.92 162.48L106.34 164.26ZM93.72 153.03C95.2 152.27 95.89 151.15 95.13 149.79L89.79 152.77C90.14 153.27 90.9 154.46 91.61 154.1L93.72 153.02ZM121.4 153.62 121.4 154.14C121.4 154.14 114.98 154.02 114.98 154.02L115.28 156.62C121.99 158.05 128.98 156.57 134.28 152.18 131.93 151.48 129.67 151.19 127.3 151.37 122.1 151.75 117.37 151.03 112.27 149.77L114.02 152.43 121.4 153.63ZM144.05 155.14 143.85 155.94 134.26 155.36C133.57 155.51 132.47 156.21 131.94 156.92 144.16 159.45 158.38 161.43 168.04 153.33 166.06 152.88 163.83 152.06 161.56 152.36 153.65 153.44 145.97 153.91 138 152.96 136.96 152.84 136.08 153.1 135.68 154.2L144.03 155.13ZM89.55 155.25C88.77 153.56 84.95 154.39 84 155.39 84.98 157.09 84.38 158.58 83.29 159.91 87.19 160.38 90.52 157.35 89.55 155.24ZM94.89 155.76C95.24 155.22 94.62 154.67 94.37 154.79L93.6 155.14C92.71 155.54 92.21 155.7 91.88 156.04 91.35 156.58 91.88 157.32 92.2 157.22 93.24 156.92 94.28 156.7 94.89 155.76ZM89.99 159.92C91.52 160.82 92.67 160.74 93.47 159.84 94.01 159.23 94.95 158.02 93.94 157.46 91.98 157.86 90.41 158.49 89.99 159.92ZM140.3 163.36 139.58 164.2 129.62 161.92C129.51 162.65 130 163.27 130.37 163.45 139.41 167.85 154.04 171.65 161.89 164.71 159.86 163.64 157.6 161.22 155.21 161.29 146.11 161.56 137.39 160.98 128.92 158.01 128.02 158.16 126.86 158.3 126.07 158.89 130.75 161.22 135.45 162.61 140.3 163.36ZM119.96 161.61 119.81 162.13 113.89 161.54C113.46 161.74 112.86 162.69 112.54 163.43 117.58 164.9 122.97 165.73 127.6 162.9 123.83 158.15 119.77 159.87 114.99 158.54 114.52 159.54 114.54 159.9 114.65 160.19 114.8 160.62 115.51 160.72 115.96 160.81L119.96 161.62ZM89.87 165.93 91.03 162.59C89.42 160.71 86.61 160.63 84.33 161.66 84.22 162.28 84.79 163.04 85.66 163.48 84.71 164.16 84 165.05 83.87 166.37 85.91 165.54 87.67 165.54 89.87 165.93ZM92.56 161.19C92.07 161.74 92.68 162.31 93.03 161.94 93.15 161.81 93.54 161.52 93.5 161.34 93.45 161.13 92.92 160.78 92.55 161.19ZM111.84 167.34C111.45 167.41 111.13 167.7 111.14 168.06L111.23 170.29C115.23 172.78 120.21 173.43 124.8 171.16 121.92 165.63 117.51 167.49 111.19 164.83 110.41 164.5 109.78 165.93 110.41 166.3 110.78 166.52 111.15 167.1 111.83 167.34ZM133.43 169.53C133.2 169.95 133.07 170.2 132.48 170.35 129.64 169.25 127.38 166.71 124.06 166.84 131.19 172.91 139.28 177.54 148.17 179.15 151.61 179.77 154.94 177.46 157.69 175.64 156.41 173.43 154.74 172.26 152.89 170.84 144.66 171.09 136.86 168.89 129.52 165.34 128.66 164.92 127.69 165.18 126.82 166.21L133.43 169.53ZM95.94 182.03C99.05 182.8 102.46 179.35 101.54 174.92 104.14 175.49 106.51 174.67 107.9 173.05 110.05 170.55 109.78 166.29 106.71 165.07 106.05 166.16 105.15 167.02 103.61 167.54 104.48 169.48 104.49 171.24 103.46 172.8 102.54 174.18 101.06 175 99.13 175.14 99.36 177.73 97.55 179.46 95.24 179.92 94.99 180.42 95.14 181.82 95.96 182.02ZM89.33 168.33C88.27 166.99 85.17 166.95 84.4 167.98 84.55 169.06 85.65 170.5 84.49 171.59 85.57 171.94 87.26 171.96 88.12 171.12 88.7 170.56 90.15 169.37 89.33 168.33ZM445.64 198.55C451.12 200.23 455.65 202.59 459.78 205.7L465.36 211.53C463.04 203.92 457.23 198.39 450.39 194.72 450.59 192.98 449.88 191.44 448.68 189.95 442.34 182.02 430.3 175.44 420.28 177.73 392.31 164.69 362.18 168.84 335.56 182.41L346.2 181.25C369.63 171.09 395.53 170.03 418.51 181.59 421.31 195.75 435.69 204.44 449.5 203.3L445.64 198.55ZM87.39 172.8C85.92 172.01 84.13 172.01 83.18 173.35 84.66 174.13 86.19 174.1 87.39 172.8ZM110.11 173.25 108.98 174.89C108.73 175.25 108 175.5 107.73 175.98 110.79 178.86 114.24 179.89 118.32 179.39 117.3 175.87 114.96 173.92 111.59 173.1 111.42 173.06 111.12 172.42 110.95 172.45 110.66 172.52 110.33 172.94 110.11 173.25ZM126.16 172.69C125.93 172.91 125.36 173.74 125.05 173.7 124.74 173.66 123.85 174.14 124.09 174.36 130.58 180.26 142.07 188.76 150.29 187.51 149.55 185.8 148.53 182.44 146.44 181.75 140.14 179.68 134.39 177.29 128.92 173.28 128.05 172.65 127.02 171.84 126.17 172.68ZM127.38 183.16C127.25 183.4 127.06 183.62 126.53 183.69L120.97 179.22 120.41 180.9C127.29 187.5 136.14 195.47 145.53 193.86 144.99 192.42 144.5 190.32 143.22 189.67 135.89 185.97 128.72 182.19 122.95 176.16 122.26 175.44 121.87 174.43 121.1 174.47 120.23 174.51 119.44 174.37 118.68 175.14L127.38 183.14ZM104.25 178.89C104.36 179.04 104.13 179.44 103.82 179.36 103.08 179.18 101.87 181.14 102.28 181.79 104.51 184.99 108.35 186.44 111.95 186.62 111.83 181.43 105.66 176.19 104.46 177.04 103.67 177.59 103.73 178.16 104.26 178.89ZM48.91 215.77C49.05 215.92 49.01 216.3 49.26 216.89 50.14 216.22 49.39 215.56 49.26 215.12 47.06 208.11 47.73 200.78 47.95 193.2 48.01 191.18 46.61 189.07 45.89 187.01 45.49 189.54 44.57 191.85 44.86 194.16L44.22 194.31C44.16 190.36 44.16 186.59 45.18 182.45 45.53 181.03 45.37 179.23 45.08 177.63 43.45 182.77 42.22 188.09 41.95 193.75 41.6 200.95 44.21 210.57 48.91 215.76ZM171.14 197.59 171.25 196.33C176.69 196.39 180.27 202.73 187.29 201.75 194.05 200.8 199 195.85 201.32 189.62 203.28 184.35 206.92 180.94 212.95 179.72 206.1 178.25 199.81 181.44 196.03 186.9 194.19 189.55 191.64 191.01 188.19 191.09 188.6 187.57 186.84 184.71 183.72 183.36 181.1 182.23 178.19 182.4 175.62 183.58 175.99 186.55 174.97 189.11 173.04 190.96 171.35 192.58 168.75 193.5 166.27 192.91 164.36 192.46 162.9 191.03 162.39 189.46 161.88 187.89 162.35 185.89 163.72 184.75 164.73 183.91 165.98 183.75 167.17 184.12 167.82 184.32 168.85 184.91 168.47 186.37L167.01 185.12C165.22 184.88 164.13 186.29 164.01 187.6 163.89 188.91 164.79 190.23 166.25 190.78 168.69 191.7 171.33 190.62 172.7 188.62 174.07 186.62 174.19 184.21 172.78 181.94 168.45 174.95 158.39 178.07 150.99 183.03 152.03 185.29 152.93 187.08 153.16 189.46 150.82 190.13 149.02 190.2 146.62 190.22L147.98 195.56C145.21 196.59 142.56 196.32 139.4 196.27 139.61 198 140.71 200.62 139.7 201.87 137.57 203.68 134.2 202.61 131.65 202.18 131.62 203.1 131.81 204.32 132.32 204.84L136.77 209.43C139.12 211.85 141.8 212.42 144.86 211.31 150.37 209.32 157.17 213.89 165.12 211.84 169.56 210.69 171.41 207.25 171.9 202.87 172.09 201.16 174.87 200.28 176.36 199.82 174.88 198.15 172.8 197.79 171.14 197.59ZM294.83 196.15 303.39 179.63 283.66 201.27 294.83 196.15ZM118.92 185.35C118.88 185.76 118.76 186.1 118.08 186.2 116.46 184.76 115.81 182.24 112.73 181.85 117.27 189.63 128.53 201.41 137.81 200.48 137.64 198.96 137.44 196.59 136.35 195.41 129.44 192.01 123.27 187.77 118.35 181.77 117.22 181.79 116.65 181.49 115.63 181.88L118.91 185.34ZM60.8 185.47C57.86 185.1 55.92 183.68 53.46 182.26 53.37 184.15 53.35 185.77 53.97 187.37 54.55 188.88 56.74 188.91 58.14 188.61 59.43 188.33 60.66 187.11 60.8 185.46ZM32.59 193.26C32.12 193.33 31.83 193 31.75 192.53L34.14 185.68C33.15 186.43 31.81 187.18 31.29 188.32 27.34 197.09 26.85 207.25 30.78 216.07 30.95 209.84 31.94 204.7 33.67 199.22L35.71 192.72C36.11 189.36 35.96 186.34 36.71 182.96 34.98 186.19 34.45 189.49 32.45 192.68 32.59 192.93 32.61 193.19 32.59 193.26ZM88.69 188.86C90.42 188.52 92.68 189.29 94.11 187.62 95 186.57 96.03 184.85 95.13 182.66 93.55 184.95 91.42 185.9 88.83 185.63 87.25 192.28 80.94 188.61 81.45 191.35 81.6 192.15 85.3 193.26 88.68 188.87ZM99.4 185.19C99.6 185.48 99.3 185.87 98.87 185.69 98.64 185.26 97.99 184.87 97.4 184.59L96.89 187.3C98.89 189.53 101.58 190.98 104.89 191.09 105.41 189.27 104.7 187.4 103.37 186.09L100.16 182.93C99.61 183.19 98.99 183.65 98.84 183.89 98.54 184.36 99.1 184.89 99.4 185.19ZM186.32 236.64 186.07 237.72 184.94 237.28 176.26 236.82C176.62 238.16 177.73 239.62 178.67 239.77 189.6 240.32 200.18 240.36 210.82 238.36 210.92 238.61 211.93 238.58 212 239.05 212.08 239.62 211.85 240.29 211.75 240.79 201.12 242.51 190.36 242.86 179.25 242.23 175.33 242.3 171.89 240.46 167.72 241.09 186.25 248.39 205.37 246.64 224.78 242.58 234.24 240.6 243.04 237.89 251.45 233.33 254.61 231.62 257.91 230.82 260.85 228.57L243.37 233.23 239.11 234.51 239.11 233.52C235.56 233.05 232.72 235.4 232.35 233.22L241.37 230.21 258.85 221.91C285.69 209.16 310.65 195.18 340.93 189.87 361.85 186.2 385.79 187.48 404.33 198.11 398.82 193.16 392.22 190.06 385.28 187.61 373.58 183.48 361.53 182.59 349.01 183.6 317.04 186.18 291.4 200.14 263.87 214.69 251.39 221.52 239.17 227.32 225.86 232.53 207.81 236.19 189.79 235.77 171.72 232.09 172.36 233.35 173.67 234.77 174.88 235.05 178.64 235.9 182.46 236.52 186.3 236.66ZM60.36 194.67C62.12 194.54 62.9 192.75 63 191.78 63.12 190.62 63 188.91 61.73 187.82 60.15 189.58 58.11 190.25 55.35 190.08 57.02 191.55 58.39 193.86 60.37 194.67ZM117.19 194.78C117.1 195.03 117 195.22 116.57 195.48 114.55 193.54 112.55 191.5 110.6 189.01 109.98 188.62 108.68 188.22 107.79 188.44 113.81 196.16 120.19 204.54 129.73 204.77 129.8 203.58 129.64 202.55 129.31 201.31 123.49 198.33 118.68 193.95 114.6 188.81 114.24 188.36 113.58 188.25 113.21 188.4 112.94 188.51 112.58 188.59 112.42 189.18 112.34 189.47 112.84 189.92 113.12 190.23L117.19 194.78ZM94.15 189.92 93.16 190.56 90.05 190.97C91.66 194.26 94.3 196.28 97.82 196.45 98.12 193.54 97.05 191.14 95.33 189.04 94.91 189.5 94.54 189.65 94.14 189.91ZM58.72 195.26C57.07 193.21 55.94 191.68 53.95 190.43 53.78 192.55 54.31 194.11 55.22 195.73L58.72 195.26ZM106.61 192.71 104.92 193.25 100.59 192.42C104.96 199.81 111.81 209.03 121.02 209.67 121.21 208.5 121.12 205.82 120 204.85 115.26 200.88 110.82 196.92 107.65 191.41 106.78 191.74 106.79 192.5 106.61 192.72ZM81.08 193.52C83.34 197.06 87.16 198.66 90.87 198.36 90.18 195.68 89.18 193.86 88.01 192.11 87.3 192.77 86.7 192.94 86.32 193.14 86.08 193.27 86.09 194.2 86.53 194.68 84.92 194.08 83.32 193.57 81.08 193.52ZM228.06 225.23 227.95 226.53C223.15 228.69 218.33 230.03 213.38 231.68 220.43 231.78 226.47 229.34 232.69 226.83 236.82 224.84 241.3 223.77 244.96 220.95 254.48 213.6 262.75 204.72 266.68 193.11 257.8 204.98 247.02 213.91 233.98 220.16 227.42 223.3 221.32 226.36 214.24 227.77L192.55 232.07C203.05 233.76 218.51 229.68 228.07 225.25ZM40.39 211.06C40.11 211.08 39.85 211.42 39.42 211.3L38.32 205.56C37.69 202.28 37.99 199.05 36.58 195.9 34.37 208.1 39.47 224.73 49.67 232.65 46.82 226.28 44.69 220.72 44.65 214.16 44.6 212.86 43.25 211.38 42.88 210.25 42.06 207.97 41.24 206.07 39.58 204.37L40.4 211.07ZM55.65 202.08C53.35 199.98 52.02 197.97 50.06 195.5 49.84 197.48 49.45 199.73 50.09 201.43 51.14 202.9 54.18 202.91 55.64 202.08ZM98.9 199.12C98.9 199.4 98.68 199.6 98.25 199.65 97.99 199.37 97.54 199.44 97.8 198.57 96.1 198.43 95.04 197.66 92.9 197.86 96.46 203.93 101.7 208.49 108.63 210.05 108.94 209.1 108.86 207.86 108.61 207.13 105.35 203.35 102.36 199.8 99.76 195.87 98.98 197.15 98.65 198.14 98.9 199.12ZM60.79 196.73C58.92 196.78 57.4 197.28 55.66 196.52 56.04 198.75 56.66 200.6 58.18 202.03 60.6 201.89 62.35 198.04 60.8 196.73ZM312.15 200.7 310.91 201.09 307.73 202.22C304.37 203.42 302.06 205.15 299.28 207.21L284.5 218.15 279.52 221.87 286.96 221.06C287.79 220.97 289.02 220.11 289.68 219.56L304.74 207.07C305.05 207.29 305.14 207.51 305.19 207.81L292.73 219.08C297.12 216.57 302.31 215.55 306.1 212.27 311.94 207.21 316.93 201.52 323.55 197.13 319.17 197.61 315.86 199.54 312.16 200.71ZM54.89 204.45 49.83 203.01C49.71 205.01 49.5 207.84 50.64 209.39 51.6 210.7 53.85 209.39 54.58 208.57 55.43 207.62 56.57 204.93 54.89 204.45ZM61.75 207.82C62.07 206.39 61.69 204.39 60.08 203.66 59.14 203.23 57.48 203.49 56.05 203.75 57.63 206.32 56.97 209.2 54.15 211.1 57.61 212.19 61.02 211.03 61.74 207.83ZM293.48 221.1C293 221.32 292.3 221.1 292.12 222.19 291.9 223.54 289.7 222.95 288.58 223.05L274.06 224.34C272.45 224.48 271.15 225.72 270.34 226.92L282.77 225C282.68 225.35 282.64 225.71 282.67 226.08L267.55 228.76 257.65 233.36C257.25 233.55 256.82 233.61 256.63 233.96 256.28 234.6 256.94 234.57 257.21 234.54 257.65 234.5 257.98 234.43 258.08 234.07L286.23 228.43 300.36 224.32C316.98 216.66 331.93 209.22 350.35 204.81 338.12 203.68 326.37 206.45 315.29 211.39L293.49 221.1ZM292.75 208.71C280.87 213.89 269.07 219.68 257.32 225.66L252.79 227.55 252.11 227.76C251.96 227.81 251.56 228.19 251.63 228.33 251.91 228.87 252.51 228.28 252.78 228.2 258.37 226.5 265.15 225.46 270.63 222.48L284.21 215.09 292.72 209.4 295.01 208.04C294.88 207.65 294.04 207.57 293.72 207.71 293.36 207.87 292.97 208.27 292.76 208.71ZM184.18 227.04C184.21 227.37 184.59 227.61 184.54 228.09L179.44 228.21 167.72 228.44C174.33 230.61 180.72 230.72 187.3 230.06 193.14 229.48 198.71 228.9 204.3 227.36 215.55 224.25 226.19 218.85 234 209.8 228.93 212.72 224.45 215.5 219.03 217.59 200.81 224.64 181.19 226.95 161.54 224.3 163.38 227.27 177.65 227.92 181.33 227.43L184.18 227.05ZM55.59 213.18C53.83 212.3 52.53 211.45 50.49 210.94 50.76 213.2 50.95 215.75 52.12 217.67 52.83 218.85 55.2 217.67 55.69 216.61 56.08 215.77 56.69 213.72 55.6 213.17ZM155.61 220.02C155.72 220.42 155.79 220.8 155.47 221.22 156.74 222.31 158.58 222.46 160.53 222.28 169.15 221.5 177.68 219.66 184.75 214.73 170.89 219.35 154.3 220.09 140.68 214.36 141.02 216.17 142.12 216.71 142.8 218.05 147.15 218.96 151.4 220.12 155.61 220ZM240.85 259.74C240.94 260.15 241.32 260.35 241.32 260.89 224.97 262.6 208.88 261.54 193.24 257.33 192.58 257.15 191.76 256.57 191.01 257.26L192.82 258.1 199.67 261.63C226.07 267.46 253.01 265.1 278.23 255.8 287.86 252.25 296.82 248.09 305.19 242.1 305.42 241.94 306.25 241.39 306.13 241.19 306.01 240.99 305.41 240.57 305.94 240.19 314.25 234.25 323.24 230.34 332.64 226.49 319.8 227.84 308.31 232.62 297.06 238.12L287.26 244.38 271.41 250.04C264.8 252.4 258.31 252.85 251.61 254.52 240.03 257.39 228.85 259.78 217.12 259.81 225.39 261.09 233.09 260.34 240.85 259.75ZM177.73 250.38C200.37 258.27 224.73 259.38 247.64 252.48 263.42 247.73 277.85 240.47 290.83 230.32L278.17 233.17C271.94 236.52 266.28 239.66 259.75 242.2 232.33 252.87 202.37 253.94 173.73 245.22 174.55 247.24 176.33 248.21 177.73 250.38ZM173.4 239.11C167.83 236.92 162.58 235.31 156.7 234.57 161.85 237.4 167.34 238.95 173.4 239.11ZM207.79 248C207.32 248.06 206.44 247.38 205.97 248.28L207.66 248.41C229.16 249.09 250.74 244.61 269.98 234.56 262.57 235.73 256.08 237.25 248.76 237.93 235.46 243.13 221.82 246.24 207.79 248ZM146.23 244.59C146.18 244.92 145.97 245.3 145.52 245.14L139.9 241.2C139.11 240.65 137.76 240.49 136.85 240.66 146.27 247.25 154.36 254.69 156.52 265.57 158.72 256.84 152.78 247.51 145.84 242.22 144.89 241.5 143.23 241.32 141.97 241.23L146.24 244.59ZM139.36 247.17C138.92 247.38 138.73 247.39 138.39 247.37 136.61 245.75 135.18 243.66 132.55 243.11 140.3 250.63 145.67 258.73 144.09 269.43 149.68 262.07 145.37 249.35 138.5 244.68 136.43 243.27 134.85 240.86 132 240.99 134.93 242.84 137.5 244.53 139.37 247.17ZM166.47 253.9C166.26 254.08 166.2 254.25 165.86 254.4 161.2 249.98 156.13 245.56 149.76 242.93 153.14 246.86 157.2 249.46 161.13 252.58 169.38 259.12 175.78 268.11 176.95 278.61 181.1 265.55 169.04 249.41 156.7 244.93L164.32 251.56 166.46 253.89ZM184.18 262.94C180.32 258.22 175.94 254.51 170.58 251.44L175.34 258.33 184.18 262.94ZM191.64 262.49C191.37 262.99 190.89 263 190.27 262.98L184.01 259.66C184.05 260.94 184.27 263.03 185.17 263.85L198.06 270.28 222.68 281.65 215.44 275.38C205.15 267.28 193.87 261.04 181.73 255.05 181.49 256.8 183 258.04 184.44 258.78L191.63 262.5ZM236.74 269.8 236.11 270.76 220.66 267.54 205.88 265.46C208.58 267.92 211.6 268.94 215.2 269.86 228.28 273.21 241.29 275.6 254.75 276.56L273.05 276.72 268.66 275.28 258.99 271.08C252.94 269.18 246.72 267.2 240.32 267.26L226.29 267.38 236.74 269.8Z" fill="#9F1D23"/><path d="M17.54 151.4C20.2 153.6 23.48 154.43 26.95 155.43L31.05 156.61 27.55 153.04C30.16 153.25 31.99 154.91 33.1 156.83 33.31 157.21 33.55 157.58 33.82 157.32 35.67 155.54 35.1 157.81 36.35 161.42 35.78 161.58 34.71 162.47 34.8 163.29 35.59 170.23 32.37 176.37 27.24 180.52L26.06 179.36C29.99 176.06 32.68 171.36 32.85 165.98 32.99 161.34 30 158.04 25.53 157.38 22.05 156.86 18.91 155.49 16.43 153.48 16.43 153.26 16.55 153.06 16.26 152.46 15.8 152.96 15.11 152.77 14.86 152.28 14.75 152.07 14.72 151.76 14.84 151.45 14.84 150.58 15.27 149.88 15.93 149.31 16.89 150.25 16.42 152.67 17.53 151.41Z" fill="#961219"/><path d="M319.56 168.07C319.64 167.73 319.39 167.46 318.89 167.49 319.56 167.3 320.34 166.37 321.28 167.33L319.56 168.08Z" fill="#DAA59F"/><path d="M81.3 198.97C81.63 199.43 81.45 199.79 81.82 200.27L80.56 201.91C81.7 203.03 81.84 204.53 82 205.96 85.72 208.02 91.01 206.89 92.52 202.81 92.43 203.14 92.33 203.86 93.05 203.96 92.31 206.77 89.54 207.8 86.47 208.67 87.92 210.23 88.38 211.75 88.52 213.33 94.34 214.21 99.9 214.1 100.99 209.71 101.25 209.86 101.8 210 101.64 210.58 101.6 210.74 102.01 210.77 102.02 210.71 101.18 213.69 98.5 214.69 94.74 215.21 97.11 216.39 96.91 219.24 97.5 220.74 99.58 221.88 103.16 222.2 104.13 224.97 104.45 225.88 104.84 226.4 105.61 226.41 106.38 226.42 107.01 225.95 107.18 225.01 108.27 218.96 101.75 218.8 100.74 217.84 99.37 216.53 104.99 219.03 107.7 216.78 108.79 215.87 109.36 214.01 109.59 212.45L110.89 212.52C110.83 212.82 110.65 213.56 110.76 213.85 110.92 214.27 111.95 214.32 112.27 214 112.3 214.31 112.4 215.04 112.58 215.36 114.1 217.24 115.57 219.14 115.17 221.99 117.74 222.4 119.43 220.52 120.33 218.63 121.34 216.52 120.34 214.36 119.13 212.52 119.29 212.22 119.61 212.06 119.77 212.05 121.08 213.01 122.04 214.05 122.23 215.98 123.41 216.2 124.9 216.22 125.65 215.6 125.77 215.99 125.92 216.23 126.23 216.22 126.09 216.72 125.77 216.91 125.01 217.58 126.74 218.46 126.92 220.34 127.75 221.76 128.74 222.6 130.89 221.21 131.5 220.01L132.8 220.17C132.29 220.91 132.22 221.94 130.67 222.63L133.47 225.2C134.89 225.31 136.35 224.66 136.92 223.5 137.39 222.55 137.36 221.08 136.88 220 137.12 219.97 137.55 220.66 137.9 220.34 138.08 220.17 137.78 219.75 138.61 219.73 138.86 221.85 139 223.99 136.87 225.66 137.79 226.95 139.01 227.7 140.65 227.54 140.63 227.96 140.3 228.21 140.15 228.49 139.08 228.32 139.23 229.06 139.31 229.93 139.38 230.63 139.27 230.97 140.31 230.84 139.47 230.93 138.37 231.52 137.45 231.27 138.56 228.88 136.55 226.16 133.5 225.71 133.71 227.8 133.4 229.37 132.13 230.58 132.69 231.41 133.4 231.31 133.78 231.8 133.43 231.83 132.94 231.85 132.72 232.13 132.61 232.28 132.57 232.66 132.65 232.84 131.77 231.98 130.89 231.72 129.15 231.2 130.56 230.04 131.8 229.28 131.93 227.45 132.08 225.34 130.06 222.83 127.93 222.87 127.3 224.22 126.56 226.26 125.37 227.31 127.54 228.58 128.85 230.1 129.02 231.61 129.26 233.83 128.98 235.63 127.69 237.21 127.47 236.91 126.99 236.45 126.66 236.19 127.6 234.65 127.99 233.06 127.45 231.5 126.91 229.94 125.91 229.19 124.28 228.2L120.63 227.47C121.26 226.46 122.65 226.96 123.47 226.58 125.71 225.54 126.56 223.16 125.96 221.14 125.43 219.37 124.16 217.53 122.13 217.22 122.03 220.22 120.09 221.61 117.95 222.94 120.96 225.54 120.81 228.81 118.52 231.27 118.29 231.4 117.92 231.65 117.64 231.55 117.27 231.43 117.12 230.98 117.13 230.75 118.66 229.69 119.4 227.86 118.54 225.91 117.98 224.64 116.57 223 114.8 222.83 113.78 225.45 111.78 227.34 108.95 226.23 111.34 225.85 112.59 224.37 113.38 222.43 114.72 219.13 111.17 214.89 110.55 215.55 109.24 216.95 108.27 218.37 106.11 218.84 109.44 221.5 108.33 224.17 108.42 226.98 107.35 226.68 105.8 227.69 105.97 228.7 103.63 228.09 101.34 227.86 98.59 227.66 99.87 226.55 101.17 226.64 102.67 226.43 101.49 222.98 96.02 222.11 91.34 221.79 93.03 225.02 91.83 227.7 89.13 229.37 91.65 231.25 92.47 235.1 90.18 237.02 87.48 239.28 82.95 238.96 80.85 235.99 83.99 236.92 86.36 238.12 88.87 236.31 90.19 235.37 90.82 233.9 89.81 232.29 88.51 230.21 86.39 228.92 84.24 227.82 85.71 226.73 87.05 228.28 88.06 228.21 89.73 228.09 90.67 226.31 90.71 225.14 90.85 220.34 83.24 218.67 77.04 219.26 77.79 221.05 78.14 222.15 77.91 223.94 80.27 224.68 82.66 225.97 83.55 228.24 84.31 230.15 83.43 232.09 82.2 233.14 80.76 234.36 79.08 235.02 76.71 234.66L76.88 237.84 75.38 237.65C75.99 234.57 73.65 232.03 70.87 230.15 73.86 229.28 74.61 232.92 76.48 233.59 78.35 234.26 81.55 232.65 82.22 230.74 83.01 228.47 80.22 225.25 77.96 225.55 75.22 227.51 72.19 229.97 68.17 228.38 68.27 230.05 67.99 230.76 67.28 231.57 66.76 232.17 66.02 232.56 65.17 232.4 65.24 232.1 65.03 231.77 64.83 231.84 64.61 231.91 64.24 232.02 63.94 231.59 65.08 231.41 66.77 230.79 66.92 229.06 67.05 227.47 65.03 224.6 63.58 224.74L58.73 225.35C58.46 225.38 58.11 225.62 58.08 225.86 55.3 223.98 54.9 221.35 52.87 220.9L52.73 220.33C52.68 220.13 52.92 219.89 53.17 219.82 54.68 220.5 55.48 222.02 56.78 223.05 58.61 224.5 61.64 224.21 63.48 222.67 64.65 221.69 64.53 218.35 63.13 217.89 61.24 217.27 58.95 217.69 57.18 216.63L57.15 214C57.66 215.81 59.4 216.32 61.12 216.25 62.68 216.19 64.48 215.41 65.29 213.71 66.28 211.63 64.84 209.11 63.01 208.14 63.07 207.89 63.58 207.44 63.47 207.22 65.39 207.72 66.39 209.79 66.75 211.3 67.33 213.74 66.44 215.45 64.44 216.72 66.45 217.71 68.49 217.94 70.28 217.22 71.69 216.66 72.51 215.34 72.85 214.16 73.22 212.89 72.79 211.23 71.58 210.34L68.29 207.91C71.94 208.25 75.19 211.95 78.97 208.52 80.5 207.14 80.99 204.43 79.79 202.48 76.77 203.89 74.03 203.61 71.63 201.86 70 205.08 66.67 206.41 63.44 205.49 63.68 205.33 63.91 204.83 63.94 204.44 65.41 204.64 67.4 204.29 68.66 203.38 71 201.7 71.47 198.88 69.81 196.8 70.16 196.67 70.64 196.17 70.92 195.9 72.16 197.19 71.96 199.59 72.43 200.95 75.06 203.18 79.73 201.92 81.24 199.03ZM85.84 215.29C87.07 214.22 87.26 212.69 86.74 211.38 85.86 209.14 83.72 207.89 81.64 207.28 79.87 210.24 77.23 211.66 74.02 211.11 74.58 213.39 74.31 214.96 73.62 216.77 77.72 218.74 82.41 218.26 85.84 215.29ZM95.86 220.47C95.73 217.85 94.49 216.3 92.61 215.59L88.33 213.98C87.34 216.16 86 217.1 84.23 218.27 86.76 218.79 88.7 218.96 90.52 220.54L95.86 220.47ZM76.77 223.51C77 220.41 75.18 218.51 72.63 217.62 70.1 219.27 67.59 219.14 65 218.01 66.07 220.28 65.39 221.91 65.06 223.68L68.3 226.91C71.55 228.7 75.58 226.68 76.77 223.51Z" fill="#C3723E"/><path d="M33 127.94C32.56 128.25 30.7 127.97 31.11 129.79 32.27 129.14 32.56 128.51 33 127.94 39.21 124.59 43.99 119.79 47.39 113.79 46.76 121.59 36.28 128.44 29.11 132 27.79 132.66 25.96 132.75 24.29 132.57 30.64 128.35 39.58 121.1 37.48 114.41 36.9 112.57 35.07 111.29 33.46 112.1 34.59 112.7 35.55 113.28 35.5 114.23 35.46 114.98 34.61 116 33.69 116.32 32.3 116.81 31.04 115.76 30.57 114.9 29.87 113.63 29.98 111.92 30.88 110.68 32.09 109 34.19 108.63 36.2 109.36 40.71 111 40.18 118.62 36.77 123.06L33.01 127.94Z" fill="#F5F6F9"/><path d="M145.52 245.14 151.29 251.78C151.43 249.4 149.43 248.2 148.31 246.94L146.22 244.6 141.95 241.24C143.21 241.33 144.87 241.51 145.82 242.23 152.76 247.52 158.7 256.85 156.5 265.58 154.34 254.7 146.25 247.26 136.83 240.67 137.74 240.5 139.09 240.65 139.88 241.21L145.5 245.15Z" fill="#F5F6F1"/><path d="M258.07 212.56 262.35 209.36 272.94 198.62 277.33 193.74 281.22 189.08 283.91 185.94 293.15 173.87C293.95 174.79 294.48 173.41 295.17 173.53 286.11 186.95 275.38 199.02 263 209.95 259.99 212.61 257.53 215.27 253.61 216.81 254.77 214.85 256.47 213.76 258.08 212.55Z" fill="#ECF1E0"/><path d="M138.39 247.37C139.29 248.19 140.01 249.07 140.61 250.12L144.28 256.53C143.85 252.88 141.46 250.13 139.36 247.17 137.49 244.53 134.92 242.84 131.99 240.99 134.85 240.86 136.42 243.27 138.49 244.68 145.36 249.34 149.67 262.07 144.08 269.43 145.67 258.73 140.29 250.63 132.54 243.11 135.17 243.66 136.6 245.75 138.38 247.37Z" fill="#F4F7F4"/><path d="M232.37 233.2C232.74 235.37 235.58 233.02 239.13 233.5L239.13 234.49C239.13 234.49 234.91 235.42 234.91 235.42 227.21 237.96 219.51 239.52 211.76 240.78 211.87 240.28 212.09 239.62 212.01 239.04 211.94 238.57 210.93 238.6 210.83 238.35L215.87 237.4C221.61 236.32 226.98 235 232.37 233.2Z" fill="#D4854A"/><path d="M83.4 177.15C83.47 177.05 83.38 176.77 83.25 176.76 79.03 176.23 75.16 176.88 71.02 178.4 74.88 182.13 71.05 186.44 71.08 186.55 71.13 186.71 71.49 187.04 71.92 187.37 72.29 186.01 73.61 184.14 74.73 183.62 75.1 183.64 75.32 183.55 75.53 183.58 75.7 183.6 75.86 183.88 75.89 184.36 74.68 184.85 73.34 186.17 72.78 187.5 72.22 188.83 73.67 190.56 74.95 190.91 74.52 191 74.18 191.21 74.22 191.43L74.33 192.17C71.73 191.23 73.28 193.62 70.97 195.85 70.69 196.12 70.21 196.62 69.86 196.75 65.4 198.4 63.74 196.63 62.53 197.53 62.3 197.29 61.65 196.65 62.22 196.51 62.45 196.45 63 196.6 62.96 195.93 66.83 197.13 70.68 195.32 71.38 192.28 71.81 190.38 71.48 188.91 70.03 187.59 67.95 189.14 65.97 189.05 63.88 188.64 64.04 188.37 64.14 187.95 64.05 187.6 66.06 188.02 67.76 187.69 69.33 186.47 70.99 185.18 72.15 183.32 71.43 181.06 71.23 180.43 70.75 179.88 70.47 179.5 70.1 179.01 69.28 179.44 68.87 179.46 68.87 178.72 69.59 178.26 70.59 178.12 70.84 177.83 71.13 177.36 71.44 177.3 71.75 177.24 72.35 177.38 72.68 177.53 73.14 176.73 73.58 176.77 74.22 176.85 77.07 175.8 80.11 175.11 83.06 175.83 83.95 176.04 84.3 176.85 83.4 177.15Z" fill="#AA4230"/><path d="M133.79 231.79 136.4 231.55C136.57 232.23 135.96 232.71 135.26 232.16 134.54 232.02 134.14 233.29 134.56 233.49 135.18 233.79 135.6 233.96 136.49 233.59 137.31 234.07 138.95 234.19 138.93 232.75 143.77 231.69 149.17 232.66 153.96 235.24 154.19 235.36 154.17 235.9 154.12 236 149.79 234.2 145.39 232.42 139.89 233.64L147.14 235.57 155.66 238.34C155.81 238.52 155.58 238.83 155.39 238.8 155.15 238.77 154.62 238.77 154.42 238.94 148.3 236.61 141.77 235.17 135.05 234.09 134.5 235.5 134.34 236.6 134.19 237.81 133.39 237.76 133.3 237.88 132.53 237.09 133.18 235.74 133.34 234.29 132.67 232.81 132.59 232.63 132.62 232.25 132.74 232.1 132.96 231.82 133.45 231.8 133.8 231.77Z" fill="#B0462F"/><path d="M15.94 149.3C15.27 149.87 14.84 150.56 14.85 151.44L6.47 150.79C9.05 149.52 11.69 150 14.71 148.75 10.57 147.8 6.79 148.94 2.89 150.29 4.42 147.18 8.11 144.6 11.41 144.49 12.67 145.99 14.21 148.06 16.46 148.23L15.95 149.3ZM8.89 146.07C9.13 147.11 9.68 147 10.05 146.91 10.69 146.75 11.43 146.42 10.86 145.59 10.5 145.86 9.83 146.38 8.89 146.07Z" fill="#F7F5F7"/><path d="M95.59 63.25C95.25 62.91 95.34 62.15 94.54 61.83 95.65 55.48 96.75 49.27 97.34 42.72 97.47 41.31 97.45 40.12 97.64 38.7L98.26 34.09C98.79 44.14 97.44 53.73 95.6 63.24Z" fill="#E7C974"/><path d="M98.43 238.81C97.99 238.77 97.84 239.07 97.91 239.39 96.52 238.14 94.92 237.63 92.81 237.4 92.07 235.44 96.67 238 99.86 234.88 100.48 234.28 100.72 233.45 100.63 232.63 100.35 229.98 95.67 229.47 91.7 229.09 95.41 226.99 102.03 228.89 102.05 233.14 102.07 236.45 97.46 237.21 97.85 237.87L98.42 238.82Z" fill="#CF8F55"/><path d="M128.49 207.18C129.64 211.6 128.25 212.66 131.02 213.94 132.52 214.64 133.71 213.9 134.86 212.34 135.19 212.27 135.84 211.97 136.12 212.03 136.6 212.14 136.26 212.79 136.24 213.01 135.62 214.19 133.88 215.05 132.87 215.77 133.36 217.19 133.69 218.84 132.8 220.15L131.5 219.99C132.72 217.58 131.21 214.68 128.53 213.97 127.97 215.33 127.26 216.16 126.24 216.2 125.92 216.21 125.78 215.98 125.66 215.58 128.25 213.42 128.59 209.98 126.81 207.15L128.5 207.15Z" fill="#A44831"/><path d="M184.18 262.94 175.34 258.33 170.58 251.44C175.94 254.51 180.32 258.22 184.18 262.94Z" fill="#FAFBFB"/><path d="M265.88 255.17C266.26 255.28 266.69 255.45 266.81 255.95 258.52 258.38 250.14 259.96 241.32 260.89 241.32 260.35 240.94 260.15 240.85 259.74 249.34 259.05 257.65 257.28 265.89 255.18Z" fill="#BF7A42"/><path d="M281.21 189.09 277.32 193.75 272.93 198.63 262.34 209.37 258.06 212.57C257.68 211.27 258.48 210.82 259.01 210.24 259.02 210.77 259.51 210.87 259.62 210.45L271.86 198.61 276.74 193.26 280.46 188.94 281.21 189.09Z" fill="#B55A46"/><path d="M103.96 75.62C103.8 75.07 103.5 74.85 102.99 74.63L108.03 59.87 109.96 52.83C110.5 55.9 109.43 58.66 108.54 61.44L103.96 75.62Z" fill="#C58940"/><path d="M208.67 223.04C201.22 226.22 192.88 227.9 184.53 228.1 184.58 227.62 184.2 227.38 184.17 227.05 186.13 226.79 187.94 226.8 189.93 226.52L198.54 225.31 208.67 223.04Z" fill="#E4C571"/><path d="M111.8 234.07C111.8 234.14 111.04 234.65 111.22 234.75 111.74 235.04 111.66 235.28 111.62 235.49 110.76 239.34 110.55 238.99 106.69 241.36 105.48 241.36 103.5 242.24 103.04 240.37 106.18 239.71 109.54 239.61 109.98 235.53L103.68 234.19C106.41 233.58 109.11 233.62 111.81 234.05Z" fill="#C06C34"/><path d="M171.25 196.33 171.14 197.59C170.37 197.5 169.53 197.74 168.45 198.19 169.42 203.29 166.33 207.66 161.44 209.25L161.51 208.08C165.32 206.25 168.55 202.86 167.2 198.25 167.32 196.98 169.89 196.31 171.24 196.32Z" fill="#CF9C5F"/><path d="M173.4 239.11C167.33 238.95 161.84 237.4 156.7 234.57 162.58 235.31 167.83 236.93 173.4 239.11Z" fill="#F0F1F2"/><path d="M150.76 146.74 150.78 145.71 162.47 144.79C163.43 144.71 164.85 144.83 165.44 143.73 166.15 143.66 167.4 143.73 168.78 144.34 163.01 146.05 156.86 146.42 150.76 146.74Z" fill="#E5CB8F"/><path d="M107 105.56C107.02 105.03 106.81 104.76 106.31 104.56L118.15 91.64C116.22 95.98 113.15 99.01 110.16 102.19L106.99 105.57Z" fill="#E7D282"/><path d="M95.17 141.3C94.57 141.31 94.22 141.92 94.05 142.36 92.31 142.35 89.49 146.29 85.96 144.68 89.42 143 92.1 141.13 95.08 139.07 95.76 139.89 95.42 140.63 95.17 141.31Z" fill="#F4F5F3"/><path d="M181.85 110.39C181.82 109.95 181.66 109.72 181.37 109.41 185.97 107.43 190.28 105.11 194.72 102.43 195.33 101.64 196.27 102.46 195.41 103.09L181.85 110.39Z" fill="#EACB73"/><path d="M236.11 270.77 236.74 269.81 247.87 271.98C248.17 272.04 248.98 271.19 249.16 271.43 249.34 271.67 249.05 272.64 250.22 272.33 250.83 272.76 250.39 273.37 249.48 273.17L236.11 270.78Z" fill="#D8AF6E"/><path d="M349.57 160.58C349.57 160.24 349.41 160 349.02 159.83 353.91 157.57 358.96 155.53 364.65 154.62 363.13 155.82 361.32 155.9 359.61 156.58L349.57 160.58Z" fill="#C0826F"/><path d="M89.88 151.65C89.86 150.67 90.23 149.51 90.73 149.22L95.12 146.66C95.66 147.09 95.76 148.64 95.31 148.87L89.89 151.65Z" fill="#F3F3EC"/><path d="M112.25 201.11C111.87 201.28 111.56 201.33 111.2 201.26L108.9 198.79C107.21 196.98 105.46 195.51 104.92 193.25L106.61 192.71C106.39 192.84 106.33 193.08 106.12 193.35 107.91 196.27 109.9 198.92 112.25 201.11Z" fill="#BD6F4D"/><path d="M43.57 149.46C43.9 149.06 43.76 148.67 43.7 148.35 45.98 149.88 48.28 154.88 48.6 158.46 47.83 158.23 47.91 157.27 47.61 156.74L43.57 149.46Z" fill="#E8CA76"/><path d="M81.1 101.12C80.8 100.91 80.56 100.75 80.11 100.67L83.6 88.76C84.34 90.1 83.79 91.54 83.37 93.04L81.1 101.13Z" fill="#E1CB7E"/><path d="M93.72 153.03 91.61 154.11C90.9 154.47 90.14 153.28 89.79 152.78L95.13 149.8C95.88 151.16 95.2 152.28 93.72 153.04Z" fill="#F6F8F5"/><path d="M42.61 156.79 43.62 155.61C44.79 159.47 46.04 163.49 45.01 167.58 44.89 163.59 44.05 160.17 42.61 156.79Z" fill="#EBD983"/><path d="M95.44 142.38C96.03 144.19 92.74 146.33 90.33 147.08 89.57 147.31 89.24 145.64 89.88 145.45 90.94 145.13 93.73 143.19 94.05 142.36L95.45 142.39Z" fill="#F5F8F3"/><path d="M186.07 237.72 186.32 236.64C188.38 236.71 190.25 236.82 192.32 236.92L201.22 237.33C201.22 237.33 201.17 237.69 200.95 237.69L186.07 237.72Z" fill="#D5B26E"/><path d="M32.59 193.26 30.8 200.21 30.08 205.07C29.07 200.74 30.36 196.51 31.75 192.54 31.83 193 32.13 193.34 32.59 193.27Z" fill="#D9BE77"/><path d="M143.86 155.94 144.06 155.14 155.76 155.34C151.85 156.86 147.85 156.18 143.87 155.94Z" fill="#DBC373"/><path d="M133.27 178.18C133.04 179.11 132.68 178.13 131.5 178.41L125.06 173.7C125.37 173.74 125.95 172.91 126.17 172.69 126.53 173.97 127.76 174.5 128.73 175.16L133.27 178.19Z" fill="#B65E43"/><path d="M139.58 164.2 140.3 163.36C143.93 163.93 147.34 164.36 150.91 164.56 147 165.16 143.24 165.04 139.58 164.2Z" fill="#DCC077"/><path d="M89.99 159.92C90.42 158.49 91.98 157.86 93.94 157.46 94.95 158.02 94.01 159.23 93.47 159.84 92.67 160.74 91.52 160.82 89.99 159.92Z" fill="#F7F8F4"/><path d="M83.83 53.64 83.5 60.02 82.33 59.71 82.72 53.33 83.83 53.64Z" fill="#B27B3A"/><path d="M233.84 222.55C234.08 222.57 234.5 222.74 234.61 223.26 232.52 224.49 230.27 225.47 227.94 226.52L228.05 225.22 233.84 222.54Z" fill="#CC9A3E"/><path d="M107.13 146.29C106.98 145.13 107.08 144.49 107.21 143.75L110.4 142.36C110.71 144.38 108.93 146.02 107.13 146.29Z" fill="#F6F7F7"/><path d="M123.63 190.06C123.56 190.24 123.43 190.5 123.07 190.63L118.08 186.19C118.76 186.09 118.88 185.75 118.92 185.34L123.63 190.05Z" fill="#BD703E"/><path d="M145.52 245.14C145.96 245.3 146.17 244.92 146.23 244.59L148.32 246.93C149.44 248.19 151.44 249.39 151.3 251.77L145.53 245.13Z" fill="#BC7F51"/><path d="M138.65 171.71C138.32 171.99 138.32 172.26 138.32 172.62L132.47 170.34C133.05 170.19 133.19 169.94 133.42 169.52L138.65 171.71Z" fill="#BB793E"/><path d="M87.39 172.8C86.2 174.09 84.66 174.13 83.18 173.35 84.12 172.01 85.92 172.02 87.39 172.8Z" fill="#F0F2ED"/><path d="M94.89 155.76C94.28 156.7 93.24 156.92 92.2 157.22 91.87 157.31 91.34 156.58 91.88 156.04 92.21 155.7 92.71 155.54 93.6 155.14L94.37 154.79C94.63 154.68 95.25 155.22 94.89 155.76Z" fill="#F7FDF9"/><path d="M29.15 140.9C27.47 141.81 25.82 142.46 24.01 141.21 25.99 140.35 27.39 140.73 29.15 140.9Z" fill="#F2F7F8"/><path d="M118.17 131.09C118.26 130.75 117.98 130.48 117.57 130.46L122.42 128.48C122.5 128.62 122.5 128.87 122.23 129.01L118.18 131.09Z" fill="#CA8467"/><path d="M108.98 174.89 110.11 173.25C110.22 174.93 111.67 175.79 113.46 176.25 112.02 177.57 110.73 175.09 108.98 174.89Z" fill="#C77B63"/><path d="M122.87 146.11 123.01 145.56 128.94 145.39C129.02 145.75 128.85 145.97 128.64 146.09L122.88 146.12Z" fill="#D0AB62"/><path d="M53.85 165.95C53.52 165.85 53.25 166.19 53.17 166.6 52.99 165.28 52.14 163.87 52.31 162.46 52.35 162.39 52.57 162.18 52.61 162.16 53.28 163.37 53.48 164.66 53.85 165.95Z" fill="#C17A6A"/><path d="M46.34 174.52C46.02 174.34 45.76 173.95 45.29 173.94 45.61 173.03 44.91 171.8 46.35 171.21L46.35 174.52Z" fill="#CA7C7B"/><path d="M292.12 222.19C292.3 221.1 293 221.31 293.48 221.1 293.49 221.55 293.96 221.82 294.59 221.47 295.76 221.03 295.66 222.72 294.56 222.07 293.42 222.6 292.88 222.62 292.13 222.2Z" fill="#BB7564"/><path d="M292.7 209.39 292.74 208.71C292.96 208.27 293.34 207.87 293.7 207.71 294.02 207.57 294.86 207.65 294.99 208.04L292.7 209.4Z" fill="#BA8C8B"/><path d="M93.16 190.56 94.15 189.92 94.63 192.21C93.72 191.74 93.31 191.2 93.16 190.56Z" fill="#D38E6F"/><path d="M193.24 257.33C192.88 257.42 192.57 257.68 192.82 258.1L191.01 257.26C191.75 256.57 192.57 257.15 193.24 257.33Z" fill="#C28A8C"/><path d="M154.78 129.19 153.82 129.54C153.3 129.73 152.9 129.33 153.25 128.95 153.52 128.66 153.79 128.45 154.07 128.36 154.03 128.8 154.34 129.06 154.79 129.19Z" fill="#C59DA0"/><path d="M95.44 142.38 94.04 142.35C94.21 141.91 94.56 141.31 95.16 141.29 95.35 141.68 95.6 141.95 95.44 142.37Z" fill="#C6887C"/><path d="M258.07 234.07C257.97 234.43 257.64 234.5 257.2 234.54 256.93 234.56 256.26 234.6 256.62 233.96 256.81 233.61 257.24 233.55 257.64 233.36 257.39 233.8 257.71 234.05 258.07 234.07Z" fill="#C5929B"/><path d="M151.96 226.38 151.38 227.58C151.07 227.51 150.85 227.36 150.85 226.99L150.81 226.41C151.05 226.54 151.68 226.32 151.95 226.37Z" fill="#CB7D41"/><path d="M207.79 248 207.66 248.41 205.97 248.28C206.44 247.38 207.32 248.05 207.79 248Z" fill="#BD7675"/><path d="M48.91 215.77 49.25 215.12C49.39 215.56 50.14 216.22 49.25 216.89 49 216.3 49.04 215.92 48.9 215.77Z" fill="#CB8F8E"/><path d="M92.56 161.19C92.93 160.78 93.46 161.13 93.51 161.34 93.55 161.52 93.16 161.81 93.04 161.94 92.69 162.31 92.07 161.74 92.57 161.19Z" fill="#DAAEA8"/><path d="M252.77 228.2C252.5 228.28 251.9 228.87 251.62 228.33 251.55 228.19 251.95 227.8 252.1 227.76L252.78 227.55 252.78 228.2Z" fill="#A96266"/><path d="M150.33 205.02C153.59 206.55 157.5 206.51 160.07 204.14 161.77 202.57 162.36 200.07 161.27 198.17 160.18 196.27 157.66 194.99 155.63 196.28 154.43 197.04 153.7 198.34 153.74 199.32 153.8 200.88 155.11 201.68 156.44 202.14 154.18 203.12 152.89 201.19 152.45 199.91 151.81 198.03 152.37 196.39 153.97 195.2 156.08 193.62 159.37 193.49 161.63 195.45 164.84 198.23 164.28 203.39 160.88 205.96 157.67 208.39 153.27 208.55 149.65 206.79 145.59 204.82 142.15 205.83 138.41 209.12 139.96 203.77 145.95 202.96 150.33 205.02Z" fill="#A22324"/><path d="M190.44 195.18C190.87 195.32 191.07 195.55 191.13 196.06 187.72 198.25 183.01 199.39 179.22 197.15 176.38 195.48 175.19 191.99 176.96 189.42 178.04 187.86 179.72 187.3 181.6 187.84 182.78 188.18 184.43 189.4 183.75 191.18 183.63 191.49 183.45 191.88 183.29 191.99 183.15 192.08 182.78 191.92 182.69 191.71 182.62 191.56 182.66 191.3 182.91 190.95 182.84 189.42 181.43 188.64 180.06 188.85 178.9 189.02 177.62 190.05 177.59 191.72 177.53 194.25 179.82 196.23 182.33 196.66 185.12 197.14 188.14 196.6 190.44 195.18Z" fill="#A8322E"/><path d="M161.52 208.09 161.45 209.26C153.19 211.95 148.08 208.05 144.44 208.79L144.56 208.25C151.44 207.93 156.16 210.68 161.53 208.09Z" fill="#A74C3A"/><path d="M196.42 191.21C194.87 193.24 193.11 194.79 191.13 196.06 191.06 195.56 190.86 195.33 190.44 195.18 192.4 193.97 194.32 192.29 195.76 190.5 196.12 190.5 196.42 190.63 196.42 191.2Z" fill="#C3794D"/><path d="M144.55 208.25 144.43 208.79C144.05 208.87 143.51 208.9 142.77 208.6 143.24 207.97 143.97 208.28 144.55 208.25Z" fill="#CBAE9B"/><path d="M266.81 255.95C266.69 255.46 266.26 255.29 265.88 255.17 274.19 253.05 282.39 249.98 290.21 246.56 290.1 245.61 291.18 245.79 291.72 246.54 283.85 250.51 275.4 253.44 266.81 255.95Z" fill="#E9C47C"/><path d="M438.12 183.74C437.84 184.14 437.45 184.52 436.88 184.73 434.66 182.75 431.6 181.03 428.26 181.05 434.41 182.55 438.31 188.92 436.7 190.56 434.45 192.85 427.06 190.3 424.05 185.83 423.89 185.45 424.26 184.69 423.51 184.35 423.04 184.14 422.5 184.03 421.91 184.16 421.66 183.2 420.68 181.46 421.34 180.32 427.12 178.28 433.59 179.97 438.14 183.74Z" fill="#A91E21"/><path d="M420.02 180.11C410.38 176.27 400.7 173.41 390.21 172.58L379.33 172.36C379.17 172.36 378.97 172.06 379.04 171.86L392.83 172.04C402.27 173.26 411.72 174.89 420.02 180.1Z" fill="#AD5348"/><path d="M441.6 188.95C442.3 190.75 442.77 192.64 443.02 195.02 439.65 195.8 433.89 195.72 431.61 194.79 431.84 194.43 432.03 194.15 432.09 193.56 435.03 194.66 438.15 194.51 441.59 193.96 441.34 192.08 440.87 190.45 440.13 188.85L441.6 188.94Z" fill="#D3AC68"/><path d="M424.04 185.82C425.46 189.22 428.61 192.26 432.09 193.56 432.03 194.14 431.84 194.43 431.61 194.79 427.03 192.93 423.09 188.71 421.9 184.16 422.49 184.03 423.04 184.13 423.5 184.35 424.24 184.69 423.88 185.44 424.04 185.83Z" fill="#962A29"/><path d="M441.6 188.95 440.13 188.86C439.42 187.32 438.19 185.9 436.88 184.73 437.46 184.51 437.84 184.14 438.12 183.74 439.88 185.19 440.86 187.06 441.6 188.95Z" fill="#BA7040"/><path d="M382.73 147.26C382.86 147.79 382.66 148.24 382.18 148.61 379.39 147.99 376.43 148.52 373.72 149.38 372.77 149.68 371.74 149.82 371.01 150.63 371 150.63 371.21 150.83 371.31 150.93 372.37 151.03 373.37 150.27 374.3 150 377.14 149.17 380.38 149.41 382.91 151.33 385.68 153.44 380.23 157.29 373.07 156.93 374.88 157.82 376.68 157.95 378.54 157.84L378.39 159.16C373.63 159.22 368.63 158.15 365.41 154.21 369.64 148.73 376.4 146.13 382.74 147.27Z" fill="#A12121"/><path d="M384.49 157.54C384.49 156.97 384.26 156.82 384.1 156.82L383.15 156.82C385.44 155.58 387.23 153.82 389.25 152.3 386.85 150.45 384.72 149.16 382.19 148.6 382.67 148.24 382.87 147.79 382.74 147.25 385.98 147.83 388.68 149.98 390.84 152.22 388.74 154.61 386.87 156.36 384.49 157.53Z" fill="#D7A960"/><path d="M383.14 156.82 384.09 156.82C384.26 156.83 384.49 156.97 384.48 157.55 382.45 158.55 380.65 159.13 378.38 159.16L378.53 157.84C379.93 157.75 381.97 157.2 383.14 156.82Z" fill="#B36B46"/><path d="M83.83 53.64 82.73 53.33C82.93 50.03 82.76 46.64 82.59 43.44L82.15 35.45C83.92 38.34 83.06 41.31 83.6 44.08 84.23 47.3 84 50.46 83.84 53.63Z" fill="#DEC966"/><path d="M302.46 152.54C300.56 154.32 298.71 156.69 298.28 159.62 300.7 155.8 303.52 152.18 308.4 152.03 311.04 151.95 310.18 161.08 301.7 165.79 305.52 164.92 307.93 162.29 310.43 159.97 310.84 160.13 311.23 159.94 311.75 160.29 307.97 165.05 302.38 168.32 296.28 168.01 294.87 161.42 297.22 155 301.98 150.73 302.66 151.21 302.58 151.97 302.47 152.54Z" fill="#A21C1F"/><path d="M311.74 160.28C311.22 159.93 310.83 160.12 310.42 159.96 312.71 156.37 313.67 152.26 313.28 147.76 312.18 148.42 311.19 148.08 310.49 148.3 310.74 147.78 311 147.38 311.19 146.8L314.51 146.4C315.11 151.38 314.86 156.35 311.73 160.29Z" fill="#D9AC60"/><path d="M293.15 173.88 283.91 185.95 281.22 189.09 280.47 188.94 292.3 173.48 295.33 169.57C295.74 171.18 293.18 172.5 293.15 173.89Z" fill="#CC9869"/><path d="M310.5 148.29C307.57 149.2 304.71 150.43 302.46 152.54 302.57 151.97 302.65 151.21 301.97 150.73 304.58 148.39 307.71 147.22 311.2 146.8 311.01 147.38 310.74 147.78 310.5 148.3Z" fill="#BF773C"/><path d="M151.39 227.58 151.97 226.38C154.93 226.95 157.82 228.01 160.61 229.58L151.4 227.59Z" fill="#E3CD85"/><path d="M33 127.94C32.56 128.51 32.27 129.14 31.11 129.79 30.7 127.97 32.56 128.25 33 127.94Z" fill="#9B1D25"/><path d="M8.89 146.07C9.83 146.38 10.49 145.86 10.86 145.59 11.43 146.42 10.69 146.75 10.05 146.91 9.68 147 9.14 147.11 8.89 146.07Z" fill="#941214"/><path d="M374.29 150C373.36 150.27 372.36 151.03 371.3 150.93 371.2 150.83 370.99 150.62 371 150.63 371.73 149.82 372.76 149.68 373.71 149.38 373.61 149.67 373.88 149.94 374.28 150Z" fill="#C49FA1"/></g></svg>